<?xml version="1.0" encoding="utf-8"?>
<!-- Generator: Adobe Illustrator 24.2.3, SVG Export Plug-In . SVG Version: 6.00 Build 0)  -->
<svg version="1.1" id="Layer_1" xmlns="http://www.w3.org/2000/svg" xmlns:xlink="http://www.w3.org/1999/xlink" x="0px" y="0px"
	 viewBox="0 0 40 40" style="enable-background:new 0 0 40 40;" xml:space="preserve">
<g>
	<path d="M30.1,38.7H7.6c-3.1,0-5.6-2.5-5.6-5.6V10.6C2,7.5,4.5,5,7.6,5h17.4v2H7.6C5.6,7,4,8.6,4,10.6v22.5c0,2,1.6,3.6,3.6,3.6
		h22.5c2,0,3.6-1.6,3.6-3.6V14.9h2v18.2C35.8,36.2,33.2,38.7,30.1,38.7z"/>
	<path d="M17.8,32.4c-1.2,0-1.8-0.6-4.3-6.1s-6.7-5-6.9-5c-1.3-0.4,6.9-2.6,10.6,2.4c3.7-7.4,10.8-16.1,16-19.4
		C35,3,37.7,2.3,38.5,2.7c0.2,0.1,0.2,0.3,0,0.4c-10.4,7.6-15.2,20.8-16.6,24C20.2,31.4,19.1,32.4,17.8,32.4z"/>
</g>
</svg>
