<?xml version="1.0" encoding="utf-8"?>
<!-- Generator: Adobe Illustrator 24.2.3, SVG Export Plug-In . SVG Version: 6.00 Build 0)  -->
<svg version="1.1" id="Layer_1" xmlns="http://www.w3.org/2000/svg" xmlns:xlink="http://www.w3.org/1999/xlink" x="0px" y="0px"
	 viewBox="0 0 40 40" style="enable-background:new 0 0 40 40;" xml:space="preserve">
<g>
	<g>
		<path d="M20,39C9.5,39,1,30.5,1,20S9.5,1,20,1s19,8.5,19,19S30.5,39,20,39z M20,3C10.6,3,3,10.6,3,20s7.6,17,17,17s17-7.6,17-17
			S29.4,3,20,3z"/>
	</g>
	<g>
		<path d="M20,30.8c-0.8,0-1.4-0.6-1.4-1.4s0.6-1.4,1.4-1.4s1.4,0.6,1.4,1.4S20.8,30.8,20,30.8z M22.3,21.6
			c-0.5,0.2-0.8,0.8-0.8,1.3v0.6c0,0.8-0.6,1.4-1.4,1.4s-1.4-0.6-1.4-1.4V23c0-1.7,1-3.2,2.5-3.9c1.5-0.7,2.5-2.5,2.5-3.4
			c0-2-1.6-3.6-3.6-3.6s-3.6,1.6-3.6,3.6c0,0.8-0.6,1.4-1.4,1.4c-0.8,0-1.4-0.6-1.4-1.4c0-3.6,2.9-6.5,6.5-6.5s6.5,2.9,6.5,6.5
			C26.5,17.6,24.8,20.5,22.3,21.6z"/>
	</g>
</g>
</svg>
