<?xml version="1.0" standalone="no"?>
<!DOCTYPE svg PUBLIC "-//W3C//DTD SVG 1.1//EN" "http://www.w3.org/Graphics/SVG/1.1/DTD/svg11.dtd" >
<svg xmlns="http://www.w3.org/2000/svg">
<metadata>Generated by IcoMoon</metadata>
<defs>
<font id="ficons" horiz-adv-x="1024">
<font-face units-per-em="1024" ascent="960" descent="-64" />
<missing-glyph horiz-adv-x="1024" />
<glyph unicode="&#x20;" horiz-adv-x="512" d="" />
<glyph unicode="&#xe900;" glyph-name="about" d="M912.384 608.256c0 1.536 0 3.584-0.512 6.656-3.584 0-6.656 0-10.24 0-57.856 0-115.712-0.512-173.568 0-65.024 0.512-113.664 29.184-144.896 85.504-11.264 20.992-16.896 43.52-16.896 67.072 0 62.976 0 126.464 0 189.44-119.296 0-238.592 0-357.888 0-8.192-2.048-16.896-3.584-25.088-6.656-38.912-14.336-62.464-41.984-69.632-81.92-0.512-1.536-1.024-3.072-1.536-4.608 0-278.016 0-555.52 0-833.536 1.536-5.12 2.56-10.24 4.096-15.872 13.824-40.96 41.472-66.56 84.992-74.752 1.536 0 2.56-1.024 4.096-1.536 204.8 0 409.6 0 614.4 0 6.656 1.536 12.8 3.072 19.456 5.12 43.008 13.312 73.728 53.248 73.728 97.28-0.512 189.44-0.512 378.88-0.512 567.808zM780.8 147.968c-6.656-12.288-16.896-19.456-31.232-20.992-3.584-0.512-7.168-0.512-10.24-0.512-161.28 0-322.56 0-483.328 0-14.336 0-26.624 2.56-36.352 13.824-10.752 12.8-12.8 27.136-6.144 41.984 7.168 14.848 18.944 23.040 35.84 23.040 58.88 0 117.76 0 176.64 0 24.064 0 48.128 0 71.68 0 81.92 0 164.352 0 246.784 0 30.72 0 50.176-30.72 36.352-57.344zM776.192 307.2c-8.192-10.752-19.456-15.36-32.768-15.36-81.92 0-163.84 0-245.76 0-82.944 0-165.376 0-248.32 0-19.456 0-36.352 14.336-39.424 32.768-3.072 18.944 7.68 37.376 26.624 43.52 5.12 1.536 10.752 2.56 16.384 2.56 162.816 0 326.144 0 488.96 0 17.408 0 31.232-6.656 38.912-23.040 7.168-13.312 5.632-27.648-4.608-40.448zM778.24 479.232c-6.656-10.24-16.384-16.384-28.672-17.408-3.584-0.512-7.168-0.512-10.752-0.512-161.28 0-322.56 0-483.328 0-15.36 0-29.184 3.584-38.4 16.896-9.216 12.8-10.24 27.136-3.072 40.96 7.168 13.312 18.432 21.504 34.304 21.504 55.808 0 111.616 0 167.424 0 27.136 0 53.76 0 80.896 0 82.432 0 164.864 0 247.296 0 15.872 0 28.16-7.168 35.84-20.992s7.168-27.648-1.536-40.448zM620.032 747.008c11.776-49.152 52.736-80.896 104.96-81.408 59.392-0.512 118.784 0 178.176 0 2.048 0 4.096 0.512 6.144 0.512-97.28 96.256-194.56 192-291.84 288.256 0-1.536 0-3.072 0-5.12 0-60.928 0-121.856 0-182.784 0-6.144 1.024-12.8 2.56-19.456z" />
<glyph unicode="&#xe901;" glyph-name="add-to-cart" d="M862.72 730.112c-1.536 18.432-16.896 32.256-35.328 32.256h-110.080c-5.632 108.544-95.232 195.072-204.8 195.072s-199.68-86.528-205.312-195.072h-110.080c-18.432 0-33.792-14.336-35.328-32.256l-56.832-647.168c0-1.024 0-2.048 0-3.072 0-77.824 70.656-141.312 157.696-141.312h499.2c87.040 0 157.696 63.488 157.696 141.312 0 1.024 0 2.048 0 3.072l-56.832 647.168zM512 886.272c70.656 0 128-54.272 133.632-123.904h-267.264c5.632 69.12 63.488 123.904 133.632 123.904zM761.856 9.728h-499.2c-47.104 0-86.016 30.72-86.528 68.608l53.76 612.864h76.8v-76.288c0-19.456 15.872-35.84 35.84-35.84 19.456 0 35.84 15.872 35.84 35.84v76.288h268.8v-76.288c0-19.456 15.872-35.84 35.328-35.84s35.84 15.872 35.84 35.84v76.288h76.8l54.272-612.352c-1.536-38.4-39.936-69.12-87.552-69.12zM529.92 489.472v-130.048h125.44v-33.28h-125.44v-131.584h-35.328v131.584h-125.44v33.28h125.44v130.048h35.328z" />
<glyph unicode="&#xe902;" glyph-name="arrow-left" d="M449.024 918.016c18.432 19.456 49.664 19.456 69.12 0 18.432-18.944 18.432-50.176 0-68.608l-349.696-352.256h804.352c26.624 0 48.128-21.504 48.128-48.64s-21.504-49.152-48.128-49.152h-804.352l349.184-351.744c18.432-19.456 18.432-50.688 0-69.632-19.456-19.456-50.176-19.456-69.12 0l-431.616 435.712c-19.456 18.944-19.456 50.176 0 68.608l432.128 435.712z" />
<glyph unicode="&#xe903;" glyph-name="avatar" d="M745.984 291.84c98.816-40.448 67.584-10.24 148.48-49.664 126.976-62.464 126.976-234.496 126.976-234.496v0c0 0 0 0 0 0 0-26.112-21.504-47.104-47.616-47.104h-923.648c-26.112 0-47.616 20.992-47.616 47.104 0 0 0 0 0 0v0c0 0 0 172.032 126.976 235.008 80.384 39.424 49.664 7.68 148.48 48.128s122.368 54.784 122.368 54.784l1.024 93.184c0 0-36.864 28.16-48.64 115.712-23.040-6.656-30.72 26.624-32.256 48.128-1.024 20.48-13.312 84.992 14.848 79.36-5.632 43.008-9.728 81.92-7.68 102.4 6.656 71.168 76.8 146.432 185.344 152.064 126.976-5.632 177.664-80.896 184.32-153.088 2.048-20.48-2.56-59.392-8.192-102.4 28.16 5.632 15.872-58.368 14.848-79.36-1.024-21.504-9.216-54.784-32.256-48.128-11.776-88.064-48.64-115.712-48.64-115.712l1.024-92.672c-0.512 0.512 23.040-12.8 121.856-53.248z" />
<glyph unicode="&#xe904;" glyph-name="cart" d="M886.784 714.24c-1.536 19.968-17.92 34.304-37.888 34.304h-117.76c-6.144 116.224-101.888 208.896-219.136 208.896s-213.504-92.672-219.648-208.896h-117.76c-19.968 0-36.352-15.36-37.888-34.304l-60.928-621.056c0-1.024 0-2.048 0-3.072 0-83.456 75.776-151.040 168.96-151.040h534.528c93.184 0 168.96 68.096 168.96 151.040 0 1.024 0 2.048 0 3.072l-61.44 621.056zM512.512 881.152c75.264 0 137.216-57.856 142.848-132.608h-286.72c6.144 74.24 68.096 132.608 143.872 132.608zM779.264 14.848h-534.528c-50.176 0-92.16 32.768-92.672 73.216l57.856 584.192h81.92v-81.408c0-20.992 16.896-38.4 38.4-38.4 20.992 0 38.4 16.896 38.4 38.4v81.408h287.232v-81.408c0-20.992 16.896-38.4 37.888-38.4s37.888 16.896 37.888 38.4v81.408h82.432l57.856-583.68c-0.512-40.96-41.984-73.728-92.672-73.728z" />
<glyph unicode="&#xe905;" glyph-name="category" d="M570.368-61.44h451.072v451.072h-451.072v-451.072zM2.56 506.368h451.072v451.072h-451.072v-451.072zM570.368 957.44v-451.072h451.072v451.072h-451.072zM2.56-61.44h451.072v451.072h-451.072v-451.072z" />
<glyph unicode="&#xe906;" glyph-name="catering" d="M1018.88 41.472c-9.216 24.064-27.648 34.304-51.712 34.304-303.616 0-607.232 0-910.848 0-13.312 0-26.112-3.072-35.84-12.288-7.168-7.168-12.288-16.384-18.432-24.576v-29.696h1018.88v29.696c-0.512 1.024-1.536 1.536-2.048 2.56zM695.296 710.144c12.8-22.016 26.112-43.52 38.4-66.048 9.728-17.408 15.36-36.352 12.8-56.832-1.536-9.728-5.12-19.456-7.68-30.208 2.048 1.536 4.096 2.56 5.632 4.096 38.4 33.792 48.64 76.288 27.136 122.368-11.776 26.112-27.136 50.688-40.448 75.776-14.336 26.624-26.112 54.784-21.504 86.016 2.048 14.336 8.704 28.16 13.312 41.984h-4.096c-4.608-5.632-9.216-10.752-13.824-16.896-20.992-26.112-35.328-54.272-33.792-88.576 1.536-26.624 11.776-49.664 24.064-71.68zM130.048 107.008c2.048 207.36 159.744 346.624 307.712 371.712-55.808-20.992-98.816-56.832-133.12-102.912-50.688-67.584-78.336-143.872-87.040-227.328-1.536-13.824-1.536-28.16-2.048-41.984h625.152c-6.144 152.576-61.952 275.968-196.096 356.864 157.184-67.072 242.176-185.344 251.392-356.864h62.976c-0.512 86.528-23.040 166.4-69.632 238.592-67.072 102.912-161.28 167.936-280.576 196.096 3.584 61.952-41.472 103.424-92.672 105.472-23.552 0.512-45.056-6.144-63.488-21.504-26.112-22.016-37.376-50.176-34.816-83.968-240.64-55.296-355.328-270.336-349.696-434.688h61.952zM487.424 581.632c13.312 10.24 27.648 12.288 42.496 4.608 13.824-7.168 20.992-18.944 21.504-35.328h-78.336c-1.024 12.288 4.608 23.040 14.336 30.72zM869.888 565.248c12.288-22.016 20.48-45.056 9.216-70.656 1.024-0.512 2.56-1.536 3.584-2.048 7.168 9.728 15.36 18.432 20.48 29.184 12.8 24.064 6.656 48.128-4.608 71.168-9.728 18.944-20.48 37.888-30.208 56.832-12.8 24.576-15.872 50.176-3.072 76.288 0.512 1.024 0.512 2.56 1.024 4.608-2.56-1.024-4.096-1.536-5.12-2.56-28.672-32.768-41.472-67.072-20.992-109.056 8.704-18.432 19.456-35.84 29.696-53.76z" />
<glyph unicode="&#xe907;" glyph-name="diversified-products" d="M589.312 692.736c132.096 64 266.24 97.28 410.624 42.496-1.024 3.072-1.536 5.12-2.56 6.656-17.408 23.552-34.816 47.616-52.736 71.168-2.56 3.072-7.168 5.12-11.264 6.656-40.448 15.36-81.92 25.6-124.928 29.696-50.688 4.096-100.864 1.024-148.992-14.848-19.456-6.656-38.4-14.848-58.368-22.528-8.192 13.824-16.384 28.16-25.6 45.056 25.6 9.728 49.664 20.992 74.752 28.672 71.168 20.992 142.848 22.016 218.112 7.168-3.072 3.584-4.608 5.12-6.144 6.144-29.696 23.040-62.976 39.424-99.84 48.128-18.432 4.096-36.864 6.656-55.296 9.728h-49.664c-5.12-0.512-10.24-1.024-14.848-2.048-51.2-6.144-100.352-19.968-147.968-39.936-15.872-6.656-31.232-14.336-48.128-22.528 88.064-38.912 135.168-104.96 142.848-199.68zM208.384 207.872c16.384 79.872 49.152 153.6 93.696 221.696 8.192 12.8 17.408 25.088 26.624 38.912-94.72 22.016-154.112 78.336-180.224 172.032-3.072-3.072-5.12-5.632-7.168-7.68-33.792-44.544-64-91.648-88.064-142.336-38.912-83.456-61.44-169.984-47.104-262.656 7.68-49.664 27.648-93.696 60.416-131.584 1.536-1.536 3.072-2.56 6.656-5.12-17.92 73.728-22.016 145.92-8.192 218.112s42.496 138.24 93.184 194.048c13.312-11.776 25.6-23.040 37.888-33.792-8.704-11.776-17.92-22.528-25.6-34.304-33.792-53.76-52.736-112.64-57.856-175.616-6.144-70.656 3.072-139.264 29.184-205.312 14.848-37.376 39.424-65.536 75.264-83.968 2.56-1.536 5.12-2.048 9.216-3.584-1.024 3.072-1.024 4.096-1.536 5.632-31.232 76.8-32.768 155.648-16.384 235.52zM241.152 87.552c4.608-43.52 10.752-83.456 22.016-122.368 2.56-8.704 7.68-11.776 15.36-13.824 71.168-17.92 142.336-15.872 212.992 1.024 94.72 22.528 178.688 66.56 254.976 125.952 18.432 14.336 36.352 30.208 53.76 44.544-37.376 37.376-73.728 73.216-112.128 111.104-127.488-106.496-277.504-154.112-446.976-146.432zM1016.832 684.032c-1.024 7.168-3.584 11.264-10.752 12.8-43.52 8.704-87.040 17.408-130.56 26.112-2.56 0.512-5.632 0-9.728 0 19.968-166.4-19.456-314.368-129.024-440.32 37.888-37.888 74.24-74.24 111.616-111.616 9.728 11.264 20.48 22.528 30.208 34.304 65.024 80.896 103.936 173.568 126.464 273.408 15.36 67.584 20.992 136.192 11.776 205.312zM360.448 558.592c69.12-2.048 135.168 49.664 135.168 128 0 76.8-61.44 125.44-123.392 128-73.216 3.072-134.656-55.296-134.144-127.488 0-69.12 56.832-126.464 122.368-128.512z" />
<glyph unicode="&#xe908;" glyph-name="dot" d="M512 957.44c281.088 0 509.44-228.352 509.44-509.44 0-281.6-227.84-509.44-509.44-509.44s-509.44 227.84-509.44 509.44c0 281.088 228.352 509.44 509.44 509.44z" />
<glyph unicode="&#xe909;" glyph-name="dot-outline" d="M512-61.44c-281.088 0-509.44 228.352-509.44 509.44s228.352 509.44 509.44 509.44c281.088 0 509.44-228.352 509.44-509.44s-228.352-509.44-509.44-509.44zM512 855.552c-224.768 0-408.064-182.784-408.064-407.552s182.784-408.064 408.064-408.064c224.768 0 407.552 182.784 407.552 408.064 0 224.768-182.784 407.552-407.552 407.552z" />
<glyph unicode="&#xe90a;" glyph-name="facebook" d="M743.424 956.416c0-59.392 0-118.784 0-178.176-36.864 0-73.728 0.512-110.080 0.512-33.28 0-45.056-12.288-45.056-46.080-0.512-32.768 0-65.024 0-97.792 0-3.072 0.512-6.144 1.024-9.728 52.224 0 103.424 0 154.624 0 0-1.536 0-3.072 0-5.12-1.024-3.072-2.048-6.144-2.048-9.216-4.096-48.64-8.704-97.792-12.288-146.432-0.512-9.728-3.584-12.288-12.8-12.288-38.4 0.512-76.8 0-115.2 0-4.096 0-8.192 0-13.824 0 0-172.032 0-342.016 0-513.024-67.584 0-133.632 0-201.728 0 0 170.496 0 339.968 0 510.464-36.352 0-70.656 0-105.472 0 0 58.368 0 117.248 0 175.616 34.816 0 69.12 0 105.472 0 0 5.632 0 10.752 0 15.36 0.512 50.176-1.024 100.864 1.536 151.040 3.072 52.736 22.528 99.328 68.096 130.56 33.28 22.528 70.656 32.768 109.568 33.792 56.32 2.048 113.152 1.024 169.472 1.536 3.072 0 6.144-0.512 8.704-1.024z" />
<glyph unicode="&#xe90b;" glyph-name="fashion" d="M770.56 815.616l-14.336-14.336v14.336h-69.632c-31.232-48.64-97.792-82.432-174.592-82.432s-143.36 33.792-174.592 82.944h-70.144v-14.848l-14.336 14.336-250.88-252.416 137.216-138.24 127.488 128.512v-473.6h488.96v474.112l128-128.512 137.216 138.24-250.368 251.904z" />
<glyph unicode="&#xe90c;" glyph-name="food" d="M528.384 797.184c-186.368 0-337.408-147.968-337.408-330.24s151.040-330.24 337.408-330.24c186.368 0 337.408 147.968 337.408 330.24s-151.040 330.24-337.408 330.24zM528.384 216.064c-141.312 0-256 112.64-256 250.88s114.688 250.88 256 250.88c141.312 0 256-112.64 256-250.88 0-138.752-115.2-250.88-256-250.88zM528.384 650.24c-103.424 0-187.392-82.432-187.392-183.296s83.968-183.296 187.392-183.296c103.424 0 187.392 82.432 187.392 183.296s-83.968 183.296-187.392 183.296zM999.936 438.784v401.408c0 3.584-2.56 7.168-6.144 8.704-3.584 1.024-7.68 0-10.24-3.072-51.2-66.048-78.848-146.944-78.848-229.376v-146.944c0-16.896 13.824-30.72 31.232-30.72h12.8c-12.8-129.536-21.504-310.272-21.504-331.776 0-33.28 20.992-60.416 46.592-60.416 26.112 0 47.104 27.136 47.104 60.416 0.512 21.504-7.68 202.24-20.992 331.776zM154.112 813.568c-8.704 0-15.36-7.168-15.36-15.872l8.192-164.864c0-9.216-7.68-16.896-17.408-16.896s-16.896 7.68-16.896 16.896l-4.096 164.864c0 8.704-7.168 15.872-16.384 15.872-8.704 0-16.384-7.168-16.384-15.872l-4.096-164.864c0-9.216-7.68-16.896-17.408-16.896s-16.896 7.68-16.896 16.896l8.192 164.864c0.512 8.704-6.144 15.872-14.848 15.872-8.192 0-14.848-6.144-15.36-13.824l-12.8-205.824c0-31.744 17.408-59.904 43.52-75.264 16.896-10.24 26.112-28.672 24.064-48.128-14.848-129.536-24.576-340.48-24.576-363.52 0-33.28 20.992-60.416 47.104-60.416s47.104 27.136 47.104 60.416c0 23.040-9.728 233.984-24.576 363.52-2.048 19.456 7.168 37.888 24.064 48.128 26.112 15.36 43.52 43.52 43.52 75.264l-13.824 205.312c-0.512 8.192-7.168 14.336-14.848 14.336z" />
<glyph unicode="&#xe90d;" glyph-name="google-plus" d="M507.904 385.024c-19.456 17.92-40.96 33.792-58.88 53.248-23.552 25.6-23.552 51.2-2.048 78.848 9.216 11.264 20.48 20.992 30.72 31.232 20.48 20.48 44.544 38.4 61.44 61.44 58.368 76.8 44.032 194.56-29.696 257.024-3.584 3.072-8.192 5.12-12.288 7.68 18.944 4.608 33.792 4.096 49.152 4.608 7.68 0 17.92-1.024 23.040 3.072 20.992 19.456 40.448 40.96 62.976 64-8.192 1.024-11.776 1.536-15.872 1.536-94.72 0-189.44 1.536-284.16-1.024-36.864-1.024-74.24-6.656-109.056-17.92-97.28-31.232-162.304-116.224-153.6-234.496 6.656-92.16 70.656-165.376 171.008-188.416 24.064-5.632 49.664-7.168 75.264-10.752-20.48-48.128-15.36-91.648 26.624-131.072-11.776 0-18.432 0-24.576 0-56.832-2.56-113.152-8.192-167.424-27.648-63.488-23.552-114.688-60.416-137.728-127.488-4.096-11.776-7.168-24.064-10.24-35.84v-51.712c21.504-84.992 83.968-125.952 160.768-151.040 70.144-23.040 141.824-25.6 214.016-18.944 60.416 5.632 118.272 22.528 168.96 57.856 102.912 71.168 125.44 202.24 47.104 296.96-24.064 29.184-56.32 52.736-85.504 78.848zM315.904 545.792c-78.336 23.040-117.248 81.92-134.144 157.696-3.584 15.36-4.096 31.232-6.144 51.712 3.072 16.384 4.608 36.864 10.24 56.32 28.16 92.16 123.392 117.76 194.56 52.736 44.544-40.448 68.608-92.672 75.264-151.552 3.072-29.184 3.072-59.904-3.584-88.576-14.848-66.048-71.168-97.792-136.192-78.336zM454.144 30.72c-34.304-17.408-84.48-28.16-139.264-28.16-52.736 1.536-106.496 13.824-150.016 53.76-70.144 64.512-69.12 153.088 2.048 216.064 82.944 73.728 232.96 75.776 315.904 4.608 84.992-72.192 70.144-196.096-28.672-246.272zM885.248 798.72v133.632h-67.584v-134.656h-133.632v-67.584h135.168v-133.12h67.584v132.608c3.584 0.512 5.632 1.536 7.168 1.536 42.496 0 84.992 0 127.488 0v67.584h-136.192z" />
<glyph unicode="&#xe90e;" glyph-name="help" d="M849.408 957.44h-674.816c-53.248 0-96.256-43.52-96.256-97.28v-679.424c0-53.248 43.52-97.28 96.256-97.28h193.024l144.384-145.408 144.896 145.408h193.024c53.248 0 96.256 43.52 96.256 97.28v679.424c0 53.76-43.52 97.28-96.768 97.28zM554.496 240.128h-84.992v80.896h84.48v-80.896zM643.072 551.424l-37.888-36.352c-33.792-28.16-50.688-52.736-50.688-113.152h-84.992v20.48c0 44.544 16.896 84.992 50.688 113.152l50.688 52.736c16.896 12.288 25.6 32.256 25.6 56.32 0 44.544-37.888 80.896-84.992 80.896-46.592 0-84.48-36.352-84.48-80.896h-84.48c0 88.576 76.288 161.792 169.472 161.792s169.472-72.704 169.472-161.792c0-36.352-16.896-68.608-38.4-93.184z" />
<glyph unicode="&#xe90f;" glyph-name="heritage" d="M77.312 577.536c35.84 11.264 70.656 26.624 107.008 33.28 80.384 14.336 155.648-3.072 226.304-41.984 4.096-2.048 8.192-4.608 15.36-8.704-3.072 57.856 33.28 87.552 76.8 110.592 29.696 15.36 43.008 36.352 36.352 69.632-2.56 11.776-7.68 26.624 12.288 31.744 2.048 0.512 3.072 13.312 1.024 19.456-12.8 39.424-16.384 77.824 9.216 114.176 2.048 3.072 2.56 7.168 2.56 11.264 2.048 13.824 3.584 27.136 8.704 40.96 11.776-12.8 24.576-23.552 14.848-41.472-1.536-2.56 0-8.192 2.048-10.752 27.136-35.84 23.552-74.752 9.728-113.664-4.096-11.264-6.656-18.944 7.68-23.552 4.096-1.536 6.656-8.192 8.704-13.312 1.536-3.584 0-8.192 0-12.288-2.56-50.176 0-54.272 41.984-74.752 7.168 11.264 12.8 24.064 22.016 32.768 3.584 3.584 18.432 0.512 24.576-4.096 17.92-13.824 7.68-30.72 2.048-48.64 45.568-2.56 48.64-35.84 52.736-68.608 4.096-29.184 27.648-48.128 41.984-71.68 1.024-2.048 8.704-0.512 13.312 0 17.92 1.536 36.352 4.608 54.272 4.608 42.496-0.512 76.8-32.256 77.312-74.24 0.512-80.384-33.28-145.92-94.72-198.144-15.872-13.312-32.768-26.112-49.152-38.4-27.136-20.48-33.28-39.936-20.48-71.168 29.696-71.168 5.12-124.928-55.296-171.52-17.92-13.824-47.616-17.92-71.68-18.432-61.44-1.536-123.904-3.072-184.32 4.096-76.8 9.728-127.488 93.184-103.424 165.888 10.752 32.256 25.088 64.512 44.544 92.672 29.184 43.008 30.208 88.064 18.432 134.144-23.040 84.992-74.24 151.552-153.6 193.024-61.44 31.744-126.976 54.784-198.656 38.912-0.512 2.56-0.512 5.12-0.512 8.192zM736.256 221.696c28.672 17.408 58.368 33.792 84.992 52.736 51.712 36.352 80.896 86.528 80.896 150.016 0 36.352-22.016 53.76-57.344 45.568-39.424-9.216-78.336-20.48-116.736-31.232-3.584-1.024-8.192-5.632-9.216-9.216-27.648-70.656-32.768-140.288 17.408-207.872zM734.208 545.28c20.48 22.016 13.312 47.104 1.024 70.656-3.584 7.68-15.36 11.264-22.528 15.872 7.68-30.72 14.336-58.88 21.504-86.528z" />
<glyph unicode="&#xe910;" glyph-name="home" d="M37.888 356.864h82.944v-348.16c0-20.48 15.872-37.376 35.328-37.376h243.2c19.456 0 35.328 16.896 35.328 37.376v254.976h147.968v-254.976c0-20.48 15.872-37.376 35.84-37.376h231.424c19.456 0 35.84 16.896 35.84 37.376v348.16h100.864c14.336 0 27.136 9.216 32.768 23.040 5.12 13.824 2.56 29.696-7.68 40.448l-464.384 493.056c-13.824 14.336-36.352 14.848-49.664 0.512l-484.352-493.056c-10.752-10.752-13.824-26.624-8.192-40.96s18.432-23.040 32.768-23.040z" />
<glyph unicode="&#xe911;" glyph-name="info-1" d="M718.848 48.64l-13.824-58.368c-41.984-16.896-75.264-29.696-99.84-38.4s-53.76-13.312-86.528-13.312c-50.688 0-90.112 12.288-117.76 37.888-28.16 25.088-41.984 57.344-41.984 96.256 0 14.848 1.024 30.72 3.072 46.080 2.048 15.872 5.632 33.28 10.24 53.248l51.712 188.928c4.608 17.92 8.704 35.328 11.776 51.2 3.072 16.384 4.608 31.232 4.608 44.544 0 24.064-4.608 40.96-14.848 50.688-9.728 9.728-28.16 14.336-55.808 14.336-13.312 0-27.136-2.048-41.472-6.656-14.336-4.096-26.112-8.704-36.352-12.288l13.824 58.368c34.304 14.336 67.072 26.624 98.304 36.352 31.232 10.24 60.928 15.36 88.576 15.36 50.176 0 89.088-12.288 116.224-37.376s40.96-57.344 40.96-96.768c0-8.192-1.024-22.528-3.072-43.52s-5.12-39.936-10.752-56.832l-51.712-187.904c-4.096-15.36-8.192-32.256-11.264-51.712-3.584-19.456-5.12-34.304-5.12-44.032 0-25.088 5.632-41.984 16.384-51.2 11.264-9.216 29.696-13.824 56.832-13.824 12.288 0 27.136 2.048 43.008 6.656s27.648 8.704 34.816 12.288zM732.16 838.656c0-32.768-11.776-60.928-36.352-83.968-24.064-23.040-53.248-34.816-87.552-34.816s-63.488 11.776-88.064 34.816c-24.576 23.040-36.864 51.2-36.864 83.968s12.288 60.928 36.864 83.968c24.576 23.040 53.76 34.816 88.064 34.816s62.976-11.776 87.552-34.816c24.064-23.552 36.352-51.712 36.352-83.968z" />
<glyph unicode="&#xe912;" glyph-name="info-2" d="M495.616 699.392c70.144 0 126.976 57.856 126.976 129.024s-56.32 129.024-126.976 129.024c-70.144 0-126.976-57.856-126.976-129.024s56.832-129.024 126.976-129.024zM623.104 111.104v465.92h-285.184v-172.544h63.488v-293.376h-64.512v-172.544h350.208v172.544h-64z" />
<glyph unicode="&#xe913;" glyph-name="logout" d="M534.016 938.496c-103.424 0-202.24-32.256-285.696-93.184-9.728-7.168-12.288-20.48-6.144-30.208l78.336-128c3.072-5.12 8.704-9.216 14.848-10.24s12.8 0 17.92 3.584c48.64 35.84 106.496 54.784 166.912 54.784 157.184 0 284.672-128.512 284.672-286.72s-127.488-286.72-284.672-286.72c-60.416 0-118.272 18.944-166.912 54.272-5.12 3.584-11.264 5.12-17.92 3.584-6.144-1.024-11.776-5.12-14.848-10.24l-78.336-128c-6.144-10.24-3.584-23.552 6.144-30.208 83.456-60.928 182.272-93.184 285.696-93.184 268.8 0 487.424 220.16 487.424 490.496s-218.624 489.984-487.424 489.984zM312.832 264.192c4.096 7.168 3.584 16.384-1.024 23.552l-53.248 79.872h321.024c44.032 0 79.872 36.352 79.872 80.384 0 44.544-35.84 80.384-79.872 80.384h-321.024l53.248 79.872c4.608 7.168 5.12 15.872 1.024 23.552s-11.776 12.288-19.968 12.288h-153.088c-7.68 0-14.336-3.584-18.944-10.24l-114.688-173.056c-5.12-7.68-5.12-17.408 0-25.088l114.688-173.056c4.096-6.144 11.264-10.24 18.944-10.24h153.088c8.192-0.512 15.872 4.096 19.968 11.776z" />
<glyph unicode="&#xe914;" glyph-name="menu" d="M1024 792.064c0-28.16-22.528-50.688-50.688-50.688h-922.624c-28.16 0-50.688 22.528-50.688 50.688v0c0 28.16 22.528 50.688 50.688 50.688h922.624c28.16 0.512 50.688-22.528 50.688-50.688v0zM724.48 446.976c0-28.16-23.040-51.2-51.2-51.2h-621.056c-28.16 0-51.2 23.040-51.2 51.2v5.12c0 28.16 23.040 51.2 51.2 51.2h621.056c28.16 0 51.2-23.040 51.2-51.2v-5.12zM874.496 111.104c0-26.112-20.992-47.104-47.104-47.104h-780.288c-26.112 0-47.104 20.992-47.104 47.104v0c0 26.112 20.992 47.104 47.104 47.104h780.8c25.6-0.512 46.592-21.504 46.592-47.104v0z" />
<glyph unicode="&#xe915;" glyph-name="my-orders" d="M278.016 884.224c3.072 0-5.12 0.512 0 0v0zM962.048 780.8c0 57.856-44.544 102.4-102.4 102.912-39.936 0.512-73.728 0.512-113.664 0.512 0-27.648 0-46.080 0-72.704 0-25.088-27.136-44.544-51.712-44.544-122.368 0-244.736 0-367.104 0-27.648 0-49.664 6.656-49.664 44.544 0 20.48 0 51.712 0 72.704-39.424 0-72.704 0-112.64-0.512-58.88-0.512-102.912-45.056-102.912-104.448 0-324.096 0-413.184 0-737.28 0-58.368 45.056-103.424 103.424-103.424 230.912 0 461.824 0 692.736 0 59.904 0 104.448 44.032 104.448 103.424 0 325.12 0 414.208-0.512 738.816zM450.048 626.176c3.584 1.024 7.68 1.024 11.776 1.024 119.808 0 239.104 0 358.912 0 4.608 0 9.728 0 14.336-1.024 9.728-2.048 15.36-8.704 14.848-18.432 0-9.728-6.144-15.872-15.872-17.92-3.584-1.024-7.68-0.512-11.776-0.512h-357.376c-4.096 0-8.704 0-12.8 0.512-9.728 1.536-15.36 8.192-16.384 17.92-0.512 9.216 5.12 15.872 14.336 18.432zM452.096 377.856c4.608 1.024 9.728 0.512 14.336 0.512 58.88 0 117.76 0 176.128 0 59.904 0 120.32 0 180.224 0 4.096 0 8.704 0 12.8-1.024 9.216-2.048 14.336-8.192 14.336-17.408 0-9.728-5.12-16.384-14.848-18.432-4.096-1.024-8.704-0.512-12.8-0.512h-357.888c-4.096 0-7.68 0-11.776 0.512-10.24 1.536-16.896 7.68-16.896 18.432 0 9.728 6.144 15.872 16.384 17.92zM280.576 62.464c-26.112 0-48.64 21.504-48.64 47.616 0 27.136 21.504 49.152 48.64 49.152 26.624 0 48.128-21.504 47.616-48.128 0.512-26.624-21.504-48.64-47.616-48.64zM408.064 447.488c-49.152-47.104-86.528-102.912-118.272-162.816-16.384-31.232-29.184-32.256-47.104-2.048-24.064 40.448-51.2 77.824-92.16 102.912-1.536 1.024-2.048 2.56-3.072 3.584 0.512 1.536 1.024 2.56 2.048 4.096 50.688 4.096 83.456-25.6 112.64-62.976 40.96 54.272 82.432 104.96 147.968 127.488 1.024-1.024 2.048-2.048 3.072-3.072-2.048-2.56-3.072-5.632-5.12-7.168zM408.064 695.808c-48.64-47.104-86.016-101.888-117.248-160.768-17.408-32.768-30.72-33.792-49.152-2.56-24.064 39.936-51.2 76.8-91.648 101.376-1.024 0.512-2.048 2.56-4.096 6.144 54.272 6.144 86.528-24.576 116.224-61.952 40.96 54.272 82.944 105.472 148.48 128 1.024-1.024 2.048-2.048 3.072-3.072-2.048-2.048-3.584-5.12-5.632-7.168zM828.416 91.136c-25.6-0.512-51.2 0-77.312 0h-285.696c-1.536 0-2.56 0-4.096 0-16.384 0-25.6 7.68-25.6 19.456 0 12.288 8.704 18.944 26.112 18.944h357.376c3.072 0 6.144 0 9.216 0 13.312-0.512 22.016-8.192 22.016-19.456-0.512-10.24-9.216-18.432-22.016-18.944zM745.984 884.224c4.096 0.512-3.072 0 0 0v0zM313.856 847.872c0-18.432 17.92-36.352 35.84-36.352 100.352 0 224.256 0 324.096 0 17.408 0 35.84 18.944 35.84 36.352 0 34.304 0 31.744 0 72.704 0 17.92-17.408 36.352-35.84 36.352-49.664 0-147.968 0.512-197.632 0.512h-150.016c-17.92 0-12.288-18.432-12.288-36.864 0-34.816 0-37.888 0-72.704z" />
<glyph unicode="&#xe916;" glyph-name="password" d="M836.608 513.536h-14.848v132.608c0 171.52-138.752 311.296-309.76 311.296-170.496 0-309.76-139.264-309.76-311.296 0-15.872 12.8-28.672 28.672-28.672s28.16 12.8 28.16 28.672c0 140.288 113.152 254.464 252.928 254.464 139.264 0 252.928-114.176 252.928-254.464v-132.608h-577.536c-30.208 0-54.784-24.576-54.784-54.784v-354.816c0-91.136 73.728-164.864 164.352-164.864h430.080c90.624 0 164.352 74.24 164.352 164.864v354.304c0 30.72-24.576 55.296-54.784 55.296zM834.56 103.424c0-59.392-48.128-108.032-107.52-108.032h-430.080c-59.392 0-107.52 48.128-107.52 108.032v353.28h645.12v-353.28zM512 115.2c58.88 0 105.984 47.616 105.984 106.496s-47.616 106.496-105.984 106.496c-58.368 0-105.984-48.128-105.984-106.496s47.616-106.496 105.984-106.496zM512 271.36c27.136 0 49.152-22.528 49.152-49.664s-22.016-49.664-49.152-49.664-49.152 22.528-49.152 49.664c0 27.136 22.016 49.664 49.152 49.664z" />
<glyph unicode="&#xe917;" glyph-name="perfumes" d="M158.208 802.304h17.408c9.728 0 17.408 7.68 17.408 17.92 0 9.728-7.68 17.92-17.408 17.92h-17.408c-9.216 0-17.408-8.192-17.408-17.92s7.68-17.92 17.408-17.92zM89.088 802.304h17.408c9.728 0 17.408 7.68 17.408 17.92 0 9.728-7.68 17.92-17.408 17.92h-17.408c-9.728 0-17.408-8.192-17.408-17.92s7.68-17.92 17.408-17.92zM226.816 802.304h17.408c9.728 0 17.408 7.68 17.408 17.92 0 9.728-7.68 17.92-17.408 17.92h-17.408c-9.216 0-17.408-8.192-17.408-17.92 0.512-9.728 8.192-17.92 17.408-17.92zM36.864 802.304c9.728 0 17.408 7.68 17.408 17.92 0 9.728-7.68 17.92-17.408 17.92h-16.896c-9.728 0-17.408-8.192-17.408-17.92s7.68-17.92 17.408-17.92h16.896zM223.744 859.648l16.896-3.584c1.024 0 2.56-0.512 3.584-0.512 8.192 0 14.848 5.632 16.896 13.824 2.048 9.728-4.096 18.944-13.312 20.992l-16.896 4.096c-9.216 2.048-18.432-4.096-20.48-13.312-2.048-9.728 4.096-18.944 13.312-21.504zM156.16 875.008l16.896-3.584c1.024 0 2.56-0.512 3.584-0.512 8.192 0 14.848 5.632 16.896 13.824 2.048 9.728-3.584 18.944-13.312 20.992l-16.384 4.096c-9.216 2.048-18.432-4.096-20.48-13.312-2.048-9.728 3.584-18.944 12.8-21.504zM89.088 890.368l16.896-3.584c1.024 0 2.56-0.512 3.584-0.512 8.192 0 14.848 5.632 16.896 13.824 2.048 9.728-3.584 18.944-13.312 20.992l-16.896 4.096c-9.216 2.048-18.432-4.096-20.48-13.312-2.048-9.728 3.584-18.944 13.312-21.504zM240.64 784.384l-16.896-3.584c-9.216-2.048-14.848-11.776-12.8-20.992 1.536-8.192 8.704-13.824 16.896-13.824 1.024 0 2.56 0 3.584 0.512l16.896 4.096c9.216 2.048 15.36 11.776 13.312 20.992-2.56 8.704-11.776 14.848-20.992 12.8zM105.984 753.664l-16.896-3.584c-9.216-2.048-15.36-11.776-13.312-20.992 2.048-8.192 8.704-13.824 16.896-13.824 1.024 0 2.56 0 3.584 0.512l16.896 3.584c9.216 2.048 15.36 11.776 13.312 20.992s-11.264 15.36-20.48 13.312zM173.056 769.024l-16.896-3.584c-9.216-2.048-15.36-11.776-13.312-20.992 1.536-8.192 8.704-13.824 16.896-13.824 1.536 0 2.56 0 4.096 0.512l16.896 3.584c9.216 2.048 15.36 11.776 13.312 20.992-2.56 9.216-11.776 15.36-20.992 13.312zM934.912 498.688v109.056c0 117.248-93.184 212.48-207.36 212.48h-276.48v53.248c0 9.728-7.68 17.92-17.408 17.92h-102.912c-9.216 0-17.408-7.68-17.408-17.92v-123.904h-17.408c-9.728 0-17.408-8.192-17.408-17.92v-205.312l-253.44-260.096c-3.072-3.584-5.12-8.192-5.12-12.8v-45.056l7.68 6.144c88.064 65.024 231.936 91.648 337.408 34.304v358.4h34.304v-379.392c85.504-58.88 228.352-81.408 317.952-14.848l27.136 22.016v18.432c0 4.608-2.048 9.216-5.12 12.8l-252.928 260.608v204.8c0 9.728-7.68 17.92-17.408 17.92h-17.408v35.328h276.48c95.232 0 172.544-79.36 172.544-177.152v-109.056c-50.176-15.36-86.528-96.256-86.528-200.704 0-116.224 44.544-203.776 103.424-203.776s103.424 87.552 103.424 203.776c0.512 104.448-35.328 185.344-86.016 200.704zM348.16 784.896h17.408c9.216 0 17.408 8.192 17.408 17.92s-7.68 17.92-17.408 17.92h-17.408v35.328h69.12v-106.496h-69.12v35.328zM451.584 643.072h-138.24v71.168h138.24v-71.168zM376.32 200.704c-1.536 0.512-2.56 1.536-4.096 2.048-82.944 61.44-228.352 53.76-324.096-16.896l-28.16-22.016v-58.88c0-74.24 58.88-134.656 131.072-134.656h462.848c72.192 0 131.072 60.416 131.072 134.656v84.992l-6.656-5.12c-104.96-77.824-265.216-52.736-361.984 15.872z" />
<glyph unicode="&#xe918;" glyph-name="search" d="M1008.64 10.752l-244.736 244.736c60.416 74.24 97.28 168.96 97.28 272.384 0 237.056-192.512 429.056-429.056 429.056-237.568 0.512-429.568-191.488-429.568-428.544s192-429.568 429.568-429.568c103.424 0 198.144 36.352 271.872 97.28l244.736-244.736c16.384-16.896 43.52-16.896 59.904 0 16.896 16.384 16.896 43.008 0 59.392zM432.128 184.32c-189.952 0-344.064 154.624-344.064 344.064s154.112 344.064 344.064 344.064c189.44 0 344.064-154.624 344.064-344.064s-154.624-344.064-344.064-344.064z" />
<glyph unicode="&#xe919;" glyph-name="settings" d="M945.664 557.568h-34.304c-9.216 33.28-22.016 65.024-39.424 95.232l24.064 24.064c29.696 29.696 29.696 77.824 0 107.52l-47.616 47.616c-14.336 14.336-33.28 22.016-53.76 22.016s-39.424-7.68-53.76-22.016l-23.552-23.552c-29.696 16.896-61.952 30.208-95.232 39.424v33.792c0 41.984-33.792 75.776-75.776 75.776h-68.096c-41.472 0-75.776-34.304-75.776-75.776v-34.304c-33.28-9.216-65.024-22.016-95.232-39.424l-24.064 24.064c-14.336 14.336-33.28 22.016-53.76 22.016-19.968 0-38.912-7.68-53.76-22.016l-47.616-47.616c-14.336-14.336-22.016-33.28-22.016-53.76 0-19.968 8.192-39.424 22.016-53.76l24.064-24.064c-16.896-30.208-30.72-61.952-39.424-95.232h-33.792c-41.984 0-75.776-34.304-75.776-75.776v-67.584c0-41.984 34.304-75.776 75.776-75.776h33.792c9.216-33.28 22.528-65.024 39.424-95.232l-24.064-24.064c-29.696-29.696-29.696-77.824 0-107.52l47.616-48.128c14.336-14.336 33.28-22.016 53.76-22.016s39.424 7.68 53.76 22.016l24.064 24.064c30.208-16.896 61.952-30.208 95.232-39.424v-33.792c0-41.984 34.304-75.776 76.288-75.776h67.584c41.984 0 76.288 33.792 76.288 75.776v33.792c33.28 9.216 65.024 22.016 95.232 39.424l24.064-24.064c14.336-14.336 33.28-22.016 53.76-22.016 19.968 0 38.912 7.68 53.76 22.016l47.616 48.128c29.696 29.696 29.696 77.824 0 107.52l-24.064 24.064c16.896 30.208 30.72 61.952 39.424 95.232h33.792c41.984 0 75.776 34.304 75.776 75.776v67.584c-0.512 41.984-34.304 75.776-76.288 75.776zM512 236.544c-116.736 0-210.944 94.72-210.944 211.456s94.208 211.456 210.944 211.456 210.944-94.72 210.944-211.456-94.208-211.456-210.944-211.456z" />
<glyph unicode="&#xe91a;" glyph-name="star" d="M1016.832 571.904c-11.776 36.352-43.52 61.44-81.408 64.512l-245.76 17.92-92.672 229.888c-13.824 34.816-47.104 57.856-84.992 57.856s-71.68-23.040-85.504-58.368l-93.184-229.888-245.248-17.92c-37.376-3.072-69.632-28.16-80.896-64.512-11.776-36.352-0.512-75.776 28.16-100.352l187.904-160.256-58.88-241.152c-6.656-28.16-1.024-56.832 16.384-79.36s45.056-36.352 73.216-36.352c16.896 0 33.792 4.608 48.64 14.336l208.896 131.072 208.896-131.072c14.848-9.216 31.744-14.336 48.64-14.336 28.16 0 55.296 13.824 73.216 36.352 17.408 22.528 23.552 51.712 16.384 79.36l-58.88 241.152 187.904 160.256c29.696 25.088 40.96 64.512 29.184 100.864z" />
<glyph unicode="&#xe91b;" glyph-name="username" d="M508.416 408.576h6.656c61.952 1.024 111.616 22.528 148.48 64.512 81.408 91.648 67.584 248.32 66.048 263.68-5.12 112.64-58.368 166.4-102.4 191.488-32.768 18.944-70.656 28.672-113.152 29.696h-3.584c-23.552 0-69.12-3.584-113.152-28.672-44.544-25.088-98.304-78.848-103.424-192-1.536-14.848-14.848-172.032 66.048-263.68 36.352-42.496 86.528-64 148.48-65.024zM349.696 731.136c0 0.512 0 1.536 0 1.536 7.168 151.040 114.176 167.424 160.256 167.424h2.56c56.832-1.536 153.6-24.576 160.256-167.424 0-0.512 0-1.536 0.512-1.536 0-1.536 14.848-144.896-52.224-220.672-26.624-30.208-61.952-44.544-108.544-45.056h-2.048c-46.592 0.512-81.92 15.36-108.544 45.056-66.56 75.264-52.224 219.136-52.224 220.672zM945.152 147.968v0.512c0 1.536 0 3.584 0 5.12-1.536 41.984-4.096 139.264-95.744 170.496-0.512 0-1.536 0.512-2.048 0.512-95.232 24.064-174.080 78.848-175.104 79.872-12.8 9.216-30.72 6.144-39.424-7.168-9.216-12.8-6.144-30.208 7.168-39.424 3.584-2.56 87.552-60.928 192.512-88.064 49.152-17.408 54.784-70.144 55.808-118.272 0-2.048 0-3.584 0-5.12 0.512-18.944-1.024-48.128-4.608-65.024-34.304-19.456-167.936-86.528-371.712-86.528-202.752 0-337.408 67.584-372.224 87.040-3.584 16.896-5.12 46.080-4.608 65.024 0 1.536 0 3.584 0 5.12 1.536 48.128 7.168 100.352 56.32 118.272 104.96 27.136 188.928 85.504 192.512 88.064 12.8 9.216 15.872 26.624 7.168 39.936-9.216 12.8-26.624 15.872-39.424 7.168-1.024-0.512-79.36-55.808-175.104-79.872-1.024 0-1.536-0.512-2.048-0.512-91.648-31.232-94.208-129.024-95.744-170.496 0-2.048 0-3.584 0-5.12v-0.512c0-11.264-0.512-67.584 10.752-95.744 2.048-5.632 6.144-10.24 10.752-13.312 6.144-4.096 158.208-100.864 411.648-100.864 253.952 0 405.504 96.768 411.648 100.864 4.608 3.072 8.704 7.68 10.752 13.312 11.264 27.648 10.752 83.968 10.752 94.72z" />
<glyph unicode="&#xe91c;" glyph-name="wishlist" d="M736.768 881.664c-76.288 0-147.968-28.672-202.24-80.896l-22.016-21.504-23.040 22.016c-53.76 51.712-125.44 80.896-201.728 80.896-75.776 0-147.456-28.672-201.728-80.896-53.76-52.224-83.456-121.344-83.456-195.072s29.696-142.848 83.968-195.072l400.896-387.584c7.168-6.656 15.872-9.728 25.088-9.728s18.432 3.072 25.6 10.24l399.872 386.56c53.76 52.224 83.968 121.344 83.968 195.072s-29.696 142.848-83.456 195.072c-54.272 52.224-125.952 80.896-201.728 80.896z" />
<glyph unicode="&#xe91d;" glyph-name="button" d="M145.92 594.944h732.16c79.36 0 143.36-146.944 143.36-146.944s-64-146.944-143.36-146.944h-732.16c-79.36 0-143.36 146.944-143.36 146.944s64 146.944 143.36 146.944z" />
<glyph unicode="&#xe91e;" glyph-name="camera" d="M512 549.888c-84.48 0-153.088-68.608-153.088-153.088s68.608-153.088 153.088-153.088 152.576 68.608 152.576 153.088c0 84.992-68.096 153.088-152.576 153.088zM919.552 703.488h-122.368c-16.896 0-34.816 13.312-40.448 29.184l-31.232 95.232c-5.632 15.872-23.552 29.184-40.448 29.184h-346.112c-16.896 0-34.816-12.8-40.448-29.184l-31.232-95.232c-5.632-15.872-23.552-29.184-40.448-29.184h-122.368c-56.32 0-101.888-46.080-101.888-101.888v-459.776c0-56.32 45.568-101.888 101.888-101.888h815.104c56.32 0 101.888 46.080 101.888 101.888v459.264c0 56.32-45.568 102.4-101.888 102.4zM512 141.824c-140.8 0-254.464 114.176-254.464 255.488 0 140.8 114.176 255.488 254.464 255.488 140.8 0 254.976-114.176 254.976-255.488s-114.176-255.488-254.976-255.488zM883.712 529.92c-19.456 0-35.328 15.872-35.328 35.84s15.872 35.84 35.328 35.84c19.968 0 35.84-15.872 35.84-35.84s-15.872-35.84-35.84-35.84z" />
<glyph unicode="&#xe91f;" glyph-name="email" d="M897.024 835.584h-770.048c-68.608 0-124.416-55.808-124.416-124.416v-526.336c0-68.608 55.808-124.416 124.416-124.416h769.536c68.608 0 124.416 55.808 124.416 124.416v525.824c0.512 69.12-55.296 124.928-123.904 124.928zM897.024 117.248h-770.048c-37.376 0-67.584 30.72-67.584 67.584v525.824c0 37.376 30.208 67.584 67.584 67.584h769.536c37.376 0 67.584-30.208 67.584-67.584v-525.824c0.512-36.864-29.696-67.584-67.072-67.584zM645.12 454.656l249.344 223.232c11.776 10.752 12.8 28.672 2.048 40.448s-28.672 12.8-40.448 2.048l-343.552-308.224-67.072 59.904c0 0-0.512 0.512-0.512 0.512-1.536 1.536-3.072 2.56-4.608 4.096l-272.896 243.712c-11.776 10.752-29.696 9.728-40.448-2.56-10.752-11.776-9.216-29.696 2.56-40.448l252.416-225.28-251.392-234.496c-11.264-10.752-11.776-28.672-1.024-39.936 5.632-6.144 13.312-9.216 20.992-9.216 7.168 0 13.824 2.56 19.456 7.68l254.976 238.592 69.12-61.952c5.632-4.608 12.288-7.168 18.944-7.168s13.824 2.56 18.944 7.68l71.168 63.488 253.44-240.64c5.632-5.12 12.8-7.68 19.456-7.68 7.68 0 14.848 3.072 20.48 8.704 10.752 11.264 10.24 29.696-1.024 40.448l-250.368 237.056z" />
<glyph unicode="&#xe920;" glyph-name="mobile" d="M689.664 957.44h-355.328c-60.928 0-111.104-49.664-111.104-110.592v-797.184c0-60.928 49.664-110.592 111.104-110.592h354.816c60.928 0 111.104 49.664 111.104 110.592v797.184c0 60.928-49.664 110.592-110.592 110.592zM755.712 49.152c0-36.352-29.696-66.56-66.56-66.56h-354.816c-36.864 0-66.56 29.696-66.56 66.56v110.592h487.936v-110.592zM755.712 204.288h-487.936v576h487.936v-576zM755.712 824.32h-487.936v22.016c0 36.352 29.696 66.56 66.56 66.56h354.816c36.864 0 66.56-29.696 66.56-66.56v-22.016zM512 5.12c36.864 0 66.56 30.208 66.56 66.56 0 36.864-30.208 66.56-66.56 66.56s-66.56-29.696-66.56-66.56c0-36.864 29.696-66.56 66.56-66.56zM512 93.696c12.288 0 22.016-9.728 22.016-22.016s-9.728-22.016-22.016-22.016c-12.288 0-22.016 9.728-22.016 22.016 0 11.776 9.728 22.016 22.016 22.016zM523.264 890.88h-22.016c-12.288 0-22.016-9.728-22.016-22.016s9.728-22.016 22.016-22.016h22.016c12.288 0 22.016 9.728 22.016 22.016s-10.24 22.016-22.016 22.016z" />
<glyph unicode="&#xe921;" glyph-name="filter" d="M1018.368 907.264c-5.12 10.752-15.872 17.92-27.648 17.92h-957.44c-11.776 0-23.040-7.168-28.16-17.92s-3.584-24.064 4.096-33.28l368.128-453.632v-418.304c0-10.752 5.632-20.992 14.848-26.624 5.12-3.072 10.752-4.608 16.384-4.608 4.608 0 9.216 1.024 13.824 3.072l206.848 103.936c10.24 5.12 16.896 16.384 16.896 28.16l0.512 314.368 368.128 453.632c7.168 9.728 8.704 22.528 3.584 33.28z" />
<glyph unicode="&#xe922;" glyph-name="rating" d="M512 934.912l167.936-306.176 341.504-66.048-238.080-254.976 43.52-346.624-314.88 148.48-314.88-148.48 43.008 346.624-237.568 255.488 341.504 66.048 167.936 305.664z" />
<glyph unicode="&#xe923;" glyph-name="rating-outline" d="M826.88-38.912l-314.88 148.48-314.88-148.48 43.008 347.136-237.568 254.464 341.504 66.048 167.936 306.176 167.936-306.176 341.504-66.048-237.568-254.976 43.008-346.624zM512 161.792l257.536-121.344-35.328 283.648 194.56 208.896-279.552 53.76-137.216 249.856-137.216-249.856-279.552-54.272 194.56-208.896-35.328-283.648 257.536 121.856z" />
<glyph unicode="&#xe924;" glyph-name="whatsapp" d="M1021.44 460.8c0-267.776-224.256-484.352-500.224-484.352-87.552 0-169.984 22.016-241.664 60.416l-276.992-86.016 90.112 260.096c-45.568 73.216-71.68 158.72-71.68 250.368 0 267.776 223.744 484.352 500.224 484.352 276.48-0.512 500.224-217.088 500.224-484.864zM521.216 868.352c-231.936 0-420.352-182.784-420.352-407.552 0-89.088 29.696-171.52 79.872-238.592l-52.736-151.040 161.792 50.176c66.56-42.496 145.92-67.584 231.424-67.584 231.936 0 420.864 182.784 420.864 407.552 0 224.256-188.928 407.040-420.864 407.040zM773.632 349.184c-3.072 5.12-11.264 7.68-23.552 13.824s-72.704 34.816-83.456 38.4c-11.264 4.096-19.456 6.144-27.648-6.144-8.192-11.776-31.744-38.912-38.912-46.592-7.168-8.192-14.336-9.216-26.624-3.072s-51.712 18.432-98.816 58.88c-36.352 31.744-60.928 70.144-68.096 82.432-7.168 11.776-0.512 18.432 5.12 24.064 5.632 5.12 12.288 13.824 18.432 20.992s8.192 11.776 12.288 19.968c4.096 8.192 2.048 14.848-1.024 20.992s-27.648 64.512-37.888 88.064c-10.24 23.552-20.48 19.968-27.648 19.968s-15.36 1.024-23.552 1.024-21.504-3.072-32.768-14.848c-11.264-11.776-43.008-40.448-43.008-98.816s44.032-114.688 50.176-122.88c6.144-7.68 84.992-131.584 209.408-179.2s124.416-31.744 146.944-29.696c22.528 2.048 72.192 28.672 82.944 56.32s10.752 51.2 7.68 56.32z" />
<glyph unicode="&#xe925;" glyph-name="instagram" d="M740.352 945.152h-456.704c-155.136 0-281.088-122.88-281.088-274.432v-445.952c0-151.552 125.952-274.432 281.088-274.432h456.704c155.136 0 281.088 123.392 281.088 274.432v445.952c0 151.552-125.952 274.432-281.088 274.432zM931.328 225.28c0-102.4-85.504-186.368-190.976-186.368h-456.704c-104.96 0-190.976 83.456-190.976 186.368v445.44c0 102.4 85.504 186.368 190.976 186.368h456.704c105.472 0 190.976-83.456 190.976-186.368v-445.44zM512 704.512c-144.896 0-262.656-114.688-262.656-256.512 0-141.312 117.76-256 262.656-256s262.656 114.688 262.656 256c0 141.312-117.76 256.512-262.656 256.512zM512 280.064c-94.72 0-172.032 75.264-172.032 167.936s77.312 167.936 172.032 167.936c94.72 0 172.032-75.264 172.032-167.936s-77.312-167.936-172.032-167.936zM785.92 779.264c-17.408 0-34.816-7.168-47.104-18.944s-19.456-28.672-19.456-45.568c0-16.896 7.168-33.792 19.456-46.080 12.288-11.776 29.696-18.944 47.104-18.944s34.304 7.168 46.592 18.944c12.288 12.288 19.456 28.672 19.456 46.080 0 16.896-7.168 33.792-19.456 45.568s-29.696 18.944-46.592 18.944z" />
<glyph unicode="&#xe926;" glyph-name="twitter" d="M1021.44 763.904c-37.376-16.384-77.824-27.648-119.808-32.768 43.008 26.112 76.288 67.072 91.648 115.712-40.448-24.064-84.992-41.472-132.608-50.688-37.888 40.448-92.16 66.048-152.576 66.048-115.2 0-208.896-93.696-208.896-208.896 0-16.384 2.048-32.256 5.632-47.616-173.568 8.704-327.68 92.16-430.592 218.624-17.92-30.72-28.16-66.56-28.16-104.96 0-72.704 36.864-136.704 93.184-174.080-34.304 1.024-66.56 10.752-94.72 26.112v-2.56c0-101.376 72.192-185.856 167.424-204.8-17.408-4.608-35.84-7.168-55.296-7.168-13.312 0-26.624 1.536-39.424 4.096 26.624-82.944 103.936-143.36 195.072-144.896-71.68-57.344-161.792-90.624-260.096-90.624-16.896 0-33.28 1.024-49.664 3.072 92.672-59.392 202.24-94.208 320.512-94.208 384.512 0 594.432 318.464 594.432 594.432l-0.512 27.136c40.96 29.184 76.288 66.048 104.448 108.032z" />
<glyph unicode="&#xe927;" glyph-name="staring" d="M512 957.44c-281.6 0-509.44-227.84-509.44-509.44s227.84-509.44 509.44-509.44c281.6 0 509.44 227.84 509.44 509.44s-227.84 509.44-509.44 509.44zM694.784 168.448l-182.784 85.504-182.784-84.992 25.088 199.168-138.24 146.432 198.144 37.888 97.792 175.104 97.28-175.616 198.656-37.888-138.24-146.432 25.088-199.168z" />
<glyph unicode="&#xe928;" glyph-name="add-more" d="M512 957.44c-281.6 0-509.44-227.84-509.44-509.44s227.84-509.44 509.44-509.44c281.6 0 509.44 227.84 509.44 509.44s-227.84 509.44-509.44 509.44zM725.504 381.44h-146.944v-146.944c0-36.352-30.208-66.048-66.56-66.048s-66.56 29.696-66.56 66.048v146.944h-146.944c-36.352 0-65.536 30.208-65.536 66.56 0 35.84 29.696 66.56 65.536 66.56h146.944v146.944c0 36.352 30.208 65.536 66.56 65.536s66.56-29.696 66.56-65.536v-146.944h146.944c35.84 0 65.536-30.208 65.536-66.56 0.512-36.352-29.184-66.56-65.536-66.56z" />
<glyph unicode="&#xe929;" glyph-name="comments" d="M975.36 932.864h-926.72c-25.088 0-46.080-19.968-46.080-44.544v-716.8c0-24.576 20.48-44.544 46.080-44.544h396.288l207.36-155.136c8.192-6.144 17.92-9.216 27.648-9.216 7.168 0 13.824 1.536 19.968 4.608 15.872 7.68 25.6 23.040 25.6 39.936v119.808h249.344c25.088 0 46.080 19.968 46.080 44.544v716.8c0.512 25.088-19.968 44.544-45.568 44.544zM929.792 216.064h-249.344c-25.088 0-45.568-19.968-45.568-44.544v-74.24l-123.392 92.16c-7.168 15.36-23.040 26.112-41.984 26.112h-7.168c-1.024 0-2.56 0-3.584 0h-364.544v628.736h835.584v-628.224zM281.088 467.456c45.568 0 82.432 34.816 82.432 77.824s-36.864 77.824-82.432 77.824-82.432-35.328-82.432-77.824c0-43.008 36.864-77.824 82.432-77.824zM512 467.456c45.568 0 82.432 34.816 82.432 77.824s-36.864 77.824-82.432 77.824-82.432-35.328-82.432-77.824c0-43.008 36.864-77.824 82.432-77.824zM742.912 467.456c45.568 0 82.432 34.816 82.432 77.824s-36.864 77.824-82.432 77.824-82.432-35.328-82.432-77.824c0-43.008 36.864-77.824 82.432-77.824z" />
<glyph unicode="&#xe92a;" glyph-name="dropbox" d="M510.464 594.432v-439.296l334.336 62.976v225.28c0 8.704 7.68 14.848 15.872 14.336l40.96-6.144c7.168-1.024 12.8-6.656 12.8-14.336v-258.048c0-6.656-4.608-12.288-11.264-13.824l-366.080-78.336c-17.92-3.584-35.84-4.096-53.76 0l-361.984 75.776c-6.656 1.536-11.264 7.168-11.264 13.312l-6.144 262.144c0 7.68 5.632 13.824 13.312 14.336l307.2 26.624c5.12 0.512 9.728 3.584 11.776 8.704l46.592 111.616c6.144 14.848 27.648 10.752 27.648-5.12zM100.352 731.136l-96.256-204.8c-4.608-10.24 3.072-21.504 14.336-19.968l362.496 36.352c5.12 0.512 9.728 3.584 11.776 8.192l116.736 261.12-398.848-72.704c-4.608-1.024-8.192-4.096-10.24-8.192zM508.928 812.032l123.392-269.312c2.048-4.608 6.656-7.68 11.776-8.192l361.472-29.184c10.752-1.024 18.944 10.24 14.336 19.968l-94.208 205.312c-2.048 4.096-6.144 7.168-10.752 8.192l-406.016 73.216z" />
<glyph unicode="&#xe92b;" glyph-name="like" d="M943.616 388.096c19.456 30.208 29.184 63.488 29.184 99.84 0 41.984-15.36 78.336-45.568 109.568s-66.56 46.592-108.032 46.592h-105.472c18.944 40.448 28.672 79.36 28.672 117.76 0 47.616-7.168 85.504-20.992 113.664s-34.304 49.152-61.44 61.952c-26.624 13.312-56.832 19.968-90.624 19.968-20.48 0-38.4-7.68-53.76-22.528-17.408-17.408-29.696-39.424-37.376-66.048-7.68-27.136-13.824-52.736-18.432-77.312s-11.776-41.984-21.504-52.224c-19.456-21.504-40.96-47.616-64-78.336-39.936-54.272-67.584-85.504-81.92-95.232h-164.352c-20.992 0-39.424-7.68-54.272-23.040s-22.528-33.792-22.528-55.296v-391.68c0-21.504 7.68-39.936 22.528-55.296s33.28-23.040 54.272-23.040h173.056c8.704 0 36.352-8.192 82.944-24.576 49.152-17.408 92.672-30.72 130.048-39.936s75.264-13.824 113.664-13.824h77.312c56.32 0 101.888 16.384 136.192 49.152s51.2 77.824 51.2 134.144c24.064 31.232 35.84 67.584 35.84 109.056 0 8.704-0.512 17.92-1.536 26.112 15.36 27.136 23.040 56.832 23.040 88.064-1.024 14.848-2.56 28.672-6.144 42.496zM193.024 107.008c-7.68-7.68-16.384-11.776-27.136-11.776-10.24 0-19.456 4.096-27.136 11.776s-11.264 16.896-11.264 27.648 4.096 19.968 11.264 27.648c7.68 7.68 16.384 11.776 27.136 11.776 10.24 0 19.456-4.096 27.136-11.776s11.264-16.896 11.264-27.648-3.584-19.968-11.264-27.648zM883.2 437.76c-8.704-18.944-19.456-28.672-32.256-28.672 6.144-7.168 10.752-16.384 14.848-29.184 4.096-12.288 6.144-23.552 6.144-33.792 0-28.16-10.752-52.224-31.744-72.704 7.168-12.8 10.752-27.136 10.752-41.984s-3.584-30.208-10.752-45.056c-7.168-14.848-16.384-25.6-28.672-32.256 2.048-12.288 3.072-23.552 3.072-34.304 0-68.096-38.4-102.4-115.2-102.4h-72.704c-52.224 0-120.832 14.848-205.312 44.544-2.048 1.024-7.68 3.072-17.408 6.656s-16.896 6.144-21.504 7.68c-4.608 1.536-11.776 4.096-20.992 7.168s-16.896 5.12-23.040 6.656c-5.632 1.536-12.288 2.56-19.968 4.096-7.168 1.024-13.824 2.048-18.944 2.048h-17.92v390.656h18.944c6.144 0 13.312 2.048 21.504 5.632 7.68 3.584 15.872 9.216 24.064 16.384s15.872 14.336 23.040 21.504c7.168 7.168 15.36 15.872 24.064 27.136 8.704 10.752 15.872 19.456 20.48 26.112 5.12 6.656 11.264 14.848 18.944 25.088s12.288 16.384 13.824 18.432c22.016 27.648 37.376 46.592 46.080 55.808 16.384 17.408 28.16 39.936 35.84 67.072 7.168 27.136 13.312 52.736 18.432 76.8 4.608 24.064 12.288 41.472 23.040 52.224 38.4 0 64-9.728 76.8-28.672s18.944-49.152 18.944-89.088c0-24.064-9.728-56.832-28.672-98.304s-28.672-73.728-28.672-97.792h210.944c19.968 0 37.888-7.68 53.248-23.552 15.872-15.872 23.552-33.792 23.552-54.784 0-13.824-4.096-30.72-12.8-49.152z" />
<glyph unicode="&#xe92c;" glyph-name="heart-outline" d="M512.512-4.096c-15.36 0-30.208 6.144-40.96 16.896l-381.952 381.952c-56.32 55.808-87.040 130.048-87.040 209.408 0 78.848 30.72 153.6 86.528 209.408s130.048 86.528 208.896 86.528c78.848 0 153.6-30.72 209.408-87.040l4.608-4.608 4.096 4.096c56.32 56.32 130.56 87.040 209.408 87.040 79.36 0 153.6-30.72 208.896-87.040 55.808-55.808 86.528-130.048 86.528-208.896s-30.72-153.088-87.040-209.408l-380.928-380.928c-10.24-10.752-25.088-17.408-40.448-17.408zM298.496 851.456c-66.048 0-128-25.6-175.104-72.704-46.592-46.592-72.704-108.544-72.704-174.592s25.6-128 72.704-175.104l380.928-380.928c5.12-5.12 11.264-4.096 14.848-0.512l380.928 380.928c47.104 47.104 72.704 109.056 72.704 175.104s-25.6 128.512-72.704 175.104c-46.592 47.104-108.544 72.704-174.592 72.704s-128.512-25.6-175.104-72.704l-38.4-38.4-38.912 38.912c-46.592 46.592-108.544 72.192-174.592 72.192z" />
<glyph unicode="&#xe92d;" glyph-name="arrow-right" d="M574.976-22.016c-18.432-19.456-49.664-19.456-69.12 0-18.432 18.944-18.432 50.176 0 68.608l349.184 352.256h-804.352c-26.624 0-48.128 21.504-48.128 48.64s21.504 49.152 48.128 49.152h804.352l-348.672 351.744c-18.432 19.456-18.432 50.688 0 69.632 19.456 19.456 50.176 19.456 69.12 0l432.128-435.712c19.456-18.944 19.456-50.176 0-68.608l-432.64-435.712z" />
<glyph unicode="&#xe92e;" glyph-name="description" d="M31.744 758.272h960.512c15.872 0 29.184 17.408 29.184 38.912s-12.8 38.912-29.184 38.912h-960.512c-15.872 0-29.184-17.408-29.184-38.912s12.8-38.912 29.184-38.912zM992.256 370.176h-960.512c-15.872 0-29.184-17.408-29.184-38.912s12.8-38.912 29.184-38.912h960.512c16.384 0 29.184 17.408 29.184 38.912s-12.8 38.912-29.184 38.912zM31.744 525.824h882.176c15.872 0 29.184 17.408 29.184 38.912s-12.8 38.912-29.184 38.912h-882.176c-15.872 0-29.184-17.408-29.184-38.912s12.8-38.912 29.184-38.912zM631.296 137.728h-599.552c-16.384 0-29.184-17.408-29.184-38.912s13.312-38.912 29.184-38.912h599.552c16.384 0 29.184 17.408 29.184 38.912 0.512 21.504-12.8 38.912-29.184 38.912z" />
<glyph unicode="&#xe92f;" glyph-name="share" d="M961.024 633.344l-18.944 14.336c-18.944 14.848-37.888 29.184-56.832 43.52-19.968 14.848-40.448 31.232-59.904 46.592-22.528 17.92-46.080 36.352-69.632 53.76-3.072 2.048-6.656 5.12-9.728 7.68-16.896 13.824-41.472 31.232-68.608 28.16-36.352-3.584-65.024-44.032-65.024-77.824v-89.088c0 0-1.024 0-3.072 0-79.872 0-477.184-22.016-477.184-454.144 0-12.288 8.704-23.040 20.48-25.088 1.536 0 3.072-0.512 4.096-0.512 9.728 0 18.944 6.656 22.528 16.896 3.072 9.216 73.216 224.256 388.096 224.256 15.872 0 34.304-0.512 46.080-1.536v-82.944c0-27.648 18.944-55.296 43.008-70.144 8.704-5.12 19.456-8.192 28.672-8.192 23.040 0 43.008 15.872 57.856 28.16 4.096 3.584 8.192 6.656 11.776 9.216 13.824 9.728 27.648 20.48 41.472 30.208 6.656 5.12 13.312 10.24 20.48 15.36 36.864 27.136 73.728 56.32 109.568 83.968l10.24 7.68c4.608 3.584 9.216 7.168 13.824 10.752 4.096 3.072 7.68 6.144 11.264 8.192 27.136 19.456 61.44 43.52 61.44 90.112-1.536 46.080-29.696 67.072-61.952 90.624zM933.888 496.128c-3.584-3.072-7.68-5.632-11.264-8.704-5.12-3.584-9.728-7.168-14.848-11.264l-10.24-8.192c-35.328-27.648-72.192-56.32-108.544-83.456-6.656-5.12-13.824-10.24-20.48-15.872-12.8-9.728-26.112-19.968-39.424-29.184-5.12-3.584-10.24-7.68-14.848-11.776-8.704-7.168-20.992-17.408-28.16-17.408-1.024 0-5.12 0-7.168 1.024-9.728 5.632-19.456 16.896-19.456 26.112v106.496c0 13.312-6.144 24.064-18.432 25.088-25.6 2.56-48.64 3.584-72.704 3.584-207.872 0-320-87.552-378.88-160.768 21.504 106.496 78.848 185.856 170.496 236.544 98.304 54.784 208.896 60.416 251.904 60.416 12.288 0 19.968 2.048 20.48 2.048s1.024 2.56 1.536 2.56h7.68c12.8 0 17.408 6.656 17.408 20.48v116.224c0 11.776 13.312 26.112 22.528 27.136 9.216 0.512 23.040-9.216 34.304-18.432 4.096-3.072 8.704-6.144 12.288-9.216 23.040-16.896 46.592-34.816 68.608-52.736 19.968-15.872 40.448-31.744 60.928-47.104 18.944-14.336 37.888-28.672 56.32-43.008l19.456-14.848c34.304-25.088 40.448-32.256 40.448-47.616 0.512-16.384-11.776-27.648-39.936-48.128zM823.296 266.24c-12.8 0-23.552-11.264-23.552-25.6v-64c0-36.864-17.408-57.856-50.688-57.856h-631.808c-34.816 0-68.096 22.528-68.096 57.856v420.864c0 34.816 37.376 64.512 71.68 64.512h213.504c12.8 0 37.888 15.36 37.888 29.184s-24.576 18.432-37.888 18.432h-213.504c-59.904-0.512-118.272-49.152-118.272-112.128v-420.864c0-62.464 54.784-108.544 114.688-108.544h632.32c58.88 0 97.28 44.032 97.28 108.544v64.512c0 13.824-10.24 25.088-23.552 25.088z" />
<glyph unicode="&#xe930;" glyph-name="close" d="M29.184 872.448c-18.432 18.944-18.432 50.688 0 70.656 19.456 18.944 49.664 18.944 69.12 0l413.696-424.96 414.208 424.96c18.432 18.944 49.664 18.944 68.096 0 19.456-19.968 19.456-51.712 0-70.656l-413.696-423.936 413.696-424.96c19.456-18.944 19.456-50.688 0-70.656-18.432-18.944-49.664-18.944-68.096 0l-414.208 424.96-413.696-424.96c-18.944-18.944-49.664-18.944-69.12 0-18.432 19.968-18.432 51.712 0 70.656l413.696 424.96-413.696 423.936z" />
<glyph unicode="&#xe931;" glyph-name="arrow-thin-left" d="M314.368 448l456.192 460.288c11.264 11.264 11.264 29.184 0 40.96s-29.184 11.264-40.448 0l-476.672-480.768c-11.264-11.264-11.264-29.696 0-40.96l476.672-480.256c5.12-5.632 12.8-8.192 19.968-8.192s14.848 2.56 19.968 8.192c11.264 11.264 11.264 29.696 0 40.96l-455.68 459.776z" />
<glyph unicode="&#xe932;" glyph-name="arrow-thin-right" d="M709.632 448l-456.192-460.288c-11.264-11.264-11.264-29.184 0-40.96s29.184-11.264 40.448 0l476.672 480.768c11.264 11.264 11.264 29.696 0 40.96l-476.672 480.768c-5.12 5.632-12.8 8.192-19.968 8.192s-14.848-2.56-19.968-8.192c-11.264-11.264-11.264-29.696 0-40.96l455.68-460.288z" />
<glyph unicode="&#xe933;" glyph-name="register" d="M550.912 401.92c1.024 1.024 2.048 1.536 3.072 2.56-4.096 2.048-5.632 3.072-5.632 3.072l-1.024 82.944c0 0 32.768 24.576 42.496 103.424 20.48-5.632 27.136 24.064 28.16 43.008 1.024 18.432 11.776 75.776-12.8 70.656 5.12 38.4 9.216 73.216 7.168 91.648-5.632 65.024-50.176 132.096-161.792 137.216-95.232-5.12-156.672-72.192-162.816-136.704-2.048-18.432 2.048-53.248 7.168-91.648-25.088 5.12-14.336-52.224-12.8-71.168 1.024-18.944 7.68-49.152 28.16-43.008 10.24-78.336 42.496-103.424 42.496-103.424l-1.024-83.456c0 0-20.48-12.8-107.008-49.152-87.040-36.352-59.392-7.68-130.048-43.008-112.128-55.808-112.128-209.92-112.128-209.92v0c0-23.552 18.944-42.496 41.984-42.496h470.016c-67.584 105.472-55.808 247.296 36.352 339.456zM948.224 386.56c-96.768 96.768-252.928 97.28-350.72 2.048-1.024-1.024-1.536-1.536-2.56-2.048-84.48-84.48-95.744-214.528-33.28-311.296 9.728-14.848 20.48-29.184 33.28-41.984 97.792-97.28 256-97.28 353.28 0 97.792 97.28 97.792 255.488 0 353.28zM909.312 184.32h-112.128v-112.128c0-14.336-11.264-25.6-25.6-25.6-7.168 0-13.312 2.56-17.92 7.68-4.608 4.608-7.68 10.752-7.68 17.92v112.128h-112.128c-7.168 0-13.312 2.56-17.92 7.68-4.608 4.608-7.68 11.264-7.68 17.92 0 14.336 11.264 25.6 25.6 25.6h112.128v112.64c0 14.336 11.264 25.6 25.6 25.6s25.6-11.264 25.6-25.6v-112.64h112.128c14.336 0 25.6-11.264 25.6-25.6s-11.264-25.6-25.6-25.6z" />
<glyph unicode="&#xe934;" glyph-name="brands" d="M723.968 681.472c11.264-23.552 10.24-48.64 10.24-73.216 0-192.512 0-385.024 0-577.536 0-55.296-36.864-92.16-93.184-92.16-134.656-0.512-269.312-0.512-403.968 0-55.296 0-92.672 37.888-92.672 92.16 0 198.656 0 397.824 0 596.48 0 38.4 13.312 70.656 41.984 97.28 60.416 57.344 120.832 114.688 181.248 172.032 40.448 38.4 91.648 41.472 135.68 7.168 5.632-4.608 9.728-2.56 14.848-0.512 51.712 23.552 104.96 40.96 161.28 49.152 40.448 5.632 80.896 7.68 120.832-3.072 9.728-2.56 19.456-6.144 28.672-10.752 43.52-22.016 60.928-65.024 45.056-111.104-8.704-24.576-23.552-45.056-40.96-64-26.112-27.648-56.32-50.176-89.088-70.144-6.144-3.072-12.288-7.168-19.968-11.776zM640 772.096c-39.936-18.944-81.92-33.792-125.952-43.52-10.752-2.56-17.92-1.536-26.112 6.656-23.552 23.040-59.904 26.112-88.576 9.728s-43.008-49.664-35.328-81.408c7.68-31.232 36.352-54.784 69.632-56.32 32.768-1.536 62.976 18.432 73.728 48.64 3.072 9.216 4.096 18.944 6.144 27.136 31.232 8.704 62.976 16.384 93.184 27.136 59.904 20.992 116.224 49.664 161.792 94.208 12.8 12.288 23.040 27.648 32.256 43.008 7.68 13.824 4.096 22.528-11.264 27.136s-31.744 8.192-47.616 8.192c-59.904 0.512-116.224-14.848-171.008-37.376-1.024-0.512-1.536-1.536-1.024-1.536 23.040-23.552 46.592-47.616 70.144-71.68z" />
<glyph unicode="&#xe935;" glyph-name="listing" d="M350.72 360.96c100.864 1.024 201.216 0.512 302.080 0.512 102.4 0 204.8 0 307.2 0 37.376 0 60.416 23.040 60.928 61.44 0 19.456 0 39.424-0.512 58.88 0 15.36-6.656 27.648-17.408 38.4-13.824 13.824-31.232 15.872-49.152 15.872-200.192 0-400.384 0-601.088 0-6.656 0-13.824-0.512-20.48-1.536-26.624-4.096-45.568-26.112-46.592-53.76-0.512-17.408 1.024-34.816-0.512-51.712-2.56-44.544 28.672-68.608 65.536-68.096zM1012.736 98.816c-12.8 20.992-32.256 28.16-55.808 28.16-100.864 0-201.216 0-301.568 0-53.248 0-107.008 0-160.256 0-48.64 0-96.768 0.512-145.408 0-40.96 0-62.976-22.528-63.488-64.512 0-18.944-0.512-37.376 0.512-56.32 1.024-25.088 19.968-47.104 44.032-51.712 7.168-1.536 14.336-2.048 21.504-2.048 200.704 0 401.408 0 602.112 0 6.656 0 13.824 0.512 20.48 1.536 16.896 2.56 29.184 11.776 38.4 26.112 11.264 19.456 11.264 99.328-0.512 118.784zM350.208 770.048c170.496 0 340.48 0 510.976 0 33.792 0 68.096-0.512 101.888 0 33.28 0.512 56.832 24.064 57.344 57.856 0.512 20.992 0.512 41.984-0.512 62.976-1.024 24.064-17.408 45.056-39.936 50.688-8.704 2.048-17.92 2.048-27.136 2.048-99.84 0-199.68 0-299.008 0-63.488 0-126.976 0-190.464 0-41.472 0-83.456 0.512-124.928-0.512-30.72-0.512-52.224-24.576-52.736-56.32-0.512-17.408 0-34.816 0-51.712 0.512-43.008 22.528-65.024 64.512-65.024zM122.368 534.016c-24.064 2.048-48.64 2.048-73.216-0.512-26.112-2.56-45.056-25.088-46.080-52.224-0.512-11.264 0-22.528 0-33.792 0 0 0 0 0 0 0-9.728-0.512-19.456 0-29.184 1.024-32.768 23.040-56.32 54.784-57.344 19.456-1.024 38.912-1.024 58.368 0 31.232 1.024 53.76 24.576 54.784 56.32 0.512 20.48 0.512 40.96 0 61.44-1.024 29.696-20.48 52.736-48.64 55.296zM116.736 126.464c-19.968 1.024-39.936 1.024-59.904 0-32.256-2.048-53.248-25.088-54.272-57.856-0.512-9.216 0-18.432 0-28.16s-0.512-19.456 0-29.696c1.024-33.28 21.504-55.808 54.272-57.856 19.968-1.024 39.936-1.024 59.904 0 32.768 2.048 54.272 25.6 54.784 59.392 0.512 17.92 0.512 36.352 0 54.272-0.512 33.792-22.016 57.856-54.784 59.904zM58.368 770.048c18.944-0.512 37.888-0.512 56.832 0 30.72 0.512 54.272 24.064 55.808 55.296 1.024 20.992 1.024 41.984 0 62.976-1.024 30.72-23.040 53.248-52.736 55.296-10.24 0.512-20.992 0-31.232 0s-20.992 0.512-31.232 0c-30.208-2.048-51.712-24.064-52.736-54.784-0.512-20.48-0.512-40.96 0-61.44 1.024-32.768 23.552-56.32 55.296-57.344z" />
<glyph unicode="&#xe936;" glyph-name="tick" d="M957.952 792.576l-559.616-616.448-336.896 264.192c-15.872 12.288-38.4 9.728-51.2-5.632-12.288-15.36-10.24-37.888 5.632-50.176l364.032-285.184c6.656-5.12 14.848-7.68 22.528-7.68 10.24 0 19.968 4.096 27.136 11.776l582.656 642.048c13.312 14.848 11.776 37.376-3.072 50.176s-37.888 11.776-51.2-3.072z" />
<glyph unicode="&#xe937;" glyph-name="brands-outline" d="M296.448-32.768v645.632c1.536 6.656 6.144 10.752 11.776 13.312l113.152 77.824c-1.536 13.824-2.048 27.648-2.048 42.496 0.512 117.76 44.544 212.48 98.816 210.944 54.272-1.024 97.792-97.792 97.792-215.552 0-16.384-1.024-31.744-2.56-47.104l105.984-78.336c5.12-5.632 7.68-10.752 7.68-15.872v-647.168c0-5.12-5.12-5.632-9.216-9.216s-7.68-5.12-13.312-5.12h-379.392c-10.24 0-28.672 17.92-28.672 28.16zM577.536 721.408c0.512 7.168 0.512 14.336 0.512 21.504 0.512 95.744-26.624 174.592-59.904 175.104-33.792 1.024-60.928-76.288-60.928-172.544 0-5.632 0-11.264 0.512-16.896l46.592 31.744c5.632 5.12 14.848 3.584 21.504-0.512l51.712-38.4zM684.032-18.432v602.624l-77.824 68.096c-6.144-28.672-15.36-53.76-26.624-73.728 3.584-8.704 5.12-17.92 5.12-27.648 0-18.432-8.192-36.352-21.504-49.664-13.312-12.8-32.256-19.968-50.688-19.456-39.936 1.024-72.192 33.28-71.68 72.704 1.536 37.888 35.328 70.144 72.192 69.12 15.872-0.512 30.72-5.632 42.496-14.336 7.68 17.92 13.824 40.96 17.408 67.584l-59.392 44.032-173.568-122.368v-616.96h344.064zM527.872 572.928c3.072 1.024 5.632 3.072 7.68 5.632-6.144 5.632-13.824 8.704-22.016 8.704-26.624-1.024-35.84-22.016-34.816-33.28 0-18.432 15.872-34.816 34.304-35.328 14.336-0.512 26.624 8.192 32.256 20.48-22.528-9.216-39.424 24.064-17.408 33.792z" />
<glyph unicode="&#xe938;" glyph-name="vendor" d="M726.528 408.064h-138.24c-37.888 0-68.608-31.232-68.608-69.12v-107.008c0-37.888 30.72-69.12 68.608-69.12h138.24c37.888 0 68.608 31.232 68.608 69.12v107.008c0 38.4-30.72 69.12-68.608 69.12zM744.96 232.448c0-10.24-8.704-18.944-18.944-18.944h-138.24c-10.24 0-18.432 8.704-18.432 18.944v107.008c0 10.24 8.704 18.944 18.432 18.944h138.24c10.24 0 18.944-8.704 18.944-18.944v-107.008zM1021.44 602.112c0 4.608-1.024 8.704-3.584 12.288l-151.552 267.776c-4.608 7.68-12.8 12.8-21.504 12.8h-666.112c-8.704 0-17.408-4.608-21.504-12.8l-151.040-267.776c-2.048-3.584-3.584-8.192-3.584-12.288 0-59.904 35.84-111.616 87.552-134.144v-441.856c0-13.824 11.264-25.088 25.088-25.088h793.6c13.824 0 25.088 11.264 25.088 25.088v438.784c0 1.024 0 2.048 0 2.56 51.2 22.528 87.552 74.24 87.552 134.656zM193.536 844.8h636.928l118.272-209.408h-873.472l118.272 209.408zM727.552 585.216c-7.68-45.056-47.104-79.36-94.72-79.36-47.104 0-86.528 34.304-94.72 79.36h189.44zM485.376 585.216c-7.68-45.056-47.104-79.36-94.72-79.36-47.104 0-86.528 34.304-94.72 79.36h189.44zM54.272 585.216h189.44c-8.192-45.056-47.616-79.36-95.232-79.36-47.104-0.512-86.528 34.304-94.208 79.36zM422.4 51.2h-143.872v270.848c0 19.968 15.872 35.84 35.84 35.84h72.704c19.456 0 35.328-15.872 35.328-35.84v-270.848zM883.712 51.2h-411.648v270.848c0 47.104-38.4 86.016-85.504 86.016h-72.704c-47.104 0-85.504-38.4-85.504-86.016v-271.36h-88.576v404.48c3.072 0 5.632 0 8.704 0 50.176 0 94.72 25.6 121.344 65.024 26.112-38.912 70.656-65.024 121.344-65.024s94.72 25.6 121.344 65.024c26.112-38.912 70.656-65.024 120.832-65.024s94.72 25.6 120.832 65.024c26.112-38.912 70.656-65.024 121.344-65.024 3.072 0 5.632 0 8.704 0v-403.968zM875.52 505.344c-47.104 0-86.528 34.304-94.72 79.36h189.44c-8.192-44.544-47.616-79.36-94.72-79.36z" />
<glyph unicode="&#xe939;" glyph-name="listing-outline" d="M112.128 887.296c-60.416 0-109.568-48.128-109.568-107.52s49.152-107.52 109.568-107.52c60.416 0 109.568 48.128 109.568 107.52s-49.152 107.52-109.568 107.52zM112.128 722.432c-32.256 0-58.88 26.112-58.88 57.344 0 31.744 26.624 57.344 58.88 57.344s58.88-26.112 58.88-57.344c0-31.232-26.624-57.344-58.88-57.344zM112.128 555.52c-60.416 0-109.568-48.128-109.568-107.52s49.152-107.52 109.568-107.52c60.416 0 109.568 48.128 109.568 107.52s-49.152 107.52-109.568 107.52zM112.128 390.656c-32.256 0-58.88 25.6-58.88 57.344s26.624 57.344 58.88 57.344c32.256 0 58.88-25.6 58.88-57.344s-26.624-57.344-58.88-57.344zM112.128 223.232c-60.416 0-109.568-48.128-109.568-107.52s49.152-107.52 109.568-107.52c60.416 0 109.568 48.128 109.568 107.52s-49.152 107.52-109.568 107.52zM112.128 58.368c-32.256 0-58.88 26.112-58.88 57.344 0 31.744 26.624 57.344 58.88 57.344s58.88-26.112 58.88-57.344c0-31.232-26.624-57.344-58.88-57.344zM368.128 747.52h627.712c14.336 0 25.6 13.312 25.6 30.208 0 16.384-11.264 30.208-25.6 30.208h-627.712c-14.336 0-25.6-13.312-25.6-30.208s11.264-30.208 25.6-30.208zM995.84 487.936h-627.712c-14.336 0-25.6-13.312-25.6-30.208 0-16.384 11.264-30.208 25.6-30.208h627.712c14.336 0 25.6 13.312 25.6 30.208s-11.264 30.208-25.6 30.208zM995.84 147.968h-627.712c-14.336 0-25.6-13.312-25.6-29.696s11.264-29.696 25.6-29.696h627.712c14.336 0 25.6 13.312 25.6 29.696s-11.264 29.696-25.6 29.696z" />
<glyph unicode="&#xe93a;" glyph-name="arrow-round-left" d="M512-61.44c281.088 0 509.44 227.84 509.44 509.44s-228.352 509.44-509.44 509.44c-281.6 0-509.44-227.84-509.44-509.44s227.84-509.44 509.44-509.44zM493.056 692.736h211.968l-249.856-247.296 249.856-247.296h-211.968l-249.856 247.296 249.856 247.296z" />
<glyph unicode="&#xe93b;" glyph-name="arrow-round-right" d="M512 957.44c-281.088 0-509.44-227.84-509.44-509.44s228.352-509.44 509.44-509.44c281.088 0 509.44 227.84 509.44 509.44s-227.84 509.44-509.44 509.44zM530.944 203.264h-211.968l249.856 247.296-249.856 246.784h211.968l249.856-247.296-249.856-246.784z" />
<glyph unicode="&#xe93c;" glyph-name="edit-round" d="M512 957.44c-281.088 0-509.44-227.84-509.44-509.44s228.352-509.44 509.44-509.44c281.088 0 509.44 227.84 509.44 509.44s-227.84 509.44-509.44 509.44zM654.336 456.192c-66.048-65.024-132.096-130.048-197.632-195.584-8.192-8.192-17.408-13.824-28.672-16.896-45.056-12.8-90.112-26.112-134.656-39.424-10.24-3.072-17.92-0.512-23.040 7.168-3.584 5.12-3.584 10.752-2.048 16.384 14.336 49.152 28.672 98.304 43.52 147.456 1.024 3.072 3.072 6.656 5.632 9.216 48.64 48.128 97.28 96.256 146.432 144.896 19.968 19.968 40.448 39.936 60.416 59.392 1.024 1.024 2.56 2.048 3.072 3.072 8.192-8.192 16.384-16.384 25.6-25.6-1.536-1.024-3.584-2.048-5.12-3.584-66.048-65.536-132.096-131.584-197.632-197.12-2.56-2.56-4.608-6.144-5.632-9.216-7.68-26.112-15.36-52.736-23.552-78.848-1.024-3.072-1.024-5.12 1.536-7.168 4.096-3.584 8.192-7.68 11.776-11.776 2.56-2.56 4.608-2.56 7.68-1.536 25.088 7.68 50.176 14.848 75.264 22.016 3.072 1.024 6.656 3.072 8.704 5.12 67.072 66.56 134.144 133.632 201.216 200.192 1.536 1.536 2.048 3.072 3.072 4.608 9.728-10.24 18.944-18.944 29.184-29.184-1.536-1.024-3.584-2.048-5.12-3.584zM573.44 545.28c11.264-11.264 22.528-22.528 33.792-33.28-69.632-69.12-139.264-138.752-208.896-208.384-1.024 7.68-2.56 15.36-3.584 22.528-0.512 3.072-1.536 4.608-4.608 5.12-8.704 1.536-16.896 4.096-25.088 5.632 69.632 69.632 139.264 139.264 208.384 208.384zM679.424 482.816c-44.032 44.032-87.552 87.552-131.584 131.072 9.216 8.704 18.944 17.92 28.672 26.624 44.032-44.032 87.552-87.552 131.584-131.584-9.728-8.192-19.456-17.408-28.672-26.112zM742.4 551.424c-5.632-6.144-11.776-11.776-17.408-16.896-41.984 41.472-83.968 83.456-126.464 125.952 8.704 7.68 16.896 17.408 27.136 24.064 17.408 11.776 39.424 8.704 55.296-6.656 20.48-20.48 41.472-40.96 61.44-61.44 18.944-19.968 18.944-45.568 0-65.024z" />
<glyph unicode="&#xe93d;" d="M512 957.44c-281.088 0-509.44-227.84-509.44-509.44s228.352-509.44 509.44-509.44 509.44 227.84 509.44 509.44c0 281.6-227.84 509.44-509.44 509.44zM742.4 217.6c-9.728-9.728-23.040-14.848-35.84-14.848s-26.112 5.12-35.84 14.848l-158.72 158.208-158.208-158.208c-9.728-9.728-23.040-14.848-36.352-14.848-12.8 0-26.112 5.12-35.84 14.848-19.968 19.968-19.968 52.224 0 72.192l158.208 158.208-157.696 158.208c-19.968 19.968-19.968 52.224 0 72.192s52.224 19.968 72.192 0l157.696-158.208 158.208 158.208c19.968 19.968 52.224 19.968 72.192 0s19.968-52.224 0-72.192l-158.208-158.208 158.208-158.208c19.968-19.968 19.456-52.224 0-72.192z" />
<glyph unicode="&#xe93e;" d="M584.192 448l158.208 158.208c19.968 19.968 19.968 52.224 0 72.192s-52.224 19.968-72.192 0l-158.208-158.208-158.208 158.208c-19.968 19.968-52.224 19.968-72.192 0s-19.968-52.224 0-72.192l158.208-158.208-158.208-158.208c-19.968-19.968-19.968-52.224 0-72.192 9.728-9.728 23.040-14.848 35.84-14.848 13.312 0 26.112 5.12 36.352 14.848l158.208 158.208 158.208-158.208c10.24-9.728 23.040-14.848 35.84-14.848 13.312 0 26.112 5.12 35.84 14.848 19.968 19.968 19.968 52.224 0 72.192l-157.696 158.208z" />
<glyph unicode="&#xe93f;" glyph-name="delete" d="M976.896 781.824c-4.096 4.096-9.216 6.144-15.36 6.144h-206.336l-47.104 110.592c-6.656 16.384-18.944 30.208-36.352 41.984s-34.816 17.408-52.736 17.408h-214.016c-17.92 0-35.328-5.632-52.736-17.408s-29.184-25.6-36.352-41.984l-46.592-110.592h-206.848c-6.144 0-11.264-2.048-15.36-6.144s-6.144-9.216-6.144-15.36v-42.496c0-6.144 2.048-11.264 6.144-15.36s9.216-6.144 15.36-6.144h64v-631.296c0-36.352 10.24-68.096 31.232-93.696s46.080-38.912 75.776-38.912h556.544c29.696 0 54.784 13.312 75.776 39.936s31.744 58.368 31.744 95.232v628.736h64c6.144 0 11.264 2.048 15.36 6.144s6.144 9.216 6.144 15.36v42.496c0 6.144-2.048 11.264-6.144 15.36zM394.752 865.28c3.072 4.096 6.656 6.656 11.264 7.168h211.968c4.608-1.024 8.192-3.584 11.264-7.168l32.256-77.824h-299.52l32.768 77.824zM811.52 73.728c0-9.728-1.536-18.944-4.608-27.136s-6.144-14.336-9.728-17.92c-3.584-3.584-5.632-5.632-7.168-5.632h-556.032c-1.536 0-3.584 2.048-7.168 5.632-3.584 4.096-6.656 9.728-9.728 17.92s-4.608 16.896-4.608 27.136v628.736h599.040v-628.736zM319.488 151.040h43.008c6.144 0 11.264 2.048 15.36 6.144s6.144 9.216 6.144 15.36v381.44c0 6.144-2.048 11.264-6.144 15.36s-9.216 6.144-15.36 6.144h-43.008c-6.144 0-11.264-2.048-15.36-6.144s-6.144-9.216-6.144-15.36v-381.952c0-6.144 2.048-11.264 6.144-15.36s9.216-5.632 15.36-5.632zM490.496 151.040h43.008c6.144 0 11.264 2.048 15.36 6.144s6.144 9.216 6.144 15.36v381.44c0 6.144-2.048 11.264-6.144 15.36s-9.216 6.144-15.36 6.144h-43.008c-6.144 0-11.264-2.048-15.36-6.144s-6.144-9.216-6.144-15.36v-381.952c0-6.144 2.048-11.264 6.144-15.36s9.216-5.632 15.36-5.632zM662.016 151.040h42.496c6.144 0 11.264 2.048 15.36 6.144s6.144 9.216 6.144 15.36v381.44c0 6.144-2.048 11.264-6.144 15.36s-9.216 6.144-15.36 6.144h-42.496c-6.144 0-11.264-2.048-15.36-6.144s-6.144-9.216-6.144-15.36v-381.952c0-6.144 2.048-11.264 6.144-15.36s8.704-5.632 15.36-5.632z" />
<glyph unicode="&#xe940;" glyph-name="select" d="M512 957.44c-281.6 0-509.44-227.84-509.44-509.44s227.84-509.44 509.44-509.44c281.088 0 509.44 227.84 509.44 509.44s-228.352 509.44-509.44 509.44zM770.56 601.6l-285.184-314.368c-3.584-4.096-8.192-5.632-13.312-5.632-4.096 0-7.68 1.024-11.264 3.584l-178.176 139.776c-7.68 6.144-9.216 16.896-2.56 24.576 6.144 7.68 17.408 8.704 25.088 2.56l164.864-129.536 273.408 301.568c6.656 7.168 17.92 7.68 25.088 1.536 7.68-6.144 8.704-16.896 2.048-24.064z" />
<glyph unicode="&#xe941;" glyph-name="edit" d="M752.128 525.824c-139.264-139.264-278.528-278.528-417.792-417.28-5.12-5.12-11.776-9.216-18.432-11.264-52.224-15.872-104.448-30.72-156.672-46.080-6.656-2.048-11.264-1.536-15.872 3.584-7.68 8.704-15.872 16.384-24.064 24.064-5.12 4.608-5.12 9.216-3.584 14.848 16.384 54.784 32.256 109.568 48.64 164.352 2.048 7.168 6.656 14.336 11.776 19.456 136.192 137.216 273.408 274.432 410.624 411.136 3.072 3.072 7.68 5.632 10.24 7.68-18.944 18.944-35.84 35.84-52.736 53.248-2.048-2.048-4.608-4.096-6.656-6.144-41.984-41.472-83.456-82.944-125.44-124.416-101.888-100.352-203.264-200.704-305.152-301.568-5.12-5.12-9.728-12.288-11.776-19.456-30.208-102.4-60.416-204.8-90.112-307.712-3.584-11.264-3.072-23.040 4.096-33.792 10.752-15.872 26.624-21.504 47.616-15.36 93.696 27.136 186.88 55.296 280.576 81.92 23.552 6.656 42.496 17.92 60.416 35.328 136.704 136.704 273.92 272.384 411.136 408.064 3.584 3.072 7.68 5.632 10.24 7.68-20.992 20.992-39.424 39.424-60.416 60.416-2.048-2.048-4.096-6.144-6.656-8.704zM259.072 206.336c6.144-1.024 8.704-4.096 9.728-10.24 2.048-15.872 5.12-31.744 7.68-47.616 145.408 145.92 289.792 290.816 434.176 435.2-22.528 22.528-46.592 46.080-69.632 69.12-144.896-144.896-289.28-289.792-434.176-435.2 16.896-3.584 34.304-8.192 52.224-11.264zM992.256 799.744c-42.496 43.52-84.992 86.016-128.512 128.512-33.28 32.256-78.336 38.912-115.2 14.336-20.992-13.824-37.888-33.792-55.808-50.176 88.576-88.576 175.616-175.616 262.656-262.656 11.264 11.264 24.064 23.040 35.84 35.328 39.424 39.936 40.448 94.208 1.024 134.656zM586.752 795.648c91.648-91.648 182.272-182.272 273.408-273.408 19.968 18.432 39.936 37.376 59.392 55.808-91.136 91.136-182.272 182.272-273.92 273.92-18.944-18.944-39.424-37.888-58.88-56.32z" />
<glyph unicode="&#xe942;" glyph-name="remove-item" d="M512 957.44c-281.6 0-509.44-227.84-509.44-509.44s227.84-509.44 509.44-509.44c281.6 0 509.44 227.84 509.44 509.44s-227.84 509.44-509.44 509.44zM725.504 381.44h-427.008c-36.352 0-65.536 30.208-65.536 66.56 0 35.84 29.696 66.56 65.536 66.56h427.008c35.84 0 65.536-30.208 65.536-66.56 0.512-36.352-29.184-66.56-65.536-66.56z" />
<glyph unicode="&#xe943;" glyph-name="price" d="M34.304 164.352h381.952c17.408 0 31.744 10.752 31.744 23.552v47.104c0 13.312-14.336 23.552-31.744 23.552h-381.952c-17.408 0-31.744-10.752-31.744-23.552v-47.104c0-12.8 14.336-23.552 31.744-23.552zM34.304 38.4h381.952c17.408 0 31.744 10.752 31.744 23.552v47.104c0 13.312-14.336 23.552-31.744 23.552h-381.952c-17.408 0-31.744-10.752-31.744-23.552v-47.104c0-12.8 14.336-23.552 31.744-23.552zM34.304 290.304h381.952c17.408 0 31.744 10.752 31.744 23.552v47.104c0 13.312-14.336 23.552-31.744 23.552h-381.952c-17.408 0-31.744-10.752-31.744-23.552v-47.104c0-12.8 14.336-23.552 31.744-23.552zM510.464 303.104c0.512 3.584 1.536 7.168 1.536 11.264v47.104c0 48.64-41.984 86.528-95.744 86.528h-126.976c0 87.040 71.168 157.696 159.232 157.696s159.232-70.656 159.232-157.696c0-65.024-39.936-120.832-97.28-144.896zM2.56 731.648h891.392v-567.296h-385.536c2.048 7.68 3.584 15.36 3.584 23.552v39.424h190.976c0 69.632 56.832 125.952 127.488 125.952v189.44c-70.144 0-127.488 56.32-127.488 125.952h-509.44c0-69.632-56.832-125.952-127.488-125.952v-94.72h-31.744c-11.264 0-22.016-2.048-31.744-5.12v288.768zM1021.44 857.6v-630.272h-63.488v567.296h-891.904v62.976h955.392z" />
<glyph unicode="&#xe944;" glyph-name="arrow-down" d="M2.56 711.68l509.44-399.36 509.44 399.36v-128l-509.44-399.36-509.44 399.36v128z" />
<glyph unicode="&#xe945;" glyph-name="calendar" d="M1021.44 804.352c0-258.56 0-517.632 0-776.192-0.512-0.512-1.024-1.024-1.536-1.536-13.824-45.056-39.424-64-86.528-64-279.552 0-559.104 0-838.656 0-51.712 0-74.752 16.384-91.136 65.024 0 0.512-0.512 0.512-0.512 0.512 0 258.56 0 517.632 0 776.192 0.512 1.024 1.536 2.048 2.048 3.072 9.728 39.936 39.424 62.464 80.384 62.464 32.256 0 65.024 0 97.28 0 8.704 0 16.896 0 26.624 0 0 9.728 0 17.92 0 26.624 0 23.040 12.288 36.864 32.256 36.864 19.456 0 31.744-14.336 31.744-37.376 0-8.704 0-16.896 0-25.088 159.744 0 318.464 0 477.696 0 0 9.728 0 19.456 0 28.672 0 19.968 12.8 34.304 30.72 34.304 19.968 0.512 32.768-13.312 32.768-34.304 0-9.728 0-19.456 0-29.696 43.52 0 86.016 0 128 0 20.992 0 38.912-7.68 54.272-21.504 12.8-12.288 19.456-27.648 24.576-44.032zM66.048 614.912c0-3.072 0-5.632 0-7.68 0-186.88 0-374.272 0-561.152 0-14.336 6.144-19.968 20.992-19.968 282.624 0 565.248 0 847.872 0 17.92 0 23.040 5.12 23.040 23.040 0 185.856 0 371.2 0 557.056 0 2.56-0.512 5.632-0.512 8.704-297.472 0-593.408 0-891.392 0zM751.104 805.376c-160.256 0-318.464 0-477.696 0 0-10.752 0-20.48 0-30.208 0-18.944-13.312-32.256-31.744-32.256s-31.744 13.824-31.744 33.28c0 10.24 0 19.968 0 30.72-41.984 0-81.92 0-121.856 0-15.872 0-20.992-5.632-20.992-21.504 0-31.744 0-62.976 0-94.208 0-3.584 0-7.168 0-10.24 297.984 0 594.432 0 891.904 0 0 35.328 0 70.144 0 104.96 0 15.872-5.632 21.504-21.504 21.504-37.376 0-74.752 0-112.128 0-3.072 0-5.632-0.512-9.216-0.512 0-10.752 0-20.992 0-31.232 0-18.432-13.824-32.256-32.256-31.744-17.408 0-31.232 13.824-31.232 31.744-2.048 8.704-1.536 18.944-1.536 29.696zM408.064 439.808c-17.408 0-34.816 0-52.736 0-12.8 0-18.432 5.632-18.432 18.944 0 24.576 0 49.152 0 73.216 0 13.312 5.632 18.944 18.432 18.944 35.328 0 71.168 0 106.496 0 12.8 0 18.432-5.632 18.432-18.944 0-24.576 0-49.152 0-73.728 0-13.312-5.632-18.944-19.456-18.944-17.92 0.512-35.328 1.024-52.736 0.512v0zM615.424 439.808c-17.92 0-35.84 0-53.76 0-11.776 0-17.92 5.632-17.92 17.408 0 25.6 0 51.712 0 77.312 0 10.752 6.144 16.384 16.896 16.384 36.352 0 72.704 0 109.568 0 10.752 0 16.896-5.632 16.896-16.384 0-26.112 0-52.224 0-78.336 0-10.24-6.144-16.384-16.896-16.384-18.432 0-36.352 0.512-54.784 0v0zM821.76 440.32c-17.408 0-35.328 0-52.736 0-12.288 0-17.92 5.632-17.92 18.432 0 25.088 0 50.176 0 75.776 0 11.776 5.632 17.408 17.92 17.408 35.84 0 71.68 0 107.008 0 12.288 0 17.92-5.632 17.92-18.432 0-25.088 0-49.664 0-74.752 0-12.8-6.144-18.432-18.944-18.432-17.408-0.512-35.328-0.512-53.248 0v0zM201.728 264.704c-17.92 0-35.84 0-53.76 0-11.776 0-17.92 5.632-17.92 17.408 0 25.6 0 51.712 0 77.312 0 10.752 6.144 16.384 16.896 16.384 36.352 0 72.704 0 109.056 0 10.752 0 16.896-6.144 16.896-16.384 0-26.112 0-52.224 0-78.336 0-10.752-6.144-16.384-16.896-16.384-17.92 0-36.352 0-54.272 0 0 0 0 0 0 0zM409.088 376.32c17.408 0 35.328 0 52.736 0 12.8 0 18.432-5.632 18.432-18.944 0-24.576 0-49.152 0-73.728 0-13.312-5.632-18.944-18.432-18.944-35.328 0-70.656 0-106.496 0-12.8 0-18.432 5.632-18.432 17.92 0 25.088 0 50.176 0 75.776 0 12.288 5.632 17.92 18.432 17.92 17.92 0 35.84 0 53.76 0v0zM615.936 376.32c17.408 0 35.328 0 52.736 0 12.8 0 18.432-5.632 18.432-17.92 0-25.088 0-49.664 0-74.752 0-13.312-5.12-18.944-18.432-18.944-35.84 0-71.68 0-107.008 0-11.776 0-17.408 5.632-17.408 17.92 0 25.088 0 50.176 0 75.264 0 12.288 5.632 17.92 18.432 17.92 17.408 0.512 35.328 0.512 53.248 0.512zM822.784 376.32c17.408 0 34.304 0 51.712 0 13.824 0 19.456-5.12 19.456-18.944 0-24.576 0-49.152 0-73.728 0-13.312-5.632-18.944-18.432-18.944-35.328 0-71.168 0-106.496 0-12.8 0-18.432 5.632-18.432 17.92 0 24.576 0 49.664 0 74.24 0 13.824 5.12 18.944 19.456 18.944 17.92 0.512 35.328 0.512 52.736 0.512zM201.216 89.6c-17.92 0-35.84 0-53.76 0-11.776 0-17.408 5.632-17.408 17.92 0 25.6 0 51.2 0 76.8 0 11.264 5.632 16.896 17.408 16.896 35.84 0 72.192 0 108.544 0 11.776 0 17.408-5.632 17.408-17.408 0-25.088 0-50.176 0-75.264 0-12.8-5.632-17.92-18.432-18.432-17.92-0.512-35.84-0.512-53.76-0.512zM408.064 89.6c-17.408 0-35.328 0-52.736 0-12.8 0-18.432 5.632-18.432 17.92 0 24.576 0 49.664 0 74.24 0 13.312 5.12 18.432 18.432 18.432 35.84 0 71.68 0 107.008 0 11.264 0 17.408-5.632 17.408-16.896 0-25.6 0-51.2 0-76.8 0-11.776-5.632-17.408-17.408-17.92-17.92 1.024-36.352 1.024-54.272 1.024zM615.424 201.216c17.92 0 35.84 0 53.76 0 12.288 0 17.92-5.632 17.92-17.408 0-25.6 0-51.2 0-76.288 0-11.264-5.632-17.408-17.408-17.408-36.352 0-72.192 0-108.032 0-11.776 0-17.92 6.144-17.92 17.92 0 25.088 0 50.176 0 75.264 0 12.288 5.632 17.92 17.92 18.432 18.432-0.512 36.352-0.512 53.76-0.512v0z" />
<glyph unicode="&#xe946;" glyph-name="gender" d="M842.24 585.728c29.184 29.184 58.368 57.856 89.088 88.064-9.216 0-17.92 0-26.112 0-12.8-0.512-25.6-2.56-38.4-1.536-13.824 1.024-22.528 10.752-22.016 24.576 0.512 12.8 7.168 22.528 21.504 23.552 43.008 2.56 86.016 5.12 129.024 6.144 17.408 0.512 27.136-9.728 26.624-27.648-1.024-40.448-2.56-81.408-5.12-121.856-1.024-18.944-11.776-28.672-26.624-27.648s-23.552 12.8-22.528 31.232c1.024 17.92 2.048 35.328 3.072 53.76-30.208-30.72-58.88-59.392-86.528-87.552 12.8-23.040 28.16-47.616 40.96-73.216 20.992-43.008 29.184-89.088 26.624-136.192-4.096-79.36-34.304-147.968-91.648-203.264-152.064-146.944-401.408-98.816-488.96 94.208-2.56 5.632-9.216 12.288-14.848 12.8-61.952 5.632-117.248 27.136-165.888 66.048-1.536 1.536-4.096 2.56-6.144 4.096-17.408-17.92-34.304-35.84-54.784-57.344 14.848-13.312 30.72-27.136 46.080-41.984 12.288-12.288 13.312-27.136 3.584-36.864-10.24-10.24-26.112-9.728-38.4 3.072-14.848 14.848-28.672 30.208-46.592 48.64-15.36-16.896-27.648-31.744-41.472-45.568-14.336-14.848-28.16-15.36-39.424-4.096-10.24 10.752-8.704 25.088 4.608 38.4 13.824 13.824 28.16 27.648 44.544 43.52-16.384 15.872-32.256 29.696-47.104 44.544-13.824 13.312-14.848 27.136-4.608 38.4 11.264 11.776 24.576 10.752 39.424-3.584 14.336-14.336 28.16-29.184 41.984-43.52 18.432 19.456 35.328 36.864 51.712 53.76-13.824 26.112-31.232 54.272-44.032 83.968-73.728 175.104 40.96 380.416 228.352 409.6 142.336 22.528 268.288-44.544 330.24-175.104 2.56-5.632 9.728-12.288 15.36-12.8 62.464-5.632 118.272-27.648 166.912-67.072-0.512-0.512 1.024-1.024 1.536-1.536zM419.328 243.2c45.056-109.568 181.248-169.472 299.52-135.168 120.32 35.328 201.216 150.528 180.736 283.648-17.92 115.712-129.536 217.6-222.208 209.92 16.896-85.504-1.536-163.328-51.2-233.984-50.176-70.656-120.832-110.080-206.848-124.416zM346.624 292.864c-16.896 195.584 70.656 315.904 259.072 363.008-39.424 99.328-166.4 161.792-279.040 137.728-123.904-26.624-208.384-137.216-201.728-264.192 6.656-124.416 102.4-222.72 221.696-236.544zM624.64 604.672c-173.568-12.8-264.192-192.512-221.184-312.832 155.648 13.312 260.096 165.376 221.184 312.832z" />
<glyph unicode="&#xe947;" glyph-name="calendar-fill" d="M251.392 715.776h14.848c22.016 0 39.936 17.92 39.936 40.448v152.576c0 22.016-17.92 40.448-39.936 40.448h-14.848c-22.016 0-39.936-17.92-39.936-40.448v-152.576c0-22.016 17.92-40.448 39.936-40.448zM765.952 717.312h14.848c22.016 0 39.936 17.92 39.936 39.936v152.576c0 22.016-17.92 40.448-39.936 40.448h-14.848c-22.016 0-39.936-17.92-39.936-40.448v-152.576c0-22.016 17.92-39.936 39.936-39.936zM956.416 867.328h-102.912v-120.832c0-40.448-32.768-62.464-72.704-62.464h-14.848c-39.936 0-72.704 32.768-72.704 72.704v110.592h-354.304v-111.104c0-40.448-32.768-72.704-72.704-72.704h-14.848c-39.936 0-72.704 32.768-72.704 73.216v110.592h-111.104c-35.84 0-65.024-29.184-65.024-65.536v-790.528c0-35.84 29.184-65.536 65.024-65.536h888.32c35.84 0 65.024 29.184 65.024 65.536v790.528c0.512 36.352-28.672 65.536-64.512 65.536zM956.416 11.264c0 0 0 0 0 0h-888.832v596.992h888.32v-596.992z" />
<glyph unicode="&#xe948;" glyph-name="delivered" d="M1000.96 360.448c-16.384 8.192-34.304 5.12-49.152-9.216-12.8-11.776-24.064-25.088-36.352-37.376-41.984-44.032-84.992-87.040-134.144-123.392-2.56-2.048-5.12-5.12-6.144-8.192-10.24-27.648-31.232-44.032-56.32-56.832-18.432-9.216-38.4-11.776-58.368-11.776-90.112 0-180.224-0.512-269.824-0.512h-10.24c13.824 15.872 27.648 27.648 47.616 27.648 77.824 0 155.648 0.512 233.472 0.512 33.792 0 60.928 13.824 78.848 42.496 24.064 38.4 13.312 109.056-53.76 121.856-9.728 2.048-19.968 2.56-29.696 2.56-65.024 0-129.536 0-194.56 0-4.608 0-9.728 1.536-13.312 4.096-30.72 19.456-62.976 34.816-97.792 45.056-37.888 11.264-76.288 10.752-114.176 1.024-20.992-5.632-40.96-13.312-61.44-20.992-5.12-1.536-9.216-5.12-14.848-8.704 0 15.872 0.512 31.744-0.512 47.104-0.512 6.144-1.536 12.288-4.608 17.92-4.096 7.68-11.264 11.776-19.968 11.776-35.84 0-72.192-0.512-108.032 0-12.8 0-18.944-8.704-24.576-17.92 0.512-119.296 0.512-239.104 1.024-358.912 6.656-13.824 17.408-19.456 32.768-18.944 29.696 1.024 59.392 1.024 88.576 0 28.672-1.024 37.888 12.288 36.352 37.376-0.512 9.728 0 18.944 0 28.16 4.608-2.048 7.68-4.608 11.264-5.632 34.304-9.216 68.608-17.408 102.912-27.136 39.936-11.264 78.848-25.088 119.296-34.816 30.72-7.68 62.464-14.848 94.208-16.384 80.896-3.072 160.768 6.656 237.056 35.84 36.864 13.824 71.168 32.768 98.816 60.928 50.176 52.224 99.328 105.472 148.48 158.72 19.456 20.992 39.936 41.472 48.64 70.144v17.92c-5.632 9.728-10.24 20.48-21.504 25.6zM248.832 485.888c3.072-19.968 11.776-37.376 26.112-51.2 19.456-18.944 43.008-27.136 70.144-27.136 41.984 0.512 83.968 0 125.952 0.512 3.072 0 5.632 0 9.728 0 0 24.064 0 47.104 0 69.632 22.528 0 44.032 0 66.048 0 0-23.552 0-46.080 0-69.12 2.048-0.512 3.072-0.512 4.096-0.512 46.592 0 92.672 0 139.264 0.512 15.36 0 30.208 4.608 43.52 12.288 32.768 18.944 47.616 48.64 47.616 86.016 0 100.864-0.512 201.216-0.512 302.080 0 8.192-0.512 16.896-2.048 25.088-9.728 40.96-42.496 70.144-83.968 71.68-48.128 1.536-96.256 0.512-144.896 1.024-5.12 0-6.144-2.048-6.144-7.168 0-12.8-0.512-25.6 0.512-38.4 0.512-8.192-1.536-11.264-10.24-10.752-13.824 0.512-28.16 0.512-42.496 0-8.192-0.512-10.24 2.56-9.728 10.24 0.512 14.848 0 29.696 0 45.056-2.56 0.512-4.608 0.512-6.656 0.512-44.032 0-88.576 0-132.608-0.512-19.968 0-39.424-4.608-55.808-16.896-27.648-19.968-39.936-48.128-39.424-82.432 0.512-99.84 0.512-199.68 1.024-299.52-0.512-7.168-0.512-14.336 0.512-20.992zM422.912 648.192c20.48 0 41.472 0 62.976 0 0 3.584 0 6.656 0 9.728 0 40.96 0 81.92-0.512 122.88 0 7.168 2.048 9.728 9.216 9.216 11.264-0.512 22.528-0.512 34.304 0 6.656 0.512 8.192-2.048 8.192-8.192 0-40.96 0-82.432 0-123.392v-9.728c21.504 0 41.984 0 62.976 0 0.512-1.024 0.512-1.536 1.024-2.048-29.696-35.328-58.88-71.168-89.088-107.52-30.72 36.864-60.416 72.192-90.112 107.52l1.024 1.536zM784.896 296.448c-6.144-5.632-11.264-12.288-16.896-18.432s-5.12-12.8-0.512-19.456c1.536-2.048 3.072-4.096 4.608-5.632 9.728-10.24 14.336-10.24 24.576-1.536 39.424 34.816 78.848 69.12 117.76 103.936 10.752 9.216 20.992 18.432 31.232 27.648-7.168 14.336-15.872 19.456-29.184 13.824-13.824-5.632-27.648-12.8-39.424-22.528-30.72-24.576-61.44-51.2-92.16-77.824zM747.52 347.648c-5.12-5.632-9.216-12.288-12.288-16.384 0-10.752 13.312-26.112 20.992-26.624 2.048 0 4.608 1.024 6.656 2.56 38.912 32.768 77.824 65.536 116.224 98.304 9.216 7.68 8.704 14.336-2.048 19.456-5.632 2.56-13.312 3.584-18.432 1.536-11.264-4.096-22.016-9.216-32.256-15.36-28.16-18.944-55.296-38.912-78.848-63.488z" />
<glyph unicode="&#xe949;" glyph-name="delivery" d="M595.968 748.032c-14.848 12.8-32.256 19.456-52.224 19.456-177.664 0-355.84 0-533.504 0-1.536 0-2.56 0-4.096 0-1.024 0-2.048-0.512-3.584-0.512v-40.448c2.048 0 4.096 0 6.144 0h400.896c1.536 0 2.56 0 4.096 0 1.024 0 2.048-0.512 3.584-0.512 0-13.824 0-27.136 0-39.936-1.024-0.512-1.024-0.512-1.024-0.512s-0.512 0-0.512 0-0.512 0-0.512 0h-327.168c0 0-0.512 0-0.512 0h-0.512c0 0-0.512 0-0.512 0s-0.512 0-0.512 0c0 0 0 0-0.512 0 0 0 0 0-0.512-1.024v-18.944h-77.312c-1.536 0-3.584 0-5.12-0.512v-40.96h294.912c12.288 0 24.576 0 36.864 0 0-13.824 0-27.136 0-40.96h-194.048c-9.216 0-18.432 0-27.648 0s-17.92 0.512-27.136-0.512c-0.512-7.168 0.512-13.312-0.512-20.48h-54.784c-9.216 0-18.432 0-27.136 0v-41.472h248.832c0-13.824 0-27.136 0-40.96h-166.4c-1.024-7.168 0.512-14.336-0.512-20.992h-66.56c-5.12 0-10.752 0-15.872 0v-40.96h159.744c2.048 0 3.584 0 5.632-0.512 1.024-7.68 0.512-37.376-0.512-41.472h-81.92c0-1.536 0-3.072 0-4.096 0-27.136 0-54.272 0-81.408 0-7.68 1.536-15.872 4.096-23.040 4.608-13.824 12.288-25.6 23.040-35.328 14.848-13.312 32.256-20.48 52.224-20.992s40.448 0 60.416 0h5.12c0.512 1.536 0.512 3.072 0.512 4.608 0 12.8 3.072 24.576 8.192 35.84 10.24 23.552 27.136 40.96 50.688 52.224 18.432 8.704 37.376 11.776 57.856 9.216 18.432-2.048 34.816-8.704 49.664-19.968 25.6-19.456 39.424-45.056 41.472-77.312 0-1.536 0.512-3.072 0.512-4.608h185.344c0 2.048 0 4.096 0 5.632v472.064c0 1.536 0 2.56 0 4.096-2.048 22.016-11.264 40.96-28.672 55.296zM1011.712 491.52c-16.384 20.992-33.28 41.984-49.664 62.976-24.576 31.232-48.64 62.464-73.216 93.184-8.704 11.264-20.992 17.408-35.328 17.408-51.2 0-102.4 0-153.088 0-5.632 0-10.752 0-16.384-0.512-7.168-0.512-13.312-3.072-18.944-7.168-11.776-8.704-17.408-20.48-17.408-34.816v-403.968c0-1.024 0-2.56 0-3.584s0-2.048 0.512-3.072c8.192-1.024 78.848-0.512 82.432 0.512 0.512 28.16 10.752 52.224 30.72 72.192s45.056 30.208 73.216 30.208c24.576 0 47.104-7.68 66.048-24.064 24.576-20.48 36.864-46.592 37.888-79.36 4.608 0.512 8.704 0.512 12.8 1.024 17.408 2.56 32.256 9.728 44.544 22.016 16.896 16.384 25.6 36.352 25.6 59.904 0 56.32 0 113.152 0 169.984 0 9.728-3.584 18.944-9.728 27.136zM959.488 441.344c0-5.632-0.512-11.264-4.096-16.384-3.072-4.608-7.68-7.168-13.312-7.68-4.096-0.512-8.192-0.512-12.288-0.512h-59.904c-3.072 0-6.656 0-9.728 0.512-4.608 0.512-8.192 3.072-11.776 6.656-9.216 9.216-17.92 17.92-27.136 27.136-4.608 5.12-10.24 7.168-17.408 7.168-22.016-0.512-43.52 0-65.536 0-4.096 0-7.68 0-11.776 0.512-9.216 1.024-16.384 9.216-16.384 18.944 0 9.216 0 17.92 0 26.624v36.352c0 20.48 0 40.96 0 61.44 0 14.336 10.24 21.504 21.504 21.504 37.376 0 74.752 0 111.616 0 7.168 0 13.312-2.56 17.92-8.192 16.896-20.48 34.304-40.96 51.2-61.44 13.312-15.872 26.112-31.232 39.424-47.104 4.608-5.632 7.168-12.288 7.168-19.456 0.512-15.36 0.512-30.72 0.512-46.080zM834.56 292.864c-45.056 0-82.944-35.328-82.944-81.92-0.512-46.592 36.864-82.944 82.944-82.944 46.080 0.512 80.896 35.84 82.944 78.336 2.048 49.664-37.376 86.528-82.944 86.528zM834.56 169.472c-23.040 0-41.472 17.92-41.472 40.96s17.92 41.472 41.472 41.472c24.576 0 40.96-19.456 40.96-40.96 0.512-22.016-17.408-41.472-40.96-41.472zM335.36 292.864c-45.056 0.512-83.456-35.328-83.456-82.432 0-46.080 37.376-82.944 82.944-82.432 44.544-0.512 83.456 34.304 83.456 82.432-1.024 48.128-38.912 82.432-82.944 82.432zM334.336 169.472c-23.552 0-41.984 19.456-40.96 41.472-0.512 21.504 17.408 40.96 40.96 40.96s41.472-18.432 41.472-40.96c0-23.040-18.432-41.472-41.472-41.472z" />
<glyph unicode="&#xe94a;" glyph-name="processing" d="M686.592 237.568c-20.992 7.68-42.496 15.36-63.488 23.040-4.608 1.536-7.68 3.584-8.704 9.728-2.048 20.992-5.12 41.984-8.192 62.976-1.024 5.632 0 9.216 4.608 12.288 19.968 13.824 39.936 28.672 59.392 41.984 4.096 3.072 5.12 5.632 3.072 9.728-11.264 25.6-25.6 50.176-43.52 72.704-4.608 5.632-8.704 6.656-15.36 3.072-20.992-9.728-41.984-19.456-62.976-28.672-3.584-1.536-6.656-2.048-10.752 1.024-15.36 12.8-31.744 25.088-48.128 37.376-5.632 4.096-8.192 7.68-6.656 14.848 4.096 22.528 7.168 45.568 11.264 68.096 1.024 5.632 0 8.704-6.144 10.24-27.648 7.68-55.808 14.848-82.944 23.040-6.656 2.048-9.216-1.024-10.752-6.656-7.68-21.504-15.872-43.008-23.040-64.512-2.56-6.656-5.632-9.216-13.312-9.216-21.504 1.024-42.496-1.536-62.976-8.192-7.168-2.048-10.24 0-13.824 5.12-13.824 18.944-27.648 37.888-41.472 56.832-3.072 4.096-6.144 5.632-10.752 3.584-26.624-11.264-51.712-24.576-74.752-42.496-5.12-4.096-5.632-7.68-3.072-13.824 9.728-20.48 19.456-40.96 29.184-60.928 3.072-5.632 2.048-9.728-2.048-14.336-12.8-15.36-25.088-30.208-36.864-46.080-5.632-7.68-11.776-9.728-20.992-7.68-23.552 4.608-47.104 8.192-70.656 11.776-1.536-2.56-2.56-4.608-3.584-6.656-12.8-27.136-16.896-56.32-22.016-85.504-1.024-4.608 1.536-6.144 5.12-7.168 22.528-8.192 44.544-16.896 67.072-25.088 5.632-2.048 8.704-4.608 8.192-11.264-1.024-22.016 3.072-43.52 9.216-64.512 1.536-5.632 0-9.216-5.12-12.8-18.432-12.8-36.864-26.112-55.296-38.912-6.656-4.608-8.192-9.216-4.096-15.36 13.824-23.040 27.648-46.080 40.96-69.632 4.096-6.656 8.704-7.168 15.36-3.584 20.992 10.24 42.496 19.456 63.488 29.184 4.096 2.048 7.168 1.536 10.752-1.536 16.896-13.312 33.792-25.6 51.2-37.888 4.608-3.072 6.144-6.144 5.12-11.264-2.048-12.8-4.096-26.112-6.144-38.912-2.048-13.312-4.096-26.624-6.144-39.936 32.768-10.24 64-20.48 97.28-24.576 9.216 25.088 18.944 49.152 27.648 73.216 2.56 6.144 5.12 9.216 12.288 8.704 21.504-1.024 42.496 2.048 62.464 8.704 5.632 2.048 9.216 0.512 12.288-4.096 11.776-17.408 24.576-34.304 36.864-51.2 3.072-4.096 6.656-8.704 9.728-12.8 30.72 12.288 58.368 27.648 83.456 48.128 3.584 3.072 3.584 5.632 1.536 9.728-9.728 20.48-18.944 41.472-29.184 61.952-3.584 7.168-2.048 12.288 2.56 17.92 11.264 13.824 22.528 27.648 31.744 42.496 4.608 7.168 9.216 8.704 16.896 7.168 25.088-4.608 49.664-8.192 74.752-12.288 1.024 2.048 2.048 3.584 2.56 5.632 10.24 26.112 18.432 53.248 22.528 81.408 4.096 9.216 1.536 12.8-5.632 15.872zM364.032 148.48c-68.096 0.512-125.44 55.296-124.928 120.832 0.512 74.24 61.44 124.928 126.976 123.392 66.56-1.536 121.344-55.296 121.344-121.344 0-67.584-55.808-122.88-123.392-122.88zM994.304 731.136c-1.024 6.144-3.072 8.704-9.728 9.216-16.896 1.024-33.792 3.072-50.688 4.608-5.632 0.512-8.192 3.072-10.24 8.192-5.12 13.824-10.752 27.648-16.896 40.96-2.56 5.12-2.56 9.216 1.536 13.824 11.264 13.312 22.528 26.624 32.768 39.936 1.536 2.048 2.56 7.168 1.024 9.216-14.848 19.456-32.768 35.84-53.248 50.688-15.36-12.8-30.72-25.088-45.568-37.376-4.608-4.096-8.704-4.096-13.824-1.024-7.68 4.096-15.36 9.728-23.552 11.264-21.504 3.584-26.624 16.896-26.624 36.352 0 12.8-2.56 25.088-4.096 37.888-24.064 4.096-47.104 4.608-70.144 1.536-4.608-0.512-8.192-1.536-8.704-7.68-1.536-16.896-3.584-34.304-4.608-51.2-0.512-4.608-2.048-7.168-6.656-8.704-12.8-5.12-25.088-9.728-37.376-15.872-13.824-6.656-17.92-6.144-29.696 4.096-12.288 10.752-25.088 20.48-39.424 32.768-18.432-18.432-36.352-36.864-54.272-54.784 14.336-16.896 26.112-31.232 38.4-46.080 3.072-3.584 4.096-6.656 2.048-11.264-6.656-14.848-13.312-30.208-19.456-45.056-2.048-4.608-4.608-6.656-9.728-7.168-16.384-1.536-32.256-3.584-48.64-5.12-6.656-0.512-10.752-3.584-10.752-10.24 0.512-19.456 1.024-38.912 1.024-58.368 0-6.656 3.584-9.216 10.24-9.728 16.384-1.536 32.768-3.072 48.64-5.12 3.072-0.512 7.168-3.072 8.192-5.632 7.168-16.384 13.824-32.768 20.992-48.64 1.536-4.096 1.024-6.656-1.536-9.728-12.288-14.336-24.576-29.184-36.864-44.032 15.872-21.504 33.792-40.448 55.808-54.784 14.848 12.288 29.184 24.064 43.52 35.84 5.12 4.608 9.216 5.12 15.872 2.048 12.8-6.144 26.624-10.752 39.936-15.36 5.632-2.048 8.192-4.096 8.704-9.728 1.024-11.776 2.56-24.064 4.096-35.84 3.072-26.112-0.512-23.040 25.6-23.552 16.896-0.512 33.792 0.512 50.688 1.536 2.048 0 5.12 3.584 5.632 5.632 2.048 16.384 3.584 33.28 4.608 49.664 0.512 8.192 3.584 12.288 11.776 14.848 13.312 4.608 26.624 10.24 39.424 16.384 4.608 2.048 7.68 2.56 12.288-1.024 15.36-12.8 31.232-25.088 47.104-37.888 22.016 15.36 38.912 35.328 55.296 55.808-12.8 14.848-25.088 29.696-37.888 44.032-4.096 4.608-5.12 8.704-2.56 14.336 5.632 12.288 10.752 25.088 15.36 37.888 2.048 6.144 5.632 8.704 11.776 8.704 16.384 1.024 33.28 2.56 49.664 4.096 6.144 0.512 9.216 2.56 9.728 9.216 4.096 18.432 4.096 39.424 1.024 60.416zM736.768 606.72c-58.368 0-96.256 49.152-94.72 96.256 1.536 51.2 44.032 93.696 95.744 93.696 51.712-0.512 95.744-43.52 95.744-94.72 0-53.248-43.008-95.744-96.768-95.232z" />
<glyph unicode="&#xe94b;" glyph-name="phone" d="M992.768 191.488c-52.224 54.784-105.472 108.032-157.696 157.696-38.4 36.352-93.696 34.304-132.096-3.584-20.992-20.48-41.472-41.472-61.952-61.952l-29.184-29.184-5.632 3.584c-87.552 52.224-245.76 211.968-282.624 284.16l-3.072 5.632 4.608 4.608c8.192 8.192 15.872 16.384 24.064 24.576 17.92 18.432 36.352 37.888 56.32 55.296 22.016 19.456 34.304 43.52 34.816 69.632 0.512 28.672-12.288 57.856-35.84 79.872-38.912 36.864-76.288 74.752-114.176 114.176-23.552 24.064-47.104 46.592-78.336 57.856-44.544 15.872-92.16-21.504-118.784-50.688-29.696-32.256-55.808-59.904-72.704-100.864-10.752-25.6-15.36-55.296-15.872-83.456-1.536-70.144 16.896-141.312 57.344-223.744 78.336-160.768 194.048-295.424 354.816-412.672 113.664-82.944 214.528-127.488 318.464-140.8 87.552-11.264 151.552 9.216 200.192 62.976 11.264 12.8 24.064 25.088 35.84 36.864 6.144 6.144 12.288 11.776 18.432 17.92 38.4 39.424 39.936 93.696 3.072 132.096zM954.88 93.184c-6.656-6.656-13.312-13.312-19.968-19.968-11.776-11.264-24.064-23.552-35.328-35.84-30.72-34.304-70.656-51.2-122.368-51.2-9.216 0-18.432 0.512-28.16 1.536-63.488 6.144-127.488 27.136-194.56 64.512-188.928 104.448-337.408 252.928-440.32 442.368-39.936 73.728-62.976 151.040-62.976 212.48 0 31.232 6.144 61.952 21.504 89.088 17.408 31.232 36.864 57.344 61.952 81.92 24.064 23.552 59.392 43.52 89.6 13.824 50.176-48.64 100.864-98.816 154.112-153.6 19.456-19.968 18.432-46.080-2.56-67.072-13.824-14.336-28.16-28.16-41.984-41.984s-28.16-28.16-41.984-41.984c-24.064-24.576-26.624-50.176-6.656-77.824 78.848-112.128 176.128-209.408 288.256-288.768 28.16-19.968 54.272-17.408 79.36 7.168l37.888 37.888c14.848 14.848 29.696 29.696 44.544 44.544 20.992 20.992 47.616 22.016 67.072 3.072 55.296-53.76 105.472-104.448 153.6-154.112 15.36-14.336 26.624-37.888-1.024-66.048z" />
<glyph unicode="&#xe94c;" glyph-name="plus" d="M901.632 569.344h-268.288v268.288c0 66.048-55.296 119.808-121.344 119.808s-121.344-53.76-121.344-119.808v-268.288h-268.288c-66.048 0-119.808-55.296-119.808-121.344s53.76-121.344 119.808-121.344h268.288v-268.288c0-66.048 55.296-119.808 121.344-119.808s121.344 53.76 121.344 119.808v268.288h268.288c66.048 0 119.808 55.296 119.808 121.344s-53.76 121.344-119.808 121.344z" />
<glyph unicode="&#xe94d;" glyph-name="minus" d="M901.632 569.344h-779.264c-66.048 0-119.808-55.296-119.808-121.344s53.76-121.344 119.808-121.344h779.264c66.048 0 119.808 55.296 119.808 121.344s-53.76 121.344-119.808 121.344z" />
<glyph unicode="&#xe94e;" glyph-name="address" d="M459.776 613.376c-14.848 0-28.672 0-43.008 0 0 44.032 0 87.040 0 131.072 14.336 0 28.672 0 43.008 0 0-43.52 0-86.528 0-131.072zM139.264 744.448c14.848 0 28.672 0 43.008 0 0-44.032 0-87.040 0-131.072-14.336 0-28.16 0-43.008 0 0 43.52 0 87.040 0 131.072zM182.272 382.464c-14.336 0-28.16 0-42.496 0 0 44.032 0 87.040 0 131.072 13.824 0 28.16 0 42.496 0 0-43.52 0-86.528 0-131.072zM182.272 151.552c-14.336 0-28.16 0-42.496 0 0 43.52 0 87.040 0 131.072 13.824 0 28.16 0 42.496 0 0-43.52 0-86.528 0-131.072zM321.024 613.376c-14.336 0-28.16 0-42.496 0 0 43.52 0 87.040 0 131.072 13.824 0 27.648 0 42.496 0 0-43.52 0-86.528 0-131.072zM278.016 382.976c0 43.52 0 86.528 0 130.56 14.336 0 28.16 0 43.008 0 0-43.008 0-86.528 0-130.56-13.824 0-28.16 0-43.008 0zM278.016 152.064c0 44.032 0 87.040 0 130.56 14.336 0 28.16 0 43.008 0 0-43.52 0-87.040 0-130.56-14.336 0-28.16 0-43.008 0zM934.4 486.4c-60.416 59.904-122.368 121.344-183.808 181.76l-35.84 35.328-35.84-35.328c-15.36-15.36-30.72-30.208-46.080-45.568l-23.040-22.528c-1.536-1.536-3.584-3.072-6.144-5.632l-9.728-8.704v308.736h-591.36v-892.928h949.248v403.968l2.56 1.024c0.512 0 1.536 0.512 2.048 0.512l2.56 0.512 2.56-1.536c7.168-7.68 14.336-14.848 21.504-22.528l10.752-11.264 27.648 28.16c-1.536 1.024-3.584 2.048-5.12 3.584-27.136 28.16-54.272 55.296-81.92 82.432zM478.72 38.912h-439.808v819.2h519.168v-85.504c0-70.656 0-141.312 0-211.968 0-8.192-2.56-14.336-8.704-20.992-28.16-27.648-56.32-55.808-84.48-83.968-16.896-16.896-33.792-33.792-50.688-50.176-1.536-2.048-3.584-3.072-5.632-4.608 9.728-10.24 18.432-18.432 27.648-27.648 6.144 6.144 12.288 12.288 18.432 18.432l24.576 24.576v-377.344zM761.856 38.912h-93.696v182.272h93.696v-182.272zM914.432 44.032l-0.512-5.632h-114.688v218.112h-168.448v-218.112h-115.2v92.16c0 103.936 0 207.872 0 311.296 0 5.12 2.048 12.288 6.144 16.384 49.664 50.176 99.328 100.352 148.992 150.528l37.376 37.376c1.024 1.024 1.536 1.536 3.072 2.56l5.12 4.096 2.56-2.56c3.584-4.096 7.168-7.68 10.752-11.264 5.12-5.12 10.24-10.752 15.36-15.872l35.84-36.352c41.984-42.496 83.968-84.48 125.952-126.976 3.584-3.584 7.168-9.728 7.168-15.872 0.512-132.096 0.512-263.68 0.512-395.776 0.512-1.024 0-2.048 0-4.096z" />
<glyph unicode="&#xe94f;" glyph-name="city" d="M512-61.44c0 0-376.32 436.224-376.32 647.168s171.008 371.712 376.32 371.712c205.824 0 376.832-166.4 376.832-371.712s-376.832-647.168-376.832-647.168v0 0zM512.512 912.384c-182.272-0.512-332.8-148.992-332.288-326.144 0.512-176.64 332.288-578.048 332.288-578.048s331.264 402.432 331.264 578.56c0 176.128-148.992 326.144-331.264 325.632v0 0zM634.88 630.784c0-67.584-55.296-122.88-122.88-122.88-68.096 0-122.88 54.784-122.88 122.88s54.784 122.88 122.88 122.88c67.584 0 122.88-55.296 122.88-122.88v0 0zM512 708.608c-43.008 0-78.336-34.816-78.336-77.824s34.816-77.824 78.336-77.824c43.008 0 77.824 34.816 77.824 77.824 0.512 43.008-34.816 77.824-77.824 77.824v0 0z" />
<glyph unicode="&#xe950;" glyph-name="card-cvv" d="M956.416 779.264h-888.832c-35.84 0-65.024-29.184-65.024-65.024v-532.48c0-35.84 29.184-65.024 65.024-65.024h888.832c35.84 0 65.024 29.184 65.024 65.024v532.48c0 35.84-29.184 65.024-65.024 65.024zM980.48 186.88c0-11.776-12.8-18.944-24.064-18.944h-888.32c-11.776 0-24.576 7.168-24.576 18.944v317.44h937.472v-317.44zM816.64 550.912c0 23.552 0 45.056 0 68.096 44.032 0 87.040 0 131.072 0 0-22.528 0-44.544 0-68.096-43.52 0-87.552 0-131.072 0zM980.48 656.896h-936.96v57.344c0 11.776 13.312 24.064 24.576 24.064h888.32c11.776 0 24.064-12.288 24.064-24.064v-57.344z" />
<glyph unicode="&#xe951;" glyph-name="credit-card" d="M1021.44 200.192c-3.584-11.776-5.632-24.064-10.752-34.816-19.456-39.936-53.248-57.344-96.256-57.344-123.392 0-247.296 0-370.688 0-144.896 0-290.304 0-435.2 0-51.712 0-89.6 28.16-101.888 75.776-2.56 9.728-3.584 20.48-3.584 30.72 0 154.112 0 307.712 0 461.824 0 44.544 14.848 80.896 56.32 100.352 15.36 7.168 34.304 10.752 51.2 10.752 142.336 1.024 284.672 0.512 427.52 0.512 125.952 0 251.392 0 377.344 0 51.2 0 88.576-28.16 102.4-75.776 1.536-5.632 2.56-10.752 4.096-16.384-0.512-165.376-0.512-330.24-0.512-495.616zM511.488 153.6v0c135.168 0 270.336 0 405.504 0 35.84 0 58.88 22.528 58.88 58.368 0 157.696 0 315.904 0 473.6 0 5.12-0.512 10.24-1.536 14.848-7.168 27.648-28.16 42.496-59.904 42.496-269.824 0-539.648 0-809.472 0-33.792 0-56.832-23.040-56.832-57.856 0-156.672 0.512-313.344-0.512-470.016 0-32.256 21.504-61.952 61.952-61.44 134.144 0.512 267.776 0 401.92 0zM179.712 466.944c-15.872 0-31.744 0-48.128 0-6.656 0-9.728 4.608-9.728 14.336 0 29.184 0 58.88 0 88.064 0 9.216 2.56 13.312 9.216 13.312 31.744 0 64 0 95.744 0 7.168 0 9.216-3.584 9.216-13.312 0-29.184 0-58.368 0-87.552 0-10.752-2.56-14.336-10.24-14.336-14.848-0.512-30.208-0.512-46.080-0.512zM123.904 254.976c123.392 0 245.248 0 368.128 0 0-13.312 0-26.112 0-39.936-122.368 0-245.248 0-368.128 0 0 13.312 0 26.112 0 39.936zM269.824 303.104c-49.152 0-97.28 0-146.432 0 0 20.992 0 41.984 0 62.976 49.152 0 97.28 0 146.432 0 0-21.504 0-41.984 0-62.976zM719.36 366.080c0-21.504 0-41.984 0-62.976-48.64 0-97.28 0-146.432 0 0 20.992 0 41.472 0 62.976 49.152 0 97.28 0 146.432 0zM492.032 303.104c-47.104 0-93.696 0-140.8 0 0 20.48 0 41.472 0 62.464 46.592 0 93.184 0 140.8 0 0-19.968 0-40.96 0-62.464zM894.976 303.104c-33.28 0-65.536 0-99.328 0 0 20.48 0 40.96 0 62.464 32.256 0 65.536 0 99.328 0 0-19.968 0-40.448 0-62.464zM795.648 215.552c0 13.824 0 26.112 0 39.424 33.28 0 66.56 0 99.84 0 0-13.312 0-25.6 0-39.424-33.28 0-66.56 0-99.84 0z" />
</font>
</defs>
</svg>
