<svg id="buyer" xmlns="http://www.w3.org/2000/svg" width="167.996" height="169.478" viewBox="0 0 167.996 169.478">
  <path id="Path_6347" data-name="Path 6347" d="M28.8,79.057A7.064,7.064,0,0,0,35.857,72V44.455a22.331,22.331,0,1,1,44.661,0V72a7.062,7.062,0,0,0,14.123,0V44.455a36.454,36.454,0,1,0-72.907,0V72A7.064,7.064,0,0,0,28.8,79.057Z" transform="translate(26.017 -8)" fill="#d1d1d1"/>
  <path id="Path_6348" data-name="Path 6348" d="M173.416,23.631H135.933v8.806a14.123,14.123,0,0,1-28.246,0V23.631H77.149v8.806a14.123,14.123,0,0,1-28.246,0V23.631H11a2.64,2.64,0,0,0-2.69,3.428L33.017,127.676a14.483,14.483,0,0,0,13.29,10.243h91.8a14.491,14.491,0,0,0,13.3-10.243l24.7-100.617A2.638,2.638,0,0,0,173.416,23.631Z" transform="translate(-8.21 31.558)" fill="#d1d1d1"/>
</svg>
