<svg xmlns="http://www.w3.org/2000/svg" width="243.78" height="170.645" viewBox="0 0 243.78 170.645">
  <path id="foundation" d="M36.567,105.134A24.378,24.378,0,1,0,12.189,80.756,24.4,24.4,0,0,0,36.567,105.134Zm170.646,0a24.378,24.378,0,1,0-24.378-24.378A24.4,24.4,0,0,0,207.213,105.134ZM219.4,117.322H195.024a24.306,24.306,0,0,0-17.179,7.085,55.716,55.716,0,0,1,28.606,41.671h25.14a12.176,12.176,0,0,0,12.189-12.189V141.7A24.4,24.4,0,0,0,219.4,117.322Zm-97.512,0A42.661,42.661,0,1,0,79.228,74.661,42.64,42.64,0,0,0,121.89,117.322Zm29.254,12.189h-3.162a58.9,58.9,0,0,1-52.184,0H92.636a43.892,43.892,0,0,0-43.88,43.88v10.97a18.288,18.288,0,0,0,18.283,18.283h109.7a18.288,18.288,0,0,0,18.283-18.283v-10.97A43.892,43.892,0,0,0,151.144,129.511Zm-85.209-5.1a24.306,24.306,0,0,0-17.179-7.085H24.378A24.4,24.4,0,0,0,0,141.7v12.189a12.176,12.176,0,0,0,12.189,12.189h25.1a55.856,55.856,0,0,1,28.644-41.671Z" transform="translate(0 -32)" fill="#d1d1d1"/>
</svg>
