<svg id="Layer_2" data-name="Layer 2" xmlns="http://www.w3.org/2000/svg" width="18" height="18" viewBox="0 0 18 18">
  <g id="log-out">
    <rect id="Rectangle_141671" data-name="Rectangle 141671" width="18" height="18" transform="translate(18) rotate(90)" fill="#189ec8" opacity="0"/>
    <path id="Path_6315" data-name="Path 6315" d="M15.019,5.574a.787.787,0,1,1,0-1.574h1.574a.787.787,0,0,1,.787.787V15.8a.787.787,0,0,1-.787.787H15.019a.787.787,0,1,1,0-1.574h.787V5.574ZM4.144,9.839,6.363,6.691A.787.787,0,1,1,7.645,7.6l-1.353,1.9h6.366a.787.787,0,0,1,0,1.574h-6.3L7.779,12.97a.787.787,0,1,1-1.259.944L4.16,10.767a.787.787,0,0,1-.016-.929Z" transform="translate(-2.36 -1.571)" fill="#189ec8"/>
  </g>
</svg>
