<svg id="seller" xmlns="http://www.w3.org/2000/svg" width="176.257" height="169.477" viewBox="0 0 176.257 169.477">
  <path id="Path_6349" data-name="Path 6349" d="M3,13v6.779a33.566,33.566,0,0,0,33.9,33.9A34.355,34.355,0,0,0,64.012,40.116a33.9,33.9,0,0,0,54.233,0,34.355,34.355,0,0,0,27.116,13.558,33.566,33.566,0,0,0,33.9-33.9V13Z" transform="translate(-3 48.011)" fill="#d1d1d1"/>
  <path id="Path_6350" data-name="Path 6350" d="M156.508,8.067C155.83,5.356,153.118,4,150.407,4H28.383c-2.712,0-5.423,1.356-6.1,4.067L3.3,51.453H174.811Z" transform="translate(-1.266 -4)" fill="#d1d1d1"/>
  <path id="Path_6351" data-name="Path 6351" d="M4,19.7V75.966a6.4,6.4,0,0,0,6.779,6.779H58.233V19.7a43.344,43.344,0,0,1-27.116,8.813A46.3,46.3,0,0,1,4,19.7ZM39.929,37.326c.678-.678,1.356-1.356,2.034-1.356a6.188,6.188,0,0,1,7.457,1.356c.678.678,1.356,1.356,1.356,2.034s.678,2.034.678,2.712a4.076,4.076,0,0,1-.678,2.712c-.678.678-.678,1.356-1.356,2.034s-1.356,1.356-2.034,1.356-2.034.678-2.712.678a6.154,6.154,0,0,1-4.745-2.034c-.678-.678-1.356-1.356-1.356-2.034a4.076,4.076,0,0,1-.678-2.712A6.154,6.154,0,0,1,39.929,37.326Z" transform="translate(2.779 86.731)" fill="#d1d1d1"/>
  <path id="Path_6352" data-name="Path 6352" d="M54.675,19.7c-8.135,5.423-16.948,8.813-27.116,8.813A43.71,43.71,0,0,1,14,26.479V82.745h88.128a6.4,6.4,0,0,0,6.779-6.779V19.7a46.3,46.3,0,0,1-27.116,8.813A43.344,43.344,0,0,1,54.675,19.7Z" transform="translate(60.57 86.731)" fill="#d1d1d1"/>
</svg>
