<svg xmlns="http://www.w3.org/2000/svg" width="22.323" height="22.501" viewBox="0 0 22.323 22.501">
  <path id="shopping-bag-svgrepo-com" d="M5.524,2.813a.938.938,0,0,1,0,1.875H3.553a.938.938,0,0,0-.936.888l-.74,14.063a.948.948,0,0,0,.936.987h16.7a.948.948,0,0,0,.936-.987l-.74-14.063a.938.938,0,0,0-.936-.888h-2a.938.938,0,1,1,0-1.875h2a2.813,2.813,0,0,1,2.809,2.665l.74,14.063c0,.074,0,.074,0,.148A2.813,2.813,0,0,1,19.51,22.5H2.813c-.074,0-.074,0-.148,0A2.813,2.813,0,0,1,0,19.54L.744,5.477A2.813,2.813,0,0,1,3.553,2.813Zm3.75,1.875a.938.938,0,0,1-1.875,0V2.813A2.813,2.813,0,0,1,10.212,0h1.875A2.813,2.813,0,0,1,14.9,2.813V4.688a.938.938,0,1,1-1.875,0V2.813a.938.938,0,0,0-.938-.938H10.212a.938.938,0,0,0-.937.938Z" fill="#189ec8" fill-rule="evenodd"/>
</svg>
