<svg xmlns="http://www.w3.org/2000/svg" width="24" height="20.676" viewBox="0 0 24 20.676">
  <path id="Path_6221" data-name="Path 6221" d="M19.258,188.5A6.5,6.5,0,0,0,13,195.061c0,4.165,3.056,7.7,5.879,10.1a34.019,34.019,0,0,0,3.94,2.871c.537.336.985.6,1.3.773.237.133.4.219.469.256a.893.893,0,0,0,.412.11.817.817,0,0,0,.375-.092c.171-.087.339-.181.506-.275.316-.178.764-.437,1.3-.773a34.019,34.019,0,0,0,3.94-2.871c2.823-2.4,5.879-5.939,5.879-10.1a6.5,6.5,0,0,0-6.258-6.561A6.584,6.584,0,0,0,25,191.887,6.584,6.584,0,0,0,19.258,188.5Zm0,1.636a4.867,4.867,0,0,0-4.622,4.924c0,3.389,2.535,6.5,5.3,8.858a32.235,32.235,0,0,0,3.748,2.729c.512.321.937.568,1.233.734l.08.045.08-.045c.3-.166.721-.413,1.233-.734a32.235,32.235,0,0,0,3.748-2.729c2.768-2.356,5.3-5.469,5.3-8.858a4.867,4.867,0,0,0-4.622-4.924,5.269,5.269,0,0,0-4.966,3.974.819.819,0,0,1-1.552,0A5.269,5.269,0,0,0,19.258,190.136Z" transform="translate(-13 -188.5)" fill="#189ec8" fill-rule="evenodd"/>
</svg>
