<svg xmlns="http://www.w3.org/2000/svg" width="164.026" height="32" viewBox="0 0 164.026 32">
  <g id="Group_158386" data-name="Group 158386" transform="translate(-215.694 -775.187)">
    <path id="Path_26007" data-name="Path 26007" d="M227.142,785.348a.078.078,0,0,0,.152,0s.883-2.476,1.065-3.155a9.67,9.67,0,0,0-.051-1.008,40.215,40.215,0,0,0-1.011-5.926c-.013-.059-.042-.072-.079-.073s-.066.014-.08.073a40.325,40.325,0,0,0-1.01,5.926,9.661,9.661,0,0,0-.051,1.008c.182.678,1.065,3.155,1.065,3.155" transform="translate(4.477)" fill="#fff"/>
    <path id="Path_26008" data-name="Path 26008" d="M225.63,785.125a3.113,3.113,0,1,0,4.4,0,3.113,3.113,0,0,0-4.4,0" transform="translate(3.886 3.893)" fill="#fff"/>
    <path id="Path_26009" data-name="Path 26009" d="M226.488,781.062l-.276-.843a8.942,8.942,0,0,0-2.659,1.117l.409.786a8.042,8.042,0,0,1,2.526-1.059" transform="translate(3.388 2.172)" fill="#fff"/>
    <path id="Path_26010" data-name="Path 26010" d="M231.082,781.336a8.942,8.942,0,0,0-2.659-1.117l-.276.843a8.106,8.106,0,0,1,2.526,1.059Z" transform="translate(5.368 2.172)" fill="#fff"/>
    <path id="Path_26011" data-name="Path 26011" d="M223.552,791.986a8.949,8.949,0,0,0,2.659,1.116l.276-.843a8.124,8.124,0,0,1-2.526-1.059Z" transform="translate(3.388 6.908)" fill="#fff"/>
    <path id="Path_26012" data-name="Path 26012" d="M228.145,792.259l.276.843a8.949,8.949,0,0,0,2.659-1.116l-.409-.786a8.138,8.138,0,0,1-2.526,1.059" transform="translate(5.369 6.908)" fill="#fff"/>
    <path id="Path_26013" data-name="Path 26013" d="M221.836,790.582l.786-.409a8.1,8.1,0,0,1-1.059-2.526l-.843.276a8.965,8.965,0,0,0,1.117,2.659" transform="translate(2.166 5.374)" fill="#fff"/>
    <path id="Path_26014" data-name="Path 26014" d="M220.719,785.711l.843.276a8.123,8.123,0,0,1,1.059-2.526l-.786-.409a8.947,8.947,0,0,0-1.117,2.659" transform="translate(2.166 3.394)" fill="#fff"/>
    <path id="Path_26015" data-name="Path 26015" d="M233.6,787.921l-.843-.276a8.1,8.1,0,0,1-1.059,2.526l.786.41a8.948,8.948,0,0,0,1.116-2.659" transform="translate(6.903 5.375)" fill="#fff"/>
    <path id="Path_26016" data-name="Path 26016" d="M231.7,783.461a8.077,8.077,0,0,1,1.059,2.526l.843-.276a8.945,8.945,0,0,0-1.116-2.659Z" transform="translate(6.903 3.394)" fill="#fff"/>
    <path id="Path_26017" data-name="Path 26017" d="M227.3,790.462a.082.082,0,0,0-.077-.059.083.083,0,0,0-.077.059s-.882,2.478-1.064,3.155a9.507,9.507,0,0,0,.053,1.008,40.107,40.107,0,0,0,1.01,5.926c.014.058.042.072.079.073s.066-.016.079-.073a40.213,40.213,0,0,0,1.01-5.926,9.148,9.148,0,0,0,.052-1.008c-.182-.677-1.064-3.155-1.064-3.155" transform="translate(4.474 6.564)" fill="#fff"/>
    <path id="Path_26018" data-name="Path 26018" d="M222.7,787.854c.677-.182,3.153-1.063,3.153-1.063a.08.08,0,0,0,.06-.077.081.081,0,0,0-.06-.076s-2.476-.882-3.153-1.063a9.141,9.141,0,0,0-1.008.052,40.324,40.324,0,0,0-5.926,1.01c-.059.014-.073.043-.074.079s.016.066.074.08a40.1,40.1,0,0,0,5.926,1.01,9.141,9.141,0,0,0,1.008.052" transform="translate(0 4.474)" fill="#fff"/>
    <path id="Path_26019" data-name="Path 26019" d="M241.06,786.63a40.129,40.129,0,0,0-5.927-1.01,9.138,9.138,0,0,0-1.008-.052c-.677.18-3.153,1.063-3.153,1.063a.083.083,0,0,0-.06.077.081.081,0,0,0,.06.076s2.476.882,3.153,1.063a9.108,9.108,0,0,0,1.008-.052,40.137,40.137,0,0,0,5.927-1.01c.058-.014.07-.042.072-.079s-.014-.066-.072-.08" transform="translate(6.563 4.478)" fill="#fff"/>
    <path id="Path_26020" data-name="Path 26020" d="M222.155,783.182c.418.528.588.7.588.7.537.354,3.072,1.529,3.072,1.529a.081.081,0,0,0,.1-.013.083.083,0,0,0,.011-.1s-1.175-2.533-1.527-3.07c0,0-.17-.17-.7-.588a17.952,17.952,0,0,0-3.915-2.488c-.06-.023-.079-.02-.107.005s-.029.046,0,.107a17.967,17.967,0,0,0,2.486,3.915" transform="translate(1.698 1.703)" fill="#fff"/>
    <path id="Path_26021" data-name="Path 26021" d="M233.481,791.434c-.418-.528-.588-.7-.588-.7-.537-.354-3.07-1.529-3.07-1.529a.079.079,0,0,0-.109.109s1.175,2.533,1.527,3.07a8.838,8.838,0,0,0,.7.588,17.914,17.914,0,0,0,3.915,2.486c.06.024.079.021.107,0s.029-.046,0-.107a17.967,17.967,0,0,0-2.486-3.915" transform="translate(6.056 6.055)" fill="#fff"/>
    <path id="Path_26022" data-name="Path 26022" d="M225.9,789.228a.081.081,0,0,0-.1-.013s-2.533,1.177-3.072,1.529c0,0-.17.17-.588.7a17.933,17.933,0,0,0-2.486,3.915c-.024.062-.021.08,0,.107s.046.029.107,0a17.93,17.93,0,0,0,3.915-2.486,8.861,8.861,0,0,0,.7-.588c.352-.537,1.527-3.07,1.527-3.07a.083.083,0,0,0-.011-.1" transform="translate(1.707 6.047)" fill="#fff"/>
    <path id="Path_26023" data-name="Path 26023" d="M229.738,785.391a.081.081,0,0,0,.1.013s2.533-1.175,3.072-1.529c0,0,.17-.171.588-.7a17.932,17.932,0,0,0,2.486-3.915c.024-.061.02-.08,0-.107s-.047-.029-.107,0a17.931,17.931,0,0,0-3.915,2.486,8.894,8.894,0,0,0-.7.588c-.352.537-1.527,3.07-1.527,3.07a.083.083,0,0,0,.012.1" transform="translate(6.043 1.709)" fill="#fff"/>
    <path id="Path_26024" data-name="Path 26024" d="M249.75,787.831a.267.267,0,0,0-.233-.167,7.266,7.266,0,0,0-1.832,0,.275.275,0,0,0-.231.155,32.774,32.774,0,0,0-3.523,8.671.168.168,0,0,0,.18.232h1.819a.2.2,0,0,0,.219-.18c.115-.452.232-.9.361-1.356h4.181c.129.452.245.9.361,1.356a.2.2,0,0,0,.22.18h1.817a.169.169,0,0,0,.182-.232,33.2,33.2,0,0,0-3.523-8.658m-2.71,5.612a26.306,26.306,0,0,1,1.562-3.753,26.308,26.308,0,0,1,1.56,3.753Z" transform="translate(12.201 5.357)" fill="#fff"/>
    <path id="Path_26025" data-name="Path 26025" d="M255.44,787.658h-3.819a.19.19,0,0,0-.206.208v8.618a.19.19,0,0,0,.206.206h3.819c3.019,0,4.889-1.922,4.889-4.619,0-2.567-1.871-4.413-4.889-4.413m0,7.187h-1.9V789.5h1.9a2.456,2.456,0,0,1,2.71,2.567,2.538,2.538,0,0,1-2.71,2.774" transform="translate(15.414 5.387)" fill="#fff"/>
    <path id="Path_26026" data-name="Path 26026" d="M265,787.658h-3.819a.19.19,0,0,0-.206.208v8.618a.19.19,0,0,0,.206.206H262.9a.19.19,0,0,0,.206-.206V794.2h1.613c2.4,0,4.1-1.187,4.1-3.328,0-2.091-1.381-3.213-3.819-3.213m-.271,4.735h-1.626v-2.928h1.755c1.251,0,1.832.465,1.832,1.407s-.581,1.522-1.962,1.522" transform="translate(19.54 5.387)" fill="#fff"/>
    <path id="Path_26027" data-name="Path 26027" d="M272.211,787.528a4.712,4.712,0,1,0,4.891,4.709,4.533,4.533,0,0,0-4.891-4.709m0,7.573a2.869,2.869,0,1,1,2.71-2.864,2.584,2.584,0,0,1-2.71,2.864" transform="translate(22.268 5.324)" fill="#fff"/>
    <path id="Path_26028" data-name="Path 26028" d="M281.02,793.347a2.6,2.6,0,0,0,1.934-2.722c0-1.9-1.419-2.967-3.909-2.967h-3.47a.19.19,0,0,0-.208.206v8.62a.19.19,0,0,0,.208.206h1.715a.19.19,0,0,0,.208-.206v-2.542h1.637a9.213,9.213,0,0,1,1.859,2.594.251.251,0,0,0,.245.155h1.793c.155,0,.232-.1.155-.245a10.338,10.338,0,0,0-2.167-3.1m-1.987-1.213H277.5v-2.67h1.431c1.42,0,1.9.465,1.9,1.343,0,.85-.631,1.328-1.792,1.328" transform="translate(25.745 5.388)" fill="#fff"/>
    <path id="Path_26029" data-name="Path 26029" d="M289.549,787.655h-7.934a.191.191,0,0,0-.208.206v1.394a.191.191,0,0,0,.208.206h2.774v7.019a.19.19,0,0,0,.206.206h1.716a.19.19,0,0,0,.206-.206v-7.019h1.793c1.278,0,1.562-.633,1.458-1.612a.2.2,0,0,0-.22-.195" transform="translate(28.35 5.39)" fill="#fff"/>
    <path id="Path_26030" data-name="Path 26030" d="M292.34,791.41l-.916-.283c-1.058-.322-1.406-.543-1.406-1.045s.464-.774,1.264-.774a12.775,12.775,0,0,1,2.025.284,1.039,1.039,0,0,0,1.265-.865l.09-.476a.211.211,0,0,0-.143-.26,10.069,10.069,0,0,0-3.109-.464c-2.154,0-3.508,1.058-3.508,2.606,0,1.613,1.238,2.322,2.618,2.761l1.407.451c.618.195.929.388.916.877s-.555.787-1.729.787a5.188,5.188,0,0,1-2.8-.839c-.129-.09-.232-.052-.258.115l-.246,1.729a.21.21,0,0,0,.129.245,7.335,7.335,0,0,0,2.917.684c2.9,0,4.115-1.148,4.115-2.838,0-1.457-.851-2.141-2.632-2.7" transform="translate(31.134 5.326)" fill="#fff"/>
    <path id="Path_26031" data-name="Path 26031" d="M304.4,791.523h-3.368a.19.19,0,0,0-.206.208v1.457a.19.19,0,0,0,.206.206h1.7V794.5a3.985,3.985,0,0,1-1.948.451,2.527,2.527,0,0,1-2.71-2.735,2.668,2.668,0,0,1,2.928-2.8,9.324,9.324,0,0,1,1.407.115c.813.13,1.264-.077,1.393-1.006l.051-.387a.207.207,0,0,0-.142-.246,7.748,7.748,0,0,0-2.594-.386c-3.212,0-5.226,1.962-5.226,4.709a4.533,4.533,0,0,0,4.891,4.709,6.145,6.145,0,0,0,3.7-1.2.339.339,0,0,0,.117-.257V791.73a.19.19,0,0,0-.206-.208" transform="translate(34.597 5.342)" fill="#fff"/>
    <path id="Path_26032" data-name="Path 26032" d="M309.028,793.348a2.6,2.6,0,0,0,1.935-2.722c0-1.9-1.418-2.967-3.909-2.967h-3.471a.19.19,0,0,0-.206.206v8.619a.19.19,0,0,0,.206.206H305.3a.19.19,0,0,0,.206-.206v-2.542h1.638A9.207,9.207,0,0,1,309,796.536a.253.253,0,0,0,.245.155h1.793c.155,0,.232-.1.155-.245a10.343,10.343,0,0,0-2.167-3.1m-1.987-1.213h-1.536v-2.67h1.433c1.418,0,1.9.465,1.9,1.343,0,.85-.633,1.328-1.794,1.328" transform="translate(37.827 5.387)" fill="#fff"/>
    <path id="Path_26033" data-name="Path 26033" d="M314.493,787.528a4.712,4.712,0,1,0,4.889,4.709,4.533,4.533,0,0,0-4.889-4.709m0,7.573a2.869,2.869,0,1,1,2.708-2.864,2.584,2.584,0,0,1-2.708,2.864" transform="translate(40.505 5.324)" fill="#fff"/>
    <path id="Path_26034" data-name="Path 26034" d="M325.7,787.682h-1.69a.19.19,0,0,0-.206.206v4.786c0,1.575-.721,2.362-2.038,2.362-1.354,0-2.038-.839-2.038-2.362v-3.637c0-1.045-.451-1.42-1.317-1.42a4.437,4.437,0,0,0-.618.039.2.2,0,0,0-.195.22v4.877c0,2.76,1.536,4.154,4.155,4.154s4.154-1.394,4.154-4.154v-4.865a.19.19,0,0,0-.206-.206" transform="translate(43.965 5.364)" fill="#fff"/>
    <path id="Path_26035" data-name="Path 26035" d="M328.832,787.658h-3.819a.191.191,0,0,0-.208.208v8.618a.191.191,0,0,0,.208.206h1.716a.19.19,0,0,0,.206-.206V794.2h1.613c2.4,0,4.1-1.187,4.1-3.328,0-2.091-1.38-3.213-3.819-3.213m-.272,4.735h-1.625v-2.928h1.755c1.251,0,1.832.465,1.832,1.407s-.581,1.521-1.962,1.521" transform="translate(47.069 5.387)" fill="#fff"/>
    <path id="Path_26036" data-name="Path 26036" d="M246.581,784.025a.776.776,0,1,0-.774.723.719.719,0,0,0,.774-.723" transform="translate(12.67 4.409)" fill="#fff"/>
    <path id="Path_26037" data-name="Path 26037" d="M247.811,784.649a.724.724,0,1,0-.229.529.724.724,0,0,0,.229-.529" transform="translate(13.185 3.785)" fill="#fff"/>
    <path id="Path_26038" data-name="Path 26038" d="M253.942,783.449a.9.9,0,1,0-.9.826.829.829,0,0,0,.9-.826" transform="translate(15.715 3.209)" fill="#fff"/>
    <path id="Path_26039" data-name="Path 26039" d="M263.766,778.955a5.177,5.177,0,0,0-2.406.546c.022-1.476.032-2.229.032-2.86a.14.14,0,0,0-.165-.155,6.184,6.184,0,0,0-.754.083.847.847,0,0,0-.784.9c0,1.258.031,3.2.051,5.357h-1.322c-.743,0-.981-.248-.981-.867l.072-2.828a.151.151,0,0,0-.175-.166,6.349,6.349,0,0,0-.764.083.833.833,0,0,0-.784.9l.083,2.014c.02.62-.208.867-.889.867h-1.434v-3.705a.152.152,0,0,0-.165-.166H251.4c-1.7,0-2.612.578-2.612,2.519,0,.258.021,1.064.021,1.416,0,1.238-.341,1.692-1.6,1.692-1.218,0-1.642-.412-1.642-1.889v-.887a.151.151,0,0,0-.165-.165H244.06a.152.152,0,0,0-.166.165v.774c0,2.705,1.26,3.706,3.295,3.706,1.981,0,3.292-.888,3.292-3.541v-1.218c0-.618.228-.867.857-.867h.537v3.707a.152.152,0,0,0,.166.164H254.9a2.527,2.527,0,0,0,1.941-.608c.26.444.723.608,1.549.608h8.776a.151.151,0,0,0,.165-.164v-2.271c0-2.107-1.217-3.139-3.561-3.139m1.889,3.872h-4.347l.031-1.838a7.6,7.6,0,0,1,2.312-.382c2,0,2,1.1,2,1.58Z" transform="translate(12.167 0.578)" fill="#fff"/>
    <path id="Path_26040" data-name="Path 26040" d="M257.691,778.144a.829.829,0,1,0-.9-.826.829.829,0,0,0,.9.826" transform="translate(17.726 0.564)" fill="#fff"/>
    <path id="Path_26041" data-name="Path 26041" d="M268.541,783.449a.9.9,0,1,0-.9.826.829.829,0,0,0,.9-.826" transform="translate(22.019 3.209)" fill="#fff"/>
    <path id="Path_26042" data-name="Path 26042" d="M271.261,781.224l.072-2.828a.151.151,0,0,0-.176-.166,6.337,6.337,0,0,0-.763.083.834.834,0,0,0-.786.9l.083,2.014c.022.62-.206.867-.887.867h-1.436v-3.706a.152.152,0,0,0-.165-.166h-2.922a2.776,2.776,0,0,0-3,2.808,2.744,2.744,0,0,0,3,2.767h1.477c0,.62-.206.878-.887.878h-2.737c-.113,0-.165.073-.144.186l.288,1.372a.161.161,0,0,0,.175.146h2.335c1.662,0,2.581-.58,2.581-2.572v-.01h1.351c1.662,0,2.489-.578,2.541-2.571m-5.553.867h-1.426c-.969,0-1.331-.485-1.331-1.064s.362-1.1,1.331-1.1h1.426Z" transform="translate(19.661 1.314)" fill="#fff"/>
    <path id="Path_26043" data-name="Path 26043" d="M269.475,777.257h1.8a.151.151,0,0,0,.165-.165v-.6a.151.151,0,0,0-.165-.165h-.99c0-.125.082-.321.412-.321h.248a.153.153,0,0,0,.166-.166v-.351a.152.152,0,0,0-.166-.165h-.454a1.071,1.071,0,0,0-1.178,1v.763a.152.152,0,0,0,.166.165" transform="translate(23.129 0.066)" fill="#fff"/>
    <path id="Path_26044" data-name="Path 26044" d="M269.457,778.377c0,1.507.042,2.921.072,5.626a.151.151,0,0,0,.166.165h1.2a.155.155,0,0,0,.166-.174c.083-4.317.1-5.472.1-6.587,0-.031-.062-.053-.165-.042-.249.02-.527.052-.754.083a.85.85,0,0,0-.784.929" transform="translate(23.189 0.941)" fill="#fff"/>
    <path id="Path_26045" data-name="Path 26045" d="M273.535,779.783h1.8a.152.152,0,0,0,.166-.165v-.6a.152.152,0,0,0-.166-.165h-.99c0-.124.083-.321.412-.321H275a.152.152,0,0,0,.166-.165v-.351a.153.153,0,0,0-.166-.166h-.454a1.072,1.072,0,0,0-1.178,1v.764a.152.152,0,0,0,.166.165" transform="translate(24.881 1.155)" fill="#fff"/>
    <path id="Path_26046" data-name="Path 26046" d="M282.675,778.072a.829.829,0,1,0-.9-.826.829.829,0,0,0,.9.826" transform="translate(28.508 0.533)" fill="#fff"/>
    <path id="Path_26047" data-name="Path 26047" d="M287.036,781.224l.072-2.828a.151.151,0,0,0-.176-.166,6.327,6.327,0,0,0-.763.083.833.833,0,0,0-.784.9l.082,2.012c.021.62-.206.867-.887.867h-1.434v-3.706a.152.152,0,0,0-.165-.166H281c-1.7,0-2.612.578-2.612,2.519,0,.26.021,1.064.021,1.414,0,1.239-.341,1.693-1.6,1.693-1.218,0-1.642-.412-1.642-1.89v-.888A.153.153,0,0,0,275,780.9h-1.343a.153.153,0,0,0-.166.166v.774c0,2.705,1.26,3.706,3.293,3.706,1.983,0,3.294-.887,3.294-3.541V780.79c0-.618.228-.865.857-.865h.537v3.706a.152.152,0,0,0,.166.165H284.5c1.662,0,2.489-.578,2.541-2.571" transform="translate(24.934 1.314)" fill="#fff"/>
    <path id="Path_26048" data-name="Path 26048" d="M284.4,784.543h1.2a.154.154,0,0,0,.165-.175c.083-5.545.1-6.721.1-7.836,0-.031-.062-.042-.165-.031a6.208,6.208,0,0,0-.754.083.847.847,0,0,0-.784.9c0,1.559.042,4.149.072,6.9a.152.152,0,0,0,.166.165" transform="translate(29.532 0.566)" fill="#fff"/>
    <path id="Path_26049" data-name="Path 26049" d="M297.594,779.2a2.866,2.866,0,0,0-2.9,2.054l-.02.062c-.2.588-.258.774-1,.774h-1.218v-3.706a.152.152,0,0,0-.165-.166h-2.923a2.776,2.776,0,0,0-3,2.808,2.744,2.744,0,0,0,3,2.767h1.477c0,.62-.206.878-.887.878h-2.736c-.113,0-.166.073-.144.186l.288,1.372a.16.16,0,0,0,.175.146h2.335c1.662,0,2.581-.578,2.581-2.572v-.01H293.7a2.279,2.279,0,0,0,1.26-.247,3,3,0,0,0,2.634,1.385,2.868,2.868,0,1,0,0-5.73m-6.8,2.89h-1.426c-.97,0-1.331-.485-1.331-1.064s.361-1.105,1.331-1.105h1.426Zm6.8,1.137c-.971,0-1.333-.538-1.333-1.156s.362-1.167,1.333-1.167,1.331.547,1.331,1.167-.361,1.156-1.331,1.156" transform="translate(30.481 1.314)" fill="#fff"/>
    <path id="Path_26050" data-name="Path 26050" d="M301.964,777.906a.724.724,0,1,0-.544-.193.724.724,0,0,0,.544.193" transform="translate(36.876 0.564)" fill="#fff"/>
    <path id="Path_26051" data-name="Path 26051" d="M300.744,777.906a.719.719,0,1,0-.545-.192.724.724,0,0,0,.545.192" transform="translate(36.351 0.565)" fill="#fff"/>
    <path id="Path_26052" data-name="Path 26052" d="M301.727,784.038h11.117a.152.152,0,0,0,.166-.165V782.5a.153.153,0,0,0-.166-.166h-3.953a2.931,2.931,0,0,1-.144-.794c0-1.168.547-1.529,1.456-1.529.62,0,1.208.135,1.549.135.608,0,.837-.424.929-1.24a.173.173,0,0,0-.124-.2,6.742,6.742,0,0,0-2.353-.4c-2.262,0-3.129,1.291-3.129,2.931a5.086,5.086,0,0,0,.135,1.095H305l-.01-2.735.042-1.786a.151.151,0,0,0-.175-.166,6.35,6.35,0,0,0-.764.083.819.819,0,0,0-.774.733h-1.632a2.755,2.755,0,0,0-2.818,2.788,2.691,2.691,0,0,0,2.86,2.787m-.042-3.872h1.632l.01,2.168h-1.353c-1.074,0-1.434-.392-1.434-1.083a1.039,1.039,0,0,1,1.145-1.085" transform="translate(35.874 1.071)" fill="#fff"/>
    <path id="Path_26053" data-name="Path 26053" d="M321.931,783.593a.9.9,0,1,0,.9-.826.829.829,0,0,0-.9.826" transform="translate(45.823 3.271)" fill="#fff"/>
    <path id="Path_26054" data-name="Path 26054" d="M323.395,783.6a2.279,2.279,0,0,0,1.26.247h7.658a2.282,2.282,0,0,0,1.26-.247,2.992,2.992,0,0,0,2.632,1.385,2.868,2.868,0,1,0,0-5.73,2.865,2.865,0,0,0-2.9,2.054l-.02.062c-.2.588-.258.774-1,.774h-1.165c.031-.341.051-.671.051-.939,0-2.024-1.2-3.087-3.541-3.087a6.749,6.749,0,0,0-2.355.4.173.173,0,0,0-.123.2c.093.816.319,1.24.929,1.24.341,0,.929-.135,1.549-.135,1.012,0,1.869.361,1.869,1.477a5.289,5.289,0,0,1-.093.846h-4.717c-.723,0-.8-.176-.981-.723a3.071,3.071,0,0,0-5.833-.113l-.022.062c-.2.588-.258.774-1,.774h-1.218v-3.706a.152.152,0,0,0-.165-.166h-2.922a2.777,2.777,0,0,0-3,2.808,2.745,2.745,0,0,0,3,2.767h1.477c0,.62-.206.878-.887.878H310.4c-.113,0-.165.073-.144.186l.288,1.373a.161.161,0,0,0,.176.146h2.333c1.662,0,2.581-.578,2.581-2.572v-.01h1.248a2.282,2.282,0,0,0,1.26-.247,2.994,2.994,0,0,0,2.632,1.385A2.943,2.943,0,0,0,323.4,783.6m12.809-2.642c.97,0,1.333.547,1.333,1.167s-.362,1.156-1.333,1.156-1.331-.538-1.331-1.156.361-1.167,1.331-1.167m-22.234,1.186h-1.426c-.969,0-1.331-.485-1.331-1.064s.362-1.1,1.331-1.1h1.426Zm6.8,1.137c-.969,0-1.331-.538-1.331-1.156s.362-1.167,1.331-1.167,1.333.547,1.333,1.167-.362,1.156-1.333,1.156" transform="translate(40.478 1.263)" fill="#fff"/>
  </g>
</svg>
