<svg xmlns="http://www.w3.org/2000/svg" width="145.764" height="24" viewBox="0 0 145.764 24">
  <g id="Group_159856" data-name="Group 159856" transform="translate(1.565 -1402.095)">
    <g id="Group_156635" data-name="Group 156635" transform="translate(-1.565 1402.095)">
      <g id="Group_156633" data-name="Group 156633" transform="translate(36.959 15.048)">
        <path id="Path_6197" data-name="Path 6197" d="M24.85,1363.851h1.569l2.551,3.965,2.552-3.965h1.569v8.385H31.617v-6.014l-2.647,3.954h-.047l-2.624-3.929v5.989H24.85Z" transform="translate(-24.85 -1363.456)" fill="#fff"/>
        <path id="Path_6198" data-name="Path 6198" d="M59.961,1368v-.024a4.272,4.272,0,0,1,4.324-4.336,4.526,4.526,0,0,1,3.223,1.138l-.933,1.113a3.286,3.286,0,0,0-2.349-.9,2.837,2.837,0,0,0-2.719,2.959v.023a2.8,2.8,0,0,0,2.852,2.994,3.417,3.417,0,0,0,2.024-.635v-1.57H64.237v-1.281h3.569v3.522a5.336,5.336,0,0,1-3.5,1.305A4.16,4.16,0,0,1,59.961,1368" transform="translate(-12.46 -1363.531)" fill="#fff"/>
        <path id="Path_6199" data-name="Path 6199" d="M45.558,1371.443a4.344,4.344,0,0,1-2.552.79,4.257,4.257,0,0,1-4.374-4.313v-.024a4.385,4.385,0,0,1,8.769-.023v.023a4.254,4.254,0,0,1-.851,2.576l.959.814-.947,1.054Zm-1.092-.971-1.437-1.222.947-1.078,1.449,1.318a2.863,2.863,0,0,0,.43-1.569v-.024a2.871,2.871,0,0,0-2.849-2.982,2.834,2.834,0,0,0-2.829,2.959v.023a2.872,2.872,0,0,0,2.852,2.982,2.658,2.658,0,0,0,1.437-.406" transform="translate(-19.986 -1363.559)" fill="#fff"/>
        <path id="Path_6200" data-name="Path 6200" d="M78.834,1363.845h6.224v1.319H80.309v2.182h4.209v1.32H80.309v2.254h4.809v1.32H78.834Z" transform="translate(-5.8 -1363.458)" fill="#fff"/>
        <path id="Path_6201" data-name="Path 6201" d="M97.047,1363.8h1.368l3.693,8.454H100.55l-.852-2.026H95.728l-.863,2.026h-1.51Zm2.11,5.119-1.45-3.356-1.439,3.356Z" transform="translate(-0.676 -1363.474)" fill="#fff"/>
        <path id="Path_6202" data-name="Path 6202" d="M35.671,1363.8H37.04l3.692,8.454H39.174l-.851-2.026H34.353l-.863,2.026H31.979Zm2.112,5.119-1.45-3.356-1.441,3.356Z" transform="translate(-22.334 -1363.474)" fill="#fff"/>
        <path id="Path_6203" data-name="Path 6203" d="M70.4,1363.8h1.369l3.692,8.454H73.9l-.851-2.026H69.084l-.863,2.026H66.71Zm2.11,5.119-1.45-3.356-1.439,3.356Z" transform="translate(-10.079 -1363.474)" fill="#fff"/>
        <path id="Path_6204" data-name="Path 6204" d="M54.361,1363.8H55.73l3.692,8.454H57.864l-.851-2.026H53.043l-.863,2.026H50.669Zm2.11,5.119-1.45-3.356-1.439,3.356Z" transform="translate(-15.739 -1363.474)" fill="#fff"/>
        <path id="Path_6205" data-name="Path 6205" d="M48.493,1365.212H45.83v-1.367h6.812v1.367H49.98v7.027H48.493Z" transform="translate(-17.447 -1363.458)" fill="#fff"/>
        <path id="Path_6206" data-name="Path 6206" d="M75.422,1365.212H72.759v-1.367h6.812v1.367H76.91v7.027H75.422Z" transform="translate(-7.944 -1363.458)" fill="#fff"/>
        <path id="Path_6207" data-name="Path 6207" d="M102.607,1368.94l-3.3-5.035h1.721l2.328,3.681,2.351-3.681h1.674l-3.3,5v3.313h-1.473Z" transform="translate(1.424 -1363.437)" fill="#fff"/>
        <path id="Path_6208" data-name="Path 6208" d="M87.412,1372.26h1.271l2.062-6.03,2.062,6.03h1.27L97,1363.808H95.457l-2,6.223-2.062-6.246H90.146l-2.062,6.246-2-6.223H84.486Z" transform="translate(-3.806 -1363.48)" fill="#fff"/>
      </g>
      <path id="Path_6209" data-name="Path 6209" d="M-2.469,1354.361v9.124H21.716v-.024a36.545,36.545,0,0,0-24.185-9.1" transform="translate(2.469 -1351.757)" fill="#fff"/>
      <path id="Path_6210" data-name="Path 6210" d="M26.552,1372.555v-9.122H2.365v.023a36.548,36.548,0,0,0,24.187,9.1" transform="translate(4.175 -1348.555)" fill="#fff"/>
      <g id="Group_156634" data-name="Group 156634" transform="translate(36.027)">
        <rect id="Rectangle_141423" data-name="Rectangle 141423" width="1.33" height="9.232" transform="translate(94.636 0.004)" fill="#fff"/>
        <rect id="Rectangle_141424" data-name="Rectangle 141424" width="1.33" height="9.232" transform="translate(61.896 0.004)" fill="#fff"/>
        <path id="Path_6211" data-name="Path 6211" d="M106.724,1354.957v4.692h-5.406v-4.662l-.092-.016c-.345-.058-.666-.1-.954-.135a9.118,9.118,0,0,0-1.011-.051,3.244,3.244,0,0,0-1.319.257,2.9,2.9,0,0,0-.985.7,3.041,3.041,0,0,0-.614,1.013,3.48,3.48,0,0,0-.21,1.205,3.576,3.576,0,0,0,.16,1.059,2.55,2.55,0,0,0,.515.925,2.608,2.608,0,0,0,.919.655,3.367,3.367,0,0,0,1.362.249h.894c-.065,1.169-.8,1.737-2.236,1.737a5.762,5.762,0,0,1-.852-.066c-.284-.045-.57-.1-.847-.165l-.146-.034.1,1.455.087.015c.206.034.455.064.743.088.31.026.675.037.9.037a3.983,3.983,0,0,0,1.621-.291,3.149,3.149,0,0,0,1.123-.755,2.9,2.9,0,0,0,.614-1.023,4.1,4.1,0,0,0,.21-1h6.754v-5.886Zm-6.736,4.692h-.739a1.654,1.654,0,0,1-1.278-.481,2.107,2.107,0,0,1-.446-1.459,1.877,1.877,0,0,1,.157-.794,1.828,1.828,0,0,1,.388-.559,1.542,1.542,0,0,1,.518-.329,1.524,1.524,0,0,1,.538-.111c.047,0,.111,0,.192.007l.265.012c.091,0,.18.012.267.024.05.007.1.014.138.023Z" transform="translate(1.154 -1351.608)" fill="#fff"/>
        <path id="Path_6212" data-name="Path 6212" d="M78.9,1359.646v-4.67l-.092-.016c-.333-.057-.653-.1-.95-.137a9.022,9.022,0,0,0-1.005-.05,3.371,3.371,0,0,0-1.25.229,3.018,3.018,0,0,0-1,.645,2.924,2.924,0,0,0-.66,1,3.648,3.648,0,0,0-.045,2.461,2.5,2.5,0,0,0,.574.92,2.59,2.59,0,0,0,.939.6,3.571,3.571,0,0,0,1.266.211h2.841v.008h19.9v-5.886h-1.33v4.691Zm-1.329,0h-.744a1.644,1.644,0,0,1-1.288-.488,2.139,2.139,0,0,1-.441-1.457,1.991,1.991,0,0,1,.129-.728,1.866,1.866,0,0,1,.344-.567,1.52,1.52,0,0,1,1.135-.5c.047,0,.111,0,.191.006l.267.012c.091,0,.18.014.268.025.05.007.1.015.141.023Z" transform="translate(-6.675 -1351.611)" fill="#fff"/>
        <path id="Path_6213" data-name="Path 6213" d="M82.527,1360.478H77.71a2.927,2.927,0,0,0,.407-1.5v-.021a3.037,3.037,0,0,0-6.069-.056v.024h.024l-.026.028v.048a2.464,2.464,0,0,1-.1.693,1.291,1.291,0,0,1-.254.478.806.806,0,0,1-.346.234,1.354,1.354,0,0,1-.421.068H66.471a3.207,3.207,0,0,0,.414-.752,3.682,3.682,0,0,0,.233-1.334,3.809,3.809,0,0,0-.173-1.152,2.782,2.782,0,0,0-.521-.962,2.5,2.5,0,0,0-.873-.659,2.944,2.944,0,0,0-1.227-.241,3.033,3.033,0,0,0-1.3.268,2.816,2.816,0,0,0-.948.708,3.052,3.052,0,0,0-.574,1,3.481,3.481,0,0,0-.193,1.143,3.409,3.409,0,0,0,.222,1.3,3.243,3.243,0,0,0,.376.677H58.724v-1.956a3.174,3.174,0,0,0-.662-2.179,2.306,2.306,0,0,0-1.8-.74,2.641,2.641,0,0,0-1.231.315,4.793,4.793,0,0,0-1.108.806,7.02,7.02,0,0,0-.924,1.1c-.142.21-.273.421-.388.626.005-.061.012-.123.019-.191.019-.2.038-.44.055-.737s.026-.587.026-.886v-4.2h-1.33v8.041H30.816a2.8,2.8,0,0,1-.981-.165,3.179,3.179,0,0,1-.733-.386,3.517,3.517,0,0,0,.948-1.079,2.534,2.534,0,0,0,.336-1.188,2.3,2.3,0,0,0-.169-.88,2.014,2.014,0,0,0-.51-.719,2.456,2.456,0,0,0-.837-.482,3.552,3.552,0,0,0-1.163-.173,4.431,4.431,0,0,0-1.6.314,8.16,8.16,0,0,0-1.54.79l-.032.021-.176,1.279.055.027c.317.15.59.291.814.423a4.583,4.583,0,0,1,.622.429,6.261,6.261,0,0,1,.568.544c.172.188.367.411.579.666-.287.139-.586.3-.892.49a7.172,7.172,0,0,0-.946.679,3.769,3.769,0,0,0-.712.789,1.6,1.6,0,0,0-.284.893,2.113,2.113,0,0,0,.176.882,1.523,1.523,0,0,0,.6.651,3.227,3.227,0,0,0,1.081.38,9.041,9.041,0,0,0,1.663.127c.329,0,.663-.015.989-.043a9.337,9.337,0,0,0,.955-.131l.062-.012.1-1.154-.107.019c-.149.025-.313.048-.49.068s-.354.038-.533.05-.354.023-.528.033-.336.012-.483.012a4.431,4.431,0,0,1-1.609-.228.733.733,0,0,1-.515-.722.789.789,0,0,1,.172-.46,2.6,2.6,0,0,1,.507-.506,6.089,6.089,0,0,1,.782-.514c.29-.162.6-.321.94-.471a4.472,4.472,0,0,0,1.278.708,4.718,4.718,0,0,0,1.525.231h1.067v0H70.865l.024-.005h0a2.006,2.006,0,0,0,1.145-.343,1.813,1.813,0,0,0,.537-.639,2.98,2.98,0,0,0,2.495,1.263,3.184,3.184,0,0,0,1.3-.275h7.492v-9.232h-1.33Zm-53.77-1.91a3.7,3.7,0,0,1-.609.721,7.755,7.755,0,0,0-1.195-1.323,3.463,3.463,0,0,0-1.2-.687,5.337,5.337,0,0,1,.8-.429,2.61,2.61,0,0,1,1.047-.207,1.64,1.64,0,0,1,1.046.308.983.983,0,0,1,.38.823A1.492,1.492,0,0,1,28.757,1358.567Zm28.577,1.91H52.762a9.216,9.216,0,0,1,.676-1.439,6.859,6.859,0,0,1,.871-1.2,4.01,4.01,0,0,1,.916-.758,1.693,1.693,0,0,1,.827-.257,1.209,1.209,0,0,1,.591.134,1.111,1.111,0,0,1,.392.371,1.746,1.746,0,0,1,.226.587,3.932,3.932,0,0,1,.072.775Zm7.993-.522a1.254,1.254,0,0,1-.862.523l-.284.042-.311-.042a1.043,1.043,0,0,1-.365-.146,1.462,1.462,0,0,1-.445-.464,2.177,2.177,0,0,1-.268-.654,3.066,3.066,0,0,1-.088-.732,3.136,3.136,0,0,1,.088-.762,1.834,1.834,0,0,1,.271-.618,1.4,1.4,0,0,1,.464-.421,1.314,1.314,0,0,1,.655-.157,1.408,1.408,0,0,1,.7.164,1.472,1.472,0,0,1,.483.434,1.816,1.816,0,0,1,.277.624,2.99,2.99,0,0,1,.088.722A2.545,2.545,0,0,1,65.326,1359.956Zm8.063-.976v-.021a1.668,1.668,0,0,1,1.676-1.771,1.712,1.712,0,0,1,1.707,1.792V1359a1.674,1.674,0,0,1-1.686,1.772A1.729,1.729,0,0,1,73.389,1358.98Z" transform="translate(-24.161 -1352.436)" fill="#fff"/>
        <path id="Path_6214" data-name="Path 6214" d="M103.992,1359.919a.667.667,0,0,0-.5.214.7.7,0,0,0-.2.5.74.74,0,0,0,.2.518.66.66,0,0,0,.5.219.628.628,0,0,0,.5-.222.768.768,0,0,0,.185-.515.731.731,0,0,0-.187-.5A.635.635,0,0,0,103.992,1359.919Z" transform="translate(3.761 -1349.796)" fill="#fff"/>
        <path id="Path_6215" data-name="Path 6215" d="M91.652,1359.919a.669.669,0,0,0-.5.214.71.71,0,0,0-.2.5.746.746,0,0,0,.2.518.662.662,0,0,0,.5.219.626.626,0,0,0,.5-.222.768.768,0,0,0,.185-.515.736.736,0,0,0-.185-.5A.638.638,0,0,0,91.652,1359.919Z" transform="translate(-0.594 -1349.796)" fill="#fff"/>
        <path id="Path_6216" data-name="Path 6216" d="M76.548,1354.618a.709.709,0,0,0,.548-.237.784.784,0,0,0,.208-.544.746.746,0,0,0-.211-.534.725.725,0,0,0-.545-.223.766.766,0,0,0-.557.222.73.73,0,0,0-.223.536.763.763,0,0,0,.222.547A.745.745,0,0,0,76.548,1354.618Z" transform="translate(-5.951 -1352.209)" fill="#fff"/>
        <path id="Path_6217" data-name="Path 6217" d="M75.172,1354.617a.742.742,0,0,0,.621-.308.752.752,0,0,0,.146-.4.763.763,0,0,0-.215-.6.781.781,0,0,0-1.1,0,.787.787,0,0,0,0,1.081A.74.74,0,0,0,75.172,1354.617Z" transform="translate(-6.431 -1352.209)" fill="#fff"/>
        <path id="Path_6218" data-name="Path 6218" d="M54.646,1354.661a.708.708,0,0,0,.548-.235.782.782,0,0,0,.21-.544.746.746,0,0,0-.211-.534.726.726,0,0,0-.547-.223.768.768,0,0,0-.556.22.727.727,0,0,0-.223.537.763.763,0,0,0,.222.545A.744.744,0,0,0,54.646,1354.661Z" transform="translate(-13.679 -1352.193)" fill="#fff"/>
        <path id="Path_6219" data-name="Path 6219" d="M53.272,1354.66a.74.74,0,0,0,.62-.307.751.751,0,0,0,.147-.4.763.763,0,0,0-.215-.6.781.781,0,0,0-1.1,0,.781.781,0,0,0,0,1.08A.733.733,0,0,0,53.272,1354.66Z" transform="translate(-14.16 -1352.193)" fill="#fff"/>
      </g>
    </g>
  </g>
</svg>
