<svg width="180" height="30" viewBox="0 0 180 30" fill="none" xmlns="http://www.w3.org/2000/svg">
<g clip-path="url(#clip0_1525:202)">
<path d="M0 2.20435V14.3463H32.179V14.3102C23.5835 6.79373 12.3515 2.20435 0 2.20435Z" fill="white"/>
<path d="M44.2415 29.5238V17.3818H12.0625V17.418C20.658 24.9706 31.9261 29.5238 44.2415 29.5238Z" fill="white"/>
<path d="M51.2842 19.4778H53.1261L56.1598 24.1756L59.1935 19.4778H61.0354V29.4154H59.3018V22.2965L56.1598 26.9942H56.0875L53.0177 22.3326V29.4154H51.2842V19.4778Z" fill="white"/>
<path d="M107.48 24.32C107.48 21.5014 109.611 19.1525 112.608 19.1525C114.342 19.1525 115.389 19.6222 116.437 20.4895L115.317 21.7905C114.559 21.14 113.8 20.7425 112.536 20.7425C110.694 20.7425 109.322 22.3325 109.322 24.2478V24.2839C109.322 26.3076 110.658 27.8253 112.681 27.8253C113.62 27.8253 114.45 27.5362 115.064 27.0664V25.2235H112.536V23.7057H116.762V27.8614C115.787 28.6926 114.378 29.4153 112.608 29.4153C109.539 29.4153 107.48 27.211 107.48 24.32Z" fill="white"/>
<path d="M81.5488 28.3674C80.7182 28.9456 79.7069 29.3069 78.5151 29.3069C75.4814 29.3069 73.3506 26.9942 73.3506 24.2116V24.1755C73.3506 21.393 75.5175 19.0441 78.5512 19.0441C81.5849 19.0441 83.7158 21.3568 83.7158 24.1394V24.1755C83.7158 25.2957 83.3546 26.3437 82.7045 27.211L83.8241 28.1867L82.7045 29.4515L81.5488 28.3674ZM80.2487 27.211L78.5512 25.7655L79.6708 24.5007L81.3682 26.0546C81.6933 25.5126 81.8739 24.8982 81.8739 24.2116V24.1755C81.8739 22.2602 80.4654 20.6341 78.5151 20.6341C76.5288 20.6341 75.1564 22.2241 75.1564 24.1394V24.1755C75.1564 26.0908 76.5649 27.7169 78.5151 27.7169C79.2013 27.6808 79.7792 27.5001 80.2487 27.211Z" fill="white"/>
<path d="M137.672 19.4778H145.04V21.0317H139.442V23.6335H144.426V25.1874H139.442V27.8615H145.112V29.4154H137.672V19.4778Z" fill="white"/>
<path d="M165.301 19.4055H166.926L171.296 29.4154H169.454L168.443 27.0304H163.748L162.737 29.4154H160.967L165.301 19.4055ZM167.793 25.4765L166.06 21.5015L164.362 25.4765H167.793Z" fill="white"/>
<path d="M67.0668 19.4055H68.692L73.062 29.4154H71.2201L70.2088 27.0304H65.5138L64.5026 29.4154H62.7329L67.0668 19.4055ZM69.5588 25.4765L67.8252 21.5015L66.1278 25.4765H69.5588Z" fill="white"/>
<path d="M122.648 19.4055H124.274L128.643 29.4154H126.802L125.79 27.0304H121.095L120.084 29.4154H118.278L122.648 19.4055ZM125.14 25.4765L123.407 21.5015L121.709 25.4765H125.14Z" fill="white"/>
<path d="M96.9701 19.4055H98.5953L102.965 29.4154H101.123L100.112 27.0304H95.4171L94.4059 29.4154H92.6362L96.9701 19.4055ZM99.4621 25.4765L97.7285 21.5015L96.0311 25.4765H99.4621Z" fill="white"/>
<path d="M88.0136 21.1039H84.8716V19.4778H92.9254V21.1039H89.7833V29.4154H88.0136V21.1039Z" fill="white"/>
<path d="M131.1 21.1039H127.958V19.4778H136.011V21.1039H132.869V29.4154H131.1V21.1039Z" fill="white"/>
<path d="M174.366 25.5488L170.465 19.5862H172.488L175.233 23.9226L178.013 19.5862H180L176.099 25.4765V29.4154H174.366V25.5488Z" fill="white"/>
<path d="M150.204 29.4153H151.685L154.141 22.2602L156.597 29.4153H158.078L161.545 19.4054H159.703L157.355 26.7773L154.899 19.3693H153.419L150.999 26.7773L148.615 19.4054H146.737L150.204 29.4153Z" fill="white"/>
<path d="M162.484 0H160.787V11.8168H162.484V0Z" fill="white"/>
<path d="M124.201 0H122.504V11.8168H124.201V0Z" fill="white"/>
<path d="M177.689 4.26407V10.2628H170.791V4.3002L170.682 4.26407C170.249 4.19179 169.816 4.11952 169.454 4.08338C169.057 4.04725 168.624 4.01111 168.154 4.01111C167.54 4.01111 166.962 4.11952 166.457 4.33634C165.951 4.55316 165.554 4.84226 165.193 5.23976C164.868 5.60113 164.579 6.03477 164.398 6.54069C164.218 7.01047 164.145 7.55252 164.145 8.09457C164.145 8.56435 164.218 8.99799 164.362 9.43164C164.507 9.86528 164.723 10.2628 165.012 10.6242C165.301 10.9855 165.698 11.2385 166.168 11.4553C166.637 11.6721 167.215 11.7805 167.901 11.7805H169.057C168.985 13.2621 168.046 13.9849 166.204 13.9849C165.843 13.9849 165.482 13.9487 165.12 13.9126C164.759 13.8403 164.398 13.7681 164.037 13.6958L163.856 13.6596L164.001 15.5026L164.109 15.5388C164.362 15.5749 164.687 15.611 165.048 15.6472C165.446 15.6833 165.915 15.6833 166.204 15.6833C167.035 15.6833 167.649 15.5749 168.263 15.3219C168.84 15.069 169.346 14.7438 169.707 14.3462C170.068 13.9487 170.321 13.5151 170.502 13.0453C170.646 12.6117 170.755 12.178 170.755 11.7805H179.386V4.26407H177.689ZM169.093 10.2628H168.154C167.432 10.2628 166.89 10.046 166.529 9.64846C166.168 9.25095 165.951 8.60049 165.951 7.76934C165.951 7.37183 166.023 7.0466 166.168 6.75751C166.312 6.46841 166.457 6.21546 166.673 6.03477C166.854 5.85409 167.107 5.70954 167.324 5.60113C167.576 5.49272 167.793 5.45658 168.01 5.45658C168.082 5.45658 168.154 5.45658 168.263 5.45658H168.588C168.696 5.45658 168.804 5.45658 168.913 5.49272C168.985 5.49272 169.021 5.52886 169.093 5.52886V10.2628Z" fill="white"/>
<path d="M135.722 10.2628V4.3002L135.614 4.26407C135.181 4.19179 134.783 4.11952 134.386 4.08338C133.989 4.04725 133.592 4.01111 133.086 4.01111C132.508 4.01111 131.966 4.11952 131.497 4.3002C130.991 4.48089 130.594 4.76998 130.233 5.13135C129.872 5.49272 129.583 5.92636 129.402 6.43228C129.186 6.93819 129.113 7.48025 129.113 8.09457C129.113 8.63662 129.186 9.14254 129.366 9.57618C129.547 10.0098 129.763 10.4073 130.088 10.7687C130.413 11.0939 130.811 11.3469 131.28 11.5276C131.75 11.7083 132.291 11.7805 132.905 11.7805H136.553H158.367V4.26407H156.669V10.2628H135.722ZM134.025 10.2628H133.086C132.364 10.2628 131.822 10.046 131.425 9.64846C131.064 9.21482 130.847 8.60049 130.847 7.76934C130.847 7.44411 130.919 7.11888 131.027 6.82978C131.136 6.54069 131.28 6.32387 131.461 6.10705C131.641 5.89022 131.858 5.74568 132.111 5.63727C132.364 5.52886 132.616 5.45658 132.905 5.45658C132.978 5.45658 133.05 5.45658 133.158 5.45658H133.483C133.592 5.45658 133.7 5.45658 133.808 5.49272C133.881 5.49272 133.917 5.49272 133.989 5.52886V10.2628H134.025Z" fill="white"/>
<path d="M117.99 10.2629H111.85C112.175 9.72081 112.356 9.03421 112.356 8.34761C112.356 6.21554 110.658 4.55324 108.491 4.55324C106.36 4.55324 104.663 6.1794 104.627 8.27534V8.31148H104.663L104.627 8.34761V8.38375V8.41989C104.627 8.78125 104.591 9.07035 104.519 9.32331C104.446 9.57627 104.338 9.79309 104.193 9.93763C104.049 10.0822 103.905 10.1906 103.76 10.2267C103.58 10.299 103.399 10.299 103.218 10.299H98.9567H97.5121C97.7288 10.0099 97.9094 9.68468 98.0538 9.32331C98.2344 8.81739 98.3428 8.2392 98.3428 7.62488C98.3428 7.11896 98.2705 6.61304 98.1261 6.14326C97.9816 5.67349 97.7649 5.27598 97.476 4.91461C97.1871 4.55324 96.7898 4.26415 96.3564 4.08346C95.923 3.86664 95.3813 3.75823 94.8034 3.75823C94.1895 3.75823 93.6116 3.86664 93.1421 4.08346C92.6726 4.30028 92.2392 4.62552 91.9142 4.98689C91.5892 5.34825 91.3363 5.7819 91.1919 6.25168C91.0113 6.72145 90.9391 7.22737 90.9391 7.69715C90.9391 8.34761 91.0474 8.9258 91.228 9.35944C91.3725 9.72081 91.553 9.97377 91.6975 10.2267H87.5803V7.73329C87.5803 6.50463 87.2914 5.56508 86.7497 4.95075C86.1718 4.33642 85.4134 4.01119 84.4383 4.01119C83.8965 4.01119 83.3909 4.15574 82.8492 4.4087C82.3436 4.66165 81.8741 5.02302 81.4407 5.45666C81.0073 5.89031 80.61 6.36009 80.2489 6.866C80.0683 7.11896 79.8877 7.40805 79.7433 7.66101C79.7433 7.58874 79.7432 7.51647 79.7794 7.40805C79.8155 7.1551 79.8155 6.82986 79.8516 6.4685C79.8877 6.10713 79.8877 5.70962 79.8877 5.34825V0H78.1903V10.299H61.0354H59.7713C59.338 10.299 58.9046 10.2267 58.5073 10.0822C58.1823 9.93763 57.8572 9.79309 57.5683 9.57627C58.11 9.14262 58.5073 8.67284 58.7962 8.20306C59.0851 7.66101 59.2296 7.1551 59.2296 6.68532C59.2296 6.28781 59.1574 5.92644 59.0129 5.56507C58.8684 5.20371 58.6518 4.91461 58.3628 4.62552C58.0739 4.37256 57.7128 4.15574 57.2794 4.01119C56.846 3.86664 56.3404 3.79437 55.7986 3.79437C55.1124 3.79437 54.4262 3.93892 53.74 4.19187C53.0538 4.44483 52.4038 4.8062 51.7898 5.20371L51.7537 5.23984L51.537 6.866L51.6092 6.90214C52.0065 7.08282 52.3676 7.26351 52.6566 7.44419C52.9455 7.62488 53.1983 7.80556 53.4511 7.98624C53.7039 8.20306 53.9206 8.41989 54.1734 8.67284C54.3901 8.9258 54.6429 9.2149 54.8957 9.54013C54.5346 9.72081 54.1373 9.93763 53.74 10.1545C53.3067 10.4074 52.9094 10.6965 52.5482 11.0217C52.1871 11.347 51.862 11.6722 51.6453 12.0336C51.3925 12.3949 51.2842 12.7924 51.2842 13.19C51.2842 13.6236 51.3564 13.985 51.5009 14.3102C51.6453 14.6354 51.8981 14.9245 52.2593 15.1413C52.6205 15.3582 53.0538 15.5027 53.6317 15.6111C54.2095 15.7195 54.8957 15.7557 55.7625 15.7557C56.1959 15.7557 56.5932 15.7557 57.0266 15.6834C57.4599 15.6473 57.8572 15.575 58.2545 15.5027H58.3267L58.4712 14.0211L58.3267 14.0572C58.1461 14.0934 57.9294 14.1295 57.7128 14.1295C57.4961 14.1656 57.2432 14.1656 57.0266 14.2018C56.8099 14.2018 56.5932 14.2379 56.3404 14.2379C56.1237 14.2379 55.907 14.2379 55.7264 14.2379C54.8235 14.2379 54.1373 14.1295 53.6678 13.9488C53.2344 13.7681 53.0177 13.479 53.0177 13.0093C53.0177 12.8286 53.09 12.6118 53.2344 12.4311C53.3789 12.2143 53.5956 11.9974 53.8845 11.7806C54.1734 11.5638 54.4985 11.347 54.8957 11.1302C55.2569 10.9133 55.6542 10.7326 56.0876 10.5158C56.6293 10.9133 57.171 11.2386 57.7128 11.4192C58.2906 11.5999 58.9407 11.7083 59.663 11.7083H61.0354H87.5803H101.413H103.11H103.146C103.76 11.6722 104.266 11.5277 104.591 11.2747C104.88 11.0579 105.096 10.7688 105.277 10.4436C105.999 11.4554 107.155 12.0697 108.455 12.0697C109.069 12.0697 109.611 11.9252 110.116 11.7083H119.687V0H117.99V10.2629ZM57.171 7.8417C56.9543 8.16693 56.7015 8.49216 56.3765 8.78125C55.8709 8.09466 55.3652 7.5526 54.8596 7.08282C54.3901 6.68532 53.8484 6.36009 53.3067 6.21554C53.6317 5.99872 53.9928 5.81803 54.3179 5.67349C54.7152 5.4928 55.1847 5.42053 55.6542 5.42053C56.1959 5.42053 56.6654 5.56507 56.9904 5.81803C57.3155 6.07099 57.4599 6.43236 57.4599 6.866C57.4961 7.11896 57.3877 7.48033 57.171 7.8417ZM85.8107 10.2629H79.9599C80.2128 9.57627 80.5017 8.96194 80.8267 8.41989C81.1879 7.80556 81.549 7.29964 81.9463 6.866C82.3436 6.43236 82.7408 6.10713 83.102 5.89031C83.4993 5.67349 83.8243 5.56507 84.1493 5.56507C84.4383 5.56507 84.6911 5.63735 84.9078 5.74576C85.1245 5.85417 85.2689 6.03485 85.4134 6.21554C85.5579 6.43236 85.6301 6.68532 85.7023 6.97441C85.7746 7.26351 85.8107 7.62488 85.8107 7.95011V10.2629ZM95.9953 9.6124C95.7424 9.97377 95.3813 10.1906 94.9118 10.299L94.5506 10.3351L94.1534 10.299C93.9728 10.2629 93.8283 10.1906 93.6839 10.1183C93.4672 9.97377 93.2505 9.75695 93.106 9.54013C92.9615 9.28717 92.8532 8.99808 92.781 8.70898C92.7087 8.38375 92.6726 8.09465 92.6726 7.76942C92.6726 7.40805 92.7087 7.08282 92.781 6.79373C92.8532 6.50463 92.9615 6.21554 93.1421 5.99872C93.2866 5.7819 93.5033 5.60121 93.72 5.45666C93.9728 5.31212 94.2256 5.23984 94.5506 5.23984C94.8757 5.23984 95.2007 5.31212 95.4535 5.45666C95.7063 5.60121 95.923 5.7819 96.0675 5.99872C96.212 6.21554 96.3564 6.50463 96.4286 6.79373C96.5009 7.11896 96.537 7.40805 96.537 7.73329C96.5009 8.49216 96.3564 9.14262 95.9953 9.6124ZM106.324 8.34761C106.324 7.01055 107.227 6.07099 108.455 6.07099C109.683 6.07099 110.622 7.04669 110.622 8.34761V8.38375C110.622 9.68468 109.719 10.6604 108.455 10.6604C107.263 10.6604 106.324 9.64854 106.324 8.34761Z" fill="white"/>
<path d="M177.544 12.937C177.291 12.937 177.074 13.0454 176.894 13.2261C176.713 13.4068 176.641 13.6236 176.641 13.8766C176.641 14.1295 176.713 14.3463 176.894 14.527C177.074 14.7077 177.291 14.8161 177.544 14.8161C177.797 14.8161 178.014 14.7077 178.194 14.527C178.339 14.3463 178.447 14.1295 178.447 13.8766C178.447 13.6236 178.375 13.4068 178.194 13.2261C178.014 13.0454 177.797 12.937 177.544 12.937Z" fill="white"/>
<path d="M156.2 12.937C155.947 12.937 155.73 13.0454 155.55 13.2261C155.369 13.4068 155.297 13.6236 155.297 13.8766C155.297 14.1295 155.369 14.3463 155.55 14.527C155.73 14.7077 155.947 14.8161 156.2 14.8161C156.453 14.8161 156.669 14.7077 156.85 14.527C156.994 14.3463 157.103 14.1295 157.103 13.8766C157.103 13.6236 157.03 13.4068 156.85 13.2261C156.669 13.0454 156.453 12.937 156.2 12.937Z" fill="white"/>
<path d="M133.627 3.07163C133.916 3.07163 134.133 2.96322 134.314 2.78253C134.494 2.60185 134.566 2.34889 134.566 2.09593C134.566 1.84298 134.458 1.59002 134.314 1.40933C134.133 1.22865 133.916 1.12024 133.627 1.12024C133.339 1.12024 133.122 1.22865 132.905 1.40933C132.725 1.59002 132.616 1.84298 132.616 2.09593C132.616 2.34889 132.725 2.60185 132.905 2.78253C133.086 2.96322 133.339 3.07163 133.627 3.07163Z" fill="white"/>
<path d="M131.244 3.07163C131.569 3.07163 131.858 2.92708 132.039 2.67412C132.147 2.52958 132.219 2.34889 132.219 2.16821C132.255 1.87911 132.147 1.62616 131.93 1.40933C131.75 1.22865 131.497 1.12024 131.208 1.12024C130.919 1.12024 130.702 1.22865 130.486 1.40933C130.305 1.59002 130.197 1.84298 130.197 2.09593C130.197 2.34889 130.305 2.60185 130.486 2.78253C130.739 2.96322 130.955 3.07163 131.244 3.07163Z" fill="white"/>
<path d="M95.7422 3.1439C96.0311 3.1439 96.2478 3.03549 96.4284 2.8548C96.609 2.67412 96.6812 2.42116 96.6812 2.1682C96.6812 1.91524 96.5728 1.66228 96.4284 1.4816C96.2478 1.30092 96.0311 1.1925 95.7422 1.1925C95.4533 1.1925 95.2366 1.30092 95.0199 1.4816C94.8393 1.66228 94.731 1.91524 94.731 2.1682C94.731 2.42116 94.8393 2.67412 95.0199 2.8548C95.2366 3.03549 95.4894 3.1439 95.7422 3.1439Z" fill="white"/>
<path d="M93.395 3.1439C93.7201 3.1439 94.009 2.99935 94.1895 2.74639C94.2979 2.60184 94.3701 2.42116 94.3701 2.24047C94.4062 1.95138 94.2979 1.69842 94.0812 1.4816C93.9006 1.30092 93.6478 1.1925 93.3589 1.1925C93.07 1.1925 92.8533 1.30092 92.6366 1.4816C92.456 1.66228 92.3477 1.91524 92.3477 2.1682C92.3477 2.42116 92.456 2.67412 92.6366 2.8548C92.8533 3.03549 93.1061 3.1439 93.395 3.1439Z" fill="white"/>
</g>
<defs>
<clipPath id="clip0_1525:202">
<rect width="180" height="29.5238" fill="white"/>
</clipPath>
</defs>
</svg>
